<svg width="28" height="29" viewBox="0 0 28 29" fill="none" xmlns="http://www.w3.org/2000/svg">
<path fill-rule="evenodd" clip-rule="evenodd" d="M12.1364 19.1105C12.1265 19.1196 12.1167 19.1289 12.1071 19.1385C11.5567 19.6889 10.6642 19.6889 10.1137 19.1385C9.56328 18.588 9.56328 17.6955 10.1137 17.1451L18.8846 8.37423C19.2149 8.04396 19.2149 7.50848 18.8846 7.17821C18.5543 6.84793 18.0188 6.84793 17.6886 7.17821L8.91771 15.9491C7.7067 17.1601 7.7067 19.1235 8.91771 20.3345C10.1092 21.526 12.0291 21.5452 13.2441 20.392L13.2455 20.3935L13.2461 20.3929L13.2464 20.3932L22.076 11.5636C24.1678 9.47182 24.1678 6.08045 22.076 3.98872C19.9843 1.89699 16.5929 1.89699 14.5012 3.98872L5.7534 12.7365C5.74527 12.7441 5.73725 12.7518 5.72935 12.7597C2.75688 15.7321 2.75688 20.5514 5.72935 23.5239C8.70181 26.4964 13.5211 26.4964 16.4936 23.5239L23.6697 16.3477C24 16.0175 24 15.482 23.6697 15.1517C23.3395 14.8214 22.804 14.8214 22.4737 15.1517L15.2976 22.3279C12.9856 24.6398 9.23729 24.6398 6.92537 22.3279C4.6329 20.0354 4.61362 16.3306 6.86753 14.0143L6.86759 14.0144L15.6972 5.18475C17.1284 3.75356 19.4488 3.75356 20.88 5.18475C22.3112 6.61593 22.3112 8.93634 20.88 10.3675L18.4874 12.7602L18.4871 12.7598L12.1364 19.1105Z" fill="#1F75FF"/>
</svg>
