<svg width="24" height="24" viewBox="0 0 24 24" fill="none" xmlns="http://www.w3.org/2000/svg">
<path d="M15.5409 4.7726V9.43631C15.5409 9.55483 15.404 9.62092 15.3112 9.54722L13.5045 8.11252C13.4529 8.07156 13.3799 8.07156 13.3284 8.11252L11.5217 9.54722C11.4289 9.62092 11.292 9.55483 11.292 9.43631V4.7726M15.5409 4.7726C15.5409 4.3815 15.2238 4.06445 14.8327 4.06445H12.0001C11.609 4.06445 11.292 4.3815 11.292 4.7726M15.5409 4.7726C16.7142 4.7726 17.6653 5.72375 17.6653 6.89704V15.0407C17.6653 15.6274 17.1897 16.103 16.6031 16.103M11.292 4.7726H7.75126C6.96906 4.7726 6.33496 5.4067 6.33496 6.1889V17.5193M16.6031 18.9355H7.75126C6.96906 18.9355 6.33496 18.3015 6.33496 17.5193M16.6031 18.9355H17.6653M16.6031 18.9355C16.6031 18.9355 16.9572 18.5815 16.9572 17.5193C16.9572 16.457 16.6031 16.103 16.6031 16.103M16.6031 16.103H7.75126C6.96906 16.103 6.33496 16.7371 6.33496 17.5193" stroke="#ABB6BA" stroke-width="1.5" stroke-linecap="round"/>
</svg>
