<svg width="24" height="25" viewBox="0 0 24 25" fill="none" xmlns="http://www.w3.org/2000/svg">
<path d="M14.3996 12.9639C14.5796 13.0639 17.3996 13.7639 17.3996 15.4339C17.3996 16.5339 16.8696 17.5339 15.8196 17.8439C14.9096 18.1139 13.6296 18.3639 11.9996 18.3639C10.3696 18.3639 9.08963 18.1239 8.17963 17.8439C7.12963 17.5339 6.59961 16.5339 6.59961 15.4339C6.59961 13.7639 9.41961 13.0639 9.59961 12.9639M11.9996 14.7639C14.0196 14.7639 15.5996 11.6639 15.5996 8.49393C15.5996 7.01393 14.0196 5.77393 11.9996 5.77393C9.97963 5.77393 8.3996 7.01393 8.3996 8.49393C8.3996 11.6639 9.96963 14.7639 11.9996 14.7639Z" stroke="#1F75FF" stroke-width="1.5" stroke-linejoin="round"/>
</svg>
