<svg width="24" height="25" viewBox="0 0 24 25" fill="none" xmlns="http://www.w3.org/2000/svg">
<path d="M17.7 17.1177C17.7 17.6477 17.3101 17.9977 16.7101 17.9977H7.28004C6.67004 17.9977 6.29004 17.6477 6.29004 17.1177C6.29004 16.8377 6.39005 16.5977 6.55005 16.2977L11.0701 8.1877C11.4001 7.5977 11.63 7.3877 12 7.3877C12.37 7.3877 12.6 7.5977 12.93 8.1877L17.45 16.2977C17.61 16.5977 17.7101 16.8277 17.7101 17.1177H17.7Z" stroke="#E0264B" stroke-width="1.5" stroke-linejoin="round"/>
<path d="M11.9893 13.988V10.208" stroke="#E0264B" stroke-width="1.5" stroke-linejoin="round"/>
<path d="M11.9904 14.9277C11.5504 14.9277 11.1904 15.2877 11.1904 15.7277C11.1904 16.1677 11.5504 16.5277 11.9904 16.5277C12.4304 16.5277 12.7904 16.1677 12.7904 15.7277C12.7904 15.2877 12.4304 14.9277 11.9904 14.9277Z" fill="#E0264B"/>
</svg>
