<svg width="40" height="40" viewBox="0 0 24 24" fill="none" xmlns="http://www.w3.org/2000/svg">
<path d="M9.47 9.47V7.36C9.47 6.19 8.53002 5.25 7.36002 5.25C6.19002 5.25 5.25 6.19 5.25 7.36C5.25 8.53 6.19002 9.47 7.36002 9.47H9.47ZM9.47 9.47H14.53M9.47 9.47V14.53M14.53 9.47H16.64C17.8 9.47 18.75 8.53 18.75 7.36C18.75 6.19 17.81 5.25 16.64 5.25C15.47 5.25 14.53 6.19 14.53 7.36V9.47ZM14.53 9.47V14.53M9.47 14.53H7.36002C6.20002 14.53 5.25 15.47 5.25 16.64C5.25 17.81 6.19002 18.75 7.36002 18.75C8.53002 18.75 9.47 17.81 9.47 16.64V14.53ZM9.47 14.53H14.53M14.53 14.53V16.64C14.53 17.81 15.47 18.75 16.64 18.75C17.81 18.75 18.75 17.81 18.75 16.64C18.75 15.47 17.81 14.53 16.64 14.53H14.53Z" stroke="#1F75FF" stroke-width="1.5" stroke-linejoin="round"/>
</svg>
