<svg width="24" height="24" viewBox="0 0 24 24" fill="none" xmlns="http://www.w3.org/2000/svg">
<path d="M14.0914 16.5048L15.2514 18.5848M9.7114 18.5848L10.8614 16.5048M17.6114 18.5848H6.94141M7.07141 12.1648C6.98141 11.7748 6.94141 11.3748 6.94141 10.9648C6.94141 7.9048 9.42139 5.4248 12.4914 5.4248C13.0914 5.4248 13.6714 5.5248 14.2114 5.6948M16.5114 7.1448C17.4514 8.1348 18.0314 9.4848 18.0314 10.9648C18.0314 14.0248 15.5514 16.5048 12.4914 16.5048C10.7614 16.5048 9.21141 15.7048 8.19141 14.4648M13.0514 10.3448C13.9214 10.5948 14.5714 11.3948 14.5714 12.3448C14.5714 13.4948 13.6414 14.4248 12.4914 14.4248C11.3414 14.4248 10.4114 13.4948 10.4114 12.3448" stroke="#1F75FF" stroke-width="1.5" stroke-linejoin="round"/>
<path d="M18.8606 5.41504L5.14062 17.025" stroke="#1F75FF" stroke-width="1.5" stroke-linejoin="round"/>
</svg>
