<svg width="24" height="24" viewBox="0 0 24 24" fill="none" xmlns="http://www.w3.org/2000/svg">
<path d="M8.89621 9.42194V6.31815C8.89621 4.60397 10.2858 3.21436 12 3.21436C13.7142 3.21436 15.1038 4.60397 15.1038 6.31815V9.42194M13.5519 14.0776C13.5519 14.9347 12.8571 15.6295 12 15.6295C11.1429 15.6295 10.4481 14.9347 10.4481 14.0776C10.4481 13.2205 11.1429 12.5257 12 12.5257C12.8571 12.5257 13.5519 13.2205 13.5519 14.0776ZM12 19.5093C9.00019 19.5093 6.56836 17.0774 6.56836 14.0776C6.56836 11.0778 9.00019 8.646 12 8.646C14.9998 8.646 17.4316 11.0778 17.4316 14.0776C17.4316 17.0774 14.9998 19.5093 12 19.5093Z" stroke="white" stroke-width="1.5" stroke-linecap="round" stroke-linejoin="round"/>
</svg>
