<svg width="24" height="25" viewBox="0 0 24 25" fill="none" xmlns="http://www.w3.org/2000/svg">
<path d="M9.47 9.8284V7.7184C9.47 6.5484 8.53002 5.6084 7.36002 5.6084C6.19002 5.6084 5.25 6.5484 5.25 7.7184C5.25 8.8884 6.19002 9.8284 7.36002 9.8284H9.47ZM9.47 9.8284H14.53M9.47 9.8284V14.8884M14.53 9.8284H16.64C17.8 9.8284 18.75 8.8884 18.75 7.7184C18.75 6.5484 17.81 5.6084 16.64 5.6084C15.47 5.6084 14.53 6.5484 14.53 7.7184V9.8284ZM14.53 9.8284V14.8884M9.47 14.8884H7.36002C6.20002 14.8884 5.25 15.8284 5.25 16.9984C5.25 18.1684 6.19002 19.1084 7.36002 19.1084C8.53002 19.1084 9.47 18.1684 9.47 16.9984V14.8884ZM9.47 14.8884H14.53M14.53 14.8884V16.9984C14.53 18.1684 15.47 19.1084 16.64 19.1084C17.81 19.1084 18.75 18.1684 18.75 16.9984C18.75 15.8284 17.81 14.8884 16.64 14.8884H14.53Z" stroke="#00BBFF" stroke-width="1.5" stroke-linejoin="round"/>
</svg>
