<svg width="24" height="24" viewBox="0 0 24 24" fill="none" xmlns="http://www.w3.org/2000/svg">
<path d="M14.8766 15.5956V16.8541M14.8766 7.1457L14.8766 11.9999M9.12344 11.9999L9.12344 16.8541M9.12344 7.1457V8.76377M6.96602 19.9104H17.034C18.2255 19.9104 19.1914 18.9445 19.1914 17.753V6.24678C19.1914 5.05527 18.2255 4.08936 17.034 4.08936H6.96602C5.7745 4.08936 4.80859 5.05527 4.80859 6.24678V17.753C4.80859 18.9445 5.7745 19.9104 6.96602 19.9104ZM7.68516 11.9999H10.5617C10.9589 11.9999 11.2809 11.6779 11.2809 11.2808V9.84248C11.2809 9.44531 10.9589 9.12334 10.5617 9.12334H7.68516C7.28799 9.12334 6.96602 9.44531 6.96602 9.84248V11.2808C6.96602 11.6779 7.28799 11.9999 7.68516 11.9999ZM13.4383 15.5956H16.3148C16.712 15.5956 17.034 15.2736 17.034 14.8765V13.4382C17.034 13.041 16.712 12.719 16.3148 12.719H13.4383C13.0411 12.719 12.7191 13.041 12.7191 13.4382V14.8765C12.7191 15.2736 13.0411 15.5956 13.4383 15.5956Z" stroke="#ABB6BA" stroke-width="1.5" stroke-linecap="round"/>
</svg>
