<svg width="24" height="24" viewBox="0 0 24 24" fill="none" xmlns="http://www.w3.org/2000/svg">
<path d="M7.19661 15.2022H4.79492M7.19661 15.2022C7.19661 16.5286 8.27189 17.6039 9.59831 17.6039C10.9247 17.6039 12 16.5286 12 15.2022M7.19661 15.2022C7.19661 13.8758 8.27189 12.8005 9.59831 12.8005C10.9247 12.8005 12 13.8758 12 15.2022M19.2051 15.2022H12M12 8.79769H4.79492M12 8.79769C12 10.1241 13.0753 11.1994 14.4017 11.1994C15.7281 11.1994 16.8034 10.1241 16.8034 8.79769M12 8.79769C12 7.47127 13.0753 6.396 14.4017 6.396C15.7281 6.396 16.8034 7.47127 16.8034 8.79769M19.2051 8.79769H16.8034" stroke="#ABB6BA" stroke-width="1.5" stroke-linecap="round"/>
</svg>
