<svg width="24" height="24" viewBox="0 0 24 24" fill="none" xmlns="http://www.w3.org/2000/svg">
<path d="M13.6051 16.4999L14.7651 18.5799M9.22507 18.5799L10.3751 16.4999M17.1251 18.5799H6.45508M12.0051 16.4999C8.94507 16.4999 6.45508 14.0199 6.45508 10.9599C6.45508 7.89992 8.93507 5.41992 12.0051 5.41992C15.0751 5.41992 17.5451 7.89992 17.5451 10.9599C17.5451 14.0199 15.0651 16.4999 12.0051 16.4999ZM12.0051 14.4199C10.8551 14.4199 9.92508 13.4899 9.92508 12.3399C9.92508 11.1899 10.8551 10.2599 12.0051 10.2599C13.1551 10.2599 14.0851 11.1899 14.0851 12.3399C14.0851 13.4899 13.1551 14.4199 12.0051 14.4199Z" stroke="#1F75FF" stroke-width="1.5" stroke-linejoin="round"/>
</svg>
