<svg width="25" height="24" viewBox="0 0 25 24" fill="none" xmlns="http://www.w3.org/2000/svg">
<path d="M10.8909 9.47021C10.8909 8.46021 11.7009 7.65021 12.7109 7.65021C13.7209 7.65021 14.5309 8.46021 14.5309 9.47021M8.46094 9.47021C8.46094 7.13021 10.3609 5.22021 12.7109 5.22021C15.0609 5.22021 16.9609 7.12021 16.9609 9.47021M9.68094 12.8702L9.68094 15.7502C9.68094 17.4202 11.0409 18.7802 12.7109 18.7802C14.3809 18.7802 15.7409 17.4202 15.7409 15.7502V12.8702C15.7409 12.1202 15.1309 11.5102 14.3809 11.5102H11.0409C10.2909 11.5102 9.68094 12.1202 9.68094 12.8702Z" stroke="#ABB6BA" stroke-width="1.5" stroke-linejoin="round"/>
<path d="M12.7103 14.3599C11.9403 14.3599 11.3203 14.9799 11.3203 15.7499C11.3203 16.5199 11.9403 17.1399 12.7103 17.1399C13.4803 17.1399 14.1003 16.5199 14.1003 15.7499C14.1003 14.9799 13.4803 14.3599 12.7103 14.3599Z" fill="#ABB6BA"/>
</svg>
