<svg width="34" height="32" viewBox="0 0 34 32" fill="none" xmlns="http://www.w3.org/2000/svg">
<path d="M17.0688 0.851803C23.2082 -1.56292 30.1403 1.45548 32.555 7.59495C34.9697 13.7303 31.9513 20.6665 25.8119 23.0812C22.3048 24.461 18.5389 24.0668 15.5041 22.3297L22.929 22.7157L23.4341 17.0403L15.1058 17.0978L17.7956 9.67292L12.2475 7.74689L10.2969 15.837L10.0915 15.7015C8.11622 9.7222 11.1346 3.18028 17.0605 0.847692L17.0688 0.851803Z" fill="#00BBFF"/>
<path d="M23.4381 17.0405L22.933 22.7159L15.5081 22.3299C13.2289 21.028 11.3603 18.9706 10.3296 16.3382C10.2474 16.1247 10.1694 15.9152 10.0996 15.7017L10.3049 15.8372L12.2556 7.74707L17.8037 9.6731L15.1138 17.098L23.4422 17.0405H23.4381Z" fill="#1F75FF"/>
<path d="M15.2453 22.3169L18.4567 29.6103L13.2987 31.9799L10.5062 24.1813L5.15112 29.7089L1.21284 25.7829L7.0484 20.2677L0.613281 16.432L3.36062 11.2412L10.0997 15.6969C10.1695 15.9064 10.2434 16.1199 10.3296 16.3335C11.3645 18.9617 13.2289 21.0192 15.5081 22.3251L15.2453 22.3128V22.3169Z" fill="#2B388F"/>
</svg>
