<svg width="26" height="28" viewBox="0 0 26 28" fill="none" xmlns="http://www.w3.org/2000/svg">
<path d="M25.4019 23.7041V26.9032C25.4019 27.359 25.0323 27.7245 24.5806 27.7245H1.41899C0.967256 27.7245 0.597656 27.359 0.597656 26.9032V23.7041C0.597656 18.6734 3.59554 14.3409 7.89933 12.3984C9.19293 13.7249 10.9999 14.5462 12.9998 14.5462C14.9998 14.5462 16.8067 13.7249 18.1003 12.3984C22.4041 14.3409 25.4019 18.6734 25.4019 23.7041Z" fill="#934A02"/>
<path d="M13.0007 0.275391C16.9431 0.275391 20.1381 3.47038 20.1381 7.41278C20.1381 9.35524 19.3619 11.1129 18.1011 12.3983C16.5447 11.6919 14.8199 11.3018 13.0007 11.3018C11.1814 11.3018 9.4566 11.6919 7.90017 12.3983C6.63943 11.1129 5.86328 9.35524 5.86328 7.41278C5.86328 3.47038 9.05827 0.275391 13.0007 0.275391Z" fill="#FFC754"/>
<path d="M18.0994 12.3982C16.8058 13.7247 14.9989 14.546 12.9989 14.546C10.999 14.546 9.19204 13.7247 7.89844 12.3982C9.45487 11.6919 11.1797 11.3018 12.9989 11.3018C14.8182 11.3018 16.543 11.6919 18.0994 12.3982Z" fill="#FFA91F"/>
</svg>
