<svg width="30" height="24" viewBox="0 0 30 24" fill="none" xmlns="http://www.w3.org/2000/svg">
<path d="M1.71587 5.94252C1.26002 5.94252 0.894531 5.57292 0.894531 5.12119V2.43544C0.894531 1.10077 1.9787 0.0166016 3.31337 0.0166016H26.6885C28.0232 0.0166016 29.1074 1.10077 29.1074 2.43544V5.12119C29.1074 5.57292 28.7419 5.94252 28.286 5.94252H27.3456V2.66951C27.3456 2.21367 26.976 1.84817 26.5242 1.84817H3.47762C3.02588 1.84817 2.65628 2.21367 2.65628 2.66951V5.94252H1.71587Z" fill="#FFC754"/>
<path d="M27.3455 5.94238V23.1617C27.3455 23.6175 26.9759 23.983 26.5242 23.983H3.47758C3.02585 23.983 2.65625 23.6175 2.65625 23.1617V5.94238H27.3455Z" fill="#934A02"/>
<path d="M2.65625 5.94298V2.66997C2.65625 2.21413 3.02585 1.84863 3.47758 1.84863H26.5242C26.9759 1.84863 27.3455 2.21413 27.3455 2.66997V5.94298H2.65625Z" fill="#FFA91F"/>
<path d="M19.9694 8.94434H10.0353C9.61349 8.94434 9.27148 9.28633 9.27148 9.70818V11.4658C9.27148 11.8877 9.61349 12.2297 10.0353 12.2297H19.9694C20.3912 12.2297 20.7332 11.8877 20.7332 11.4658V9.70818C20.7332 9.28633 20.3912 8.94434 19.9694 8.94434Z" fill="#FFC754"/>
</svg>
