<svg width="34" height="30" viewBox="0 0 34 30" fill="none" xmlns="http://www.w3.org/2000/svg">
<path d="M33.3161 21.3229C33.6323 21.8691 33.2381 22.5549 32.6056 22.5549H14.8032L19.7969 13.9104C20.1132 13.3642 19.7148 12.6784 19.0824 12.6784H13.1523L20.0269 0.769015C20.3431 0.222828 21.1316 0.222828 21.4478 0.769015L33.3161 21.3229Z" fill="#2B388F"/>
<path d="M19.0819 12.6787C19.7143 12.6787 20.1126 13.3645 19.7964 13.9107L14.8027 22.5553H8.87268C8.24025 22.5553 7.84601 21.8694 8.16222 21.3233L13.1518 12.6787H19.0819Z" fill="#1F75FF"/>
<path d="M14.8024 22.5553L10.9504 29.2286C10.6342 29.7789 9.84569 29.7789 9.52948 29.2286L0.683708 13.9107C0.367495 13.3645 0.761739 12.6787 1.39417 12.6787H13.1515L8.16195 21.3233C7.84574 21.8694 8.23998 22.5553 8.87241 22.5553H14.8024Z" fill="#00BBFF"/>
</svg>
