<svg width="28" height="28" viewBox="0 0 28 28" fill="none" xmlns="http://www.w3.org/2000/svg">
<path d="M18.5531 9.14844C23.5879 9.14844 27.6658 13.2305 27.6658 18.2611C27.6658 23.2918 23.5879 27.3738 18.5531 27.3738C13.5183 27.3738 9.76483 23.608 9.46094 18.8525C14.4875 18.8402 18.5531 14.7664 18.5531 9.7398C18.5531 9.54268 18.5449 9.34556 18.5326 9.14844H18.5531Z" fill="#2B388F"/>
<path d="M18.5336 9.14844C18.5459 9.34556 18.5541 9.54268 18.5541 9.7398C18.5541 14.7664 14.4885 18.8402 9.46196 18.8525C9.44964 18.6595 9.44141 18.4583 9.44141 18.2611C9.44141 13.2387 13.5111 9.16076 18.5336 9.14844Z" fill="#1F75FF"/>
<path d="M9.4406 0.626953C14.2783 0.626953 18.2289 4.39277 18.5328 9.14829C13.5103 9.16061 9.4406 13.2385 9.4406 18.261C9.4406 18.4581 9.44883 18.6593 9.46115 18.8524H9.4406C4.40993 18.8524 0.332031 14.7744 0.332031 9.73965C0.332031 4.70488 4.40993 0.626953 9.4406 0.626953Z" fill="#00BBFF"/>
</svg>
