<svg width="40" height="40" viewBox="0 0 40 40" fill="none" xmlns="http://www.w3.org/2000/svg">
<path d="M36.3161 26.3229C36.6323 26.8691 36.2381 27.5549 35.6056 27.5549H17.8032L22.7969 18.9104C23.1132 18.3642 22.7148 17.6784 22.0824 17.6784H16.1523L23.0269 5.76902C23.3431 5.22283 24.1316 5.22283 24.4478 5.76902L36.3161 26.3229Z" fill="#ABB6BA"/>
<path d="M22.0819 17.6787C22.7143 17.6787 23.1126 18.3645 22.7964 18.9107L17.8027 27.5553H11.8727C11.2403 27.5553 10.846 26.8694 11.1622 26.3233L16.1518 17.6787H22.0819Z" fill="#BEC7CB"/>
<path d="M17.8024 27.5553L13.9504 34.2286C13.6342 34.7789 12.8457 34.7789 12.5295 34.2286L3.68371 18.9107C3.36749 18.3645 3.76174 17.6787 4.39417 17.6787H16.1515L11.1619 26.3233C10.8457 26.8694 11.24 27.5553 11.8724 27.5553H17.8024Z" fill="#E5E9EC"/>
</svg>
