<svg width="26" height="34" viewBox="0 0 26 34" fill="none" xmlns="http://www.w3.org/2000/svg">
<path d="M24.589 32.587C24.9134 33.1332 24.5192 33.8231 23.8827 33.8231H2.11732C1.48078 33.8231 1.08654 33.1332 1.41097 32.587L6.93854 23.2197C8.72905 24.2382 10.7947 24.8172 13 24.8172C15.2053 24.8172 17.2709 24.2382 19.0614 23.2197L24.589 32.587Z" fill="#934A02"/>
<path d="M12.9997 0.176758C19.8044 0.176758 25.3197 5.69201 25.3197 12.4968C25.3197 17.0962 22.7982 21.1084 19.0611 23.2193L12.9997 12.9485L6.93825 23.2193C3.20118 21.1084 0.679688 17.0962 0.679688 12.4968C0.679687 5.69201 6.19494 0.176758 12.9997 0.176758Z" fill="#FFC754"/>
<path d="M12.9989 12.9482L19.0604 23.219C17.2699 24.2375 15.2042 24.8165 12.9989 24.8165C10.7937 24.8165 8.72801 24.2375 6.9375 23.219L12.9989 12.9482Z" fill="#FFA91F"/>
<path d="M12.9999 17.0964C15.5401 17.0964 17.5993 15.0371 17.5993 12.4969C17.5993 9.95671 15.5401 7.89746 12.9999 7.89746C10.4596 7.89746 8.40039 9.95671 8.40039 12.4969C8.40039 15.0371 10.4596 17.0964 12.9999 17.0964Z" fill="#934A02"/>
</svg>
