<svg width="34" height="26" viewBox="0 0 34 26" fill="none" xmlns="http://www.w3.org/2000/svg">
<path d="M24.252 20.1211V6.1543L14.6218 11.7147C13.5254 12.3472 13.5254 13.9282 14.6218 14.5606L24.252 20.1211Z" fill="#1F75FF"/>
<path d="M23.4306 0.811523H1.79255C1.34082 0.811523 0.97122 1.18112 0.97122 1.63286V24.3674C0.97122 24.8232 1.34082 25.1887 1.79255 25.1887H23.4306C23.8865 25.1887 24.252 24.8232 24.252 24.3674V20.1211L14.6218 14.5607C13.5254 13.9282 13.5254 12.3472 14.6218 11.7147L24.252 6.1543V1.63286C24.252 1.18112 23.8865 0.811523 23.4306 0.811523Z" fill="#2B388F"/>
<path d="M24.2512 6.15416V20.1209L30.5672 23.7677C31.6596 24.4001 33.0312 23.6075 33.0312 22.3427V3.93245C33.0312 2.6676 31.6596 1.87501 30.5672 2.50744L24.2512 6.15416Z" fill="#00BBFF"/>
<path d="M5.61851 7.76782C4.21912 7.76782 3.08468 6.6334 3.08468 5.23402C3.08468 3.83463 4.21912 2.7002 5.61851 2.7002C7.0179 2.7002 8.15234 3.83463 8.15234 5.23402C8.15234 6.6334 7.0179 7.76782 5.61851 7.76782Z" fill="#00BBFF"/>
</svg>
