<svg width="34" height="32" viewBox="0 0 34 32" fill="none" xmlns="http://www.w3.org/2000/svg">
<path d="M33.186 1.80291V21.8722C33.186 22.3691 32.7507 22.751 32.2579 22.6894L22.7551 21.4451V12.7883C22.7551 12.3735 22.4513 12.0244 22.0406 11.971L11.2441 10.5542V4.46403C11.2441 4.04926 11.548 3.7043 11.9587 3.65091L32.2579 0.989793C32.7507 0.924086 33.186 1.30601 33.186 1.80291Z" fill="#FFC754"/>
<path d="M22.7544 21.4455V27.5356C22.7544 27.9463 22.4505 28.2954 22.0399 28.3488L1.74061 31.0099C1.24781 31.0756 0.8125 30.6937 0.8125 30.1968V10.1275C0.8125 9.63056 1.24781 9.24864 1.74061 9.31024L11.2434 10.5546V19.2114C11.2434 19.6262 11.5473 19.9753 11.958 20.0286L22.7544 21.4455Z" fill="#934A02"/>
<path d="M22.7551 12.7877V21.4446L11.9587 20.0278C11.548 19.9744 11.2441 19.6253 11.2441 19.2106V10.5537L22.0406 11.9705C22.4513 12.0239 22.7551 12.373 22.7551 12.7877Z" fill="#FFA91F"/>
</svg>
