<svg width="28" height="28" viewBox="0 0 28 28" fill="none" xmlns="http://www.w3.org/2000/svg">
<path d="M24.1002 0.513672C26.1454 0.513672 27.8045 2.17277 27.8045 4.2179C27.8045 5.24456 27.3897 6.16857 26.7203 6.84206C26.0509 7.51145 25.1228 7.92623 24.1002 7.92623H22.9627V4.43145C22.9627 3.97972 22.5972 3.61012 22.1414 3.61012H6.08838C5.63254 3.61012 5.26705 3.97972 5.26705 4.43145V7.92623H3.89953C1.85441 7.92623 0.195312 6.26712 0.195312 4.2179C0.195312 3.19533 0.610086 2.27133 1.27947 1.59784C1.95297 0.928451 2.87697 0.513672 3.89953 0.513672H24.1002Z" fill="#00BBFF"/>
<path d="M22.9632 7.92578V26.6645C22.9632 27.1204 22.5977 27.4858 22.1419 27.4858H6.08891C5.63307 27.4858 5.26758 27.1204 5.26758 26.6645V7.92578H22.9632Z" fill="#2B388F"/>
<path d="M22.9632 4.43169V7.92647H5.26758V4.43169C5.26758 3.97995 5.63307 3.61035 6.08891 3.61035H22.1419C22.5977 3.61035 22.9632 3.97995 22.9632 4.43169Z" fill="#1F75FF"/>
<path d="M17.7515 12.9524C17.7515 12.9524 16.3757 11.8066 14.1623 11.8066C11.9488 11.8066 10.7701 13.051 10.7701 14.6567C10.7701 16.2624 12.8029 17.0509 14.2608 17.5396C15.7187 18.0324 17.9486 18.5211 17.9486 20.4881C17.9486 22.291 15.8172 23.1082 14.3594 23.1082C13.0001 23.1082 11.1315 22.2458 10.2773 21.5682" stroke="#00BBFF" stroke-width="2" stroke-miterlimit="10"/>
<path d="M14.1621 9.4248V25.33" stroke="#00BBFF" stroke-width="2" stroke-miterlimit="10"/>
</svg>
