<svg width="32" height="28" viewBox="0 0 32 28" fill="none" xmlns="http://www.w3.org/2000/svg">
<path d="M31.9905 1.06157V20.519C31.9905 20.9707 31.6209 21.3403 31.1692 21.3403H11.5065L14.9766 18.1453C15.5269 17.6402 15.1696 16.7203 14.4222 16.7203H4.21715C3.76541 16.7203 3.39581 17.0899 3.39581 17.5416V21.3403H0.829146C0.373306 21.3403 0.0078125 20.9707 0.0078125 20.519V1.06157C0.0078125 0.609835 0.373306 0.240234 0.829146 0.240234H31.1692C31.6209 0.240234 31.9905 0.609835 31.9905 1.06157Z" fill="#ABB6BA"/>
<path d="M14.4229 16.7207C15.1703 16.7207 15.5276 17.6406 14.9773 18.1457L11.5072 21.3407H3.39648V17.542C3.39648 17.0903 3.76608 16.7207 4.21782 16.7207H14.4229Z" fill="#BEC7CB"/>
<path d="M11.5072 21.3398L4.77632 27.5409C4.25067 28.0255 3.39648 27.6518 3.39648 26.9372V21.3398H11.5072Z" fill="#E5E9EC"/>
</svg>
