<svg width="20" height="32" viewBox="0 0 20 32" fill="none" xmlns="http://www.w3.org/2000/svg">
<path d="M19.1509 29.1021V31.4757H0.851562V29.1021C0.851562 27.7428 1.95215 26.6381 3.31556 26.6381H4.51061V24.5642H3.29093C2.5969 24.5642 2.03428 23.981 2.07124 23.2788C2.1082 22.6176 2.69956 22.1248 3.36074 22.1248H4.51061L6.07935 18.2071C6.65428 16.7656 6.94997 15.2256 6.94997 13.6733V12.3633H13.0525V13.6733C13.0525 15.2256 13.3482 16.7656 13.9231 18.2071L15.4918 22.1248H16.7115C17.4055 22.1248 17.9682 22.708 17.9312 23.4102C17.8942 24.0714 17.3029 24.5642 16.6417 24.5642H15.4918V26.6381H16.6869C18.0503 26.6381 19.1509 27.7428 19.1509 29.1021Z" fill="#2B388F"/>
<path d="M14.2847 9.92383C14.9582 9.92383 15.5044 10.47 15.5044 11.1435C15.5044 11.817 14.9582 12.3632 14.2847 12.3632H13.0527V9.92383H14.2847Z" fill="#00BBFF"/>
<path d="M15.3113 5.83337C15.3113 7.48014 14.5638 8.95033 13.3893 9.92361H6.61332C5.43882 8.95033 4.69141 7.48014 4.69141 5.83337C4.69141 2.90121 7.06916 0.523438 10.0013 0.523438C12.9335 0.523438 15.3113 2.90121 15.3113 5.83337Z" fill="#00BBFF"/>
<path d="M13.0517 9.92383H6.94922V12.3632H13.0517V9.92383Z" fill="#1F75FF"/>
<path d="M6.94973 9.92383V12.3632H5.71773C5.04423 12.3632 4.49805 11.817 4.49805 11.1435C4.49805 10.47 5.04423 9.92383 5.71773 9.92383H6.94973Z" fill="#00BBFF"/>
</svg>
