<svg width="20" height="32" viewBox="0 0 20 32" fill="none" xmlns="http://www.w3.org/2000/svg">
<path d="M19.939 29.0604V31.4752H0.0585938V29.0604C0.0585938 27.6765 1.17972 26.5513 2.56778 26.5513H3.78335V24.4404H16.2142V26.5513H17.4298C18.8179 26.5513 19.939 27.6765 19.939 29.0604Z" fill="#2B388F"/>
<path d="M17.4553 21.96C18.1657 21.96 18.7324 22.5554 18.6955 23.27C18.6585 23.9435 18.0548 24.4445 17.3813 24.4445H16.2109C16.2808 24.1242 16.3834 23.0605 16.6339 21.96H17.4511H17.4553Z" fill="#2B388F"/>
<path d="M15.4472 3.4722C20.9419 7.13535 19.3978 14.708 17.0652 20.5108C16.8845 20.9584 16.7449 21.4635 16.634 21.9604H3.94439C4.3222 19.7592 5.28315 18.593 6.34678 17.5745C8.67526 15.361 11.4308 12.7902 10.6095 10.7123C9.61158 10.9751 8.70813 11.0819 7.89911 11.0203C7.08599 11.4022 6.90119 11.7266 5.78007 12.8108C5.61991 12.9627 5.37761 12.9791 5.20924 12.8477C4.24828 12.1208 2.54812 10.856 3.22572 9.98127C3.42695 9.72255 6.02236 6.15385 8.46993 4.14569C9.84567 3.02457 11.7429 2.89316 11.7429 2.89316C14.6587 0.815184 16.5313 -1.43938 15.4472 3.4722Z" fill="#00BBFF"/>
<path d="M16.2149 21.96H16.6379C16.3874 23.0605 16.2888 24.1201 16.2149 24.4445H3.784C3.76757 23.4876 3.82506 22.6663 3.94826 21.96H16.2149Z" fill="#1F75FF"/>
<path d="M3.78292 21.96H3.94719C3.82399 22.6663 3.7665 23.4835 3.78292 24.4445H2.54271C1.83226 24.4445 1.26553 23.849 1.30249 23.1345C1.33945 22.461 1.94314 21.96 2.61663 21.96H3.78703H3.78292Z" fill="#2B388F"/>
</svg>
