<svg width="22" height="34" viewBox="0 0 22 34" fill="none" xmlns="http://www.w3.org/2000/svg">
<path d="M21.5969 7.78272C21.9774 8.09178 21.9903 8.6367 21.6359 8.97016L18.6875 11.7435C18.3763 12.0404 17.8834 12.0567 17.5333 11.8005C16.5952 11.1051 15.4669 10.6293 14.2305 10.4585V4.84668C17.0361 5.07034 19.5867 6.13984 21.5969 7.78272Z" fill="#2B388F"/>
<path d="M21.6359 25.0294C21.9903 25.3629 21.9774 25.9078 21.6013 26.2168C19.5911 27.8597 17.0361 28.9252 14.2305 29.1488V23.5411C15.4625 23.3703 16.5952 22.8945 17.529 22.2032C17.8791 21.947 18.3763 21.9592 18.6919 22.256L21.6359 25.0294Z" fill="#2B388F"/>
<path d="M14.232 29.1492V32.5854C14.232 33.0328 13.8429 33.3988 13.3673 33.3988H9.0443C8.56444 33.3988 8.17969 33.0328 8.17969 32.5854V28.2871C9.69708 28.8727 11.3615 29.198 13.1036 29.198C13.4841 29.198 13.8602 29.1817 14.232 29.1492Z" fill="#00BBFF"/>
<path d="M14.232 23.5413V29.1491C13.8602 29.1816 13.4841 29.1979 13.1036 29.1979C11.3615 29.1979 9.69708 28.8726 8.17969 28.287V21.9473C10.2375 23.3706 12.3558 23.8057 14.232 23.5413Z" fill="#1F75FF"/>
<path d="M14.232 10.4591V23.5412C12.3558 23.8055 10.2375 23.3704 8.17969 21.9471V12.3541C9.45499 11.1382 11.2274 10.3818 13.1901 10.3818C13.5446 10.3818 13.8948 10.4062 14.232 10.4591Z" fill="#00BBFF"/>
<path d="M14.232 4.84746V10.4593C13.8948 10.4064 13.5446 10.382 13.1901 10.382C11.2274 10.382 9.45499 11.1384 8.17969 12.3543V5.65264C10.2548 4.9288 12.3039 4.68887 14.232 4.84746Z" fill="#1F75FF"/>
<path d="M14.232 1.41487V4.84703C12.3039 4.68844 10.2548 4.92836 8.17969 5.65221V1.41487C8.17969 0.967551 8.56444 0.601562 9.0443 0.601562H13.3673C13.8429 0.601562 14.232 0.967551 14.232 1.41487Z" fill="#00BBFF"/>
<path d="M8.17862 21.947V28.2867C1.34821 25.6475 -2.58577 17.7015 2.26037 9.94661C3.67401 7.68968 6.08627 6.49412 7.27943 5.998C7.57772 5.87194 7.88033 5.75807 8.17862 5.65234V12.354C5.88308 14.5459 5.20004 18.2464 7.9495 21.7355C8.0057 21.8047 8.07055 21.8697 8.14404 21.9226C8.15701 21.9307 8.16566 21.9389 8.17862 21.947Z" fill="#2B388F"/>
</svg>
