<svg width="32" height="28" viewBox="0 0 32 28" fill="none" xmlns="http://www.w3.org/2000/svg">
<path d="M31.3408 10.0463C31.4968 10.4734 31.2751 10.9416 30.848 11.0976L24.8153 13.2947C24.3882 13.4508 23.9159 13.229 23.7599 12.806L23.5915 12.342L16.9962 14.4528L15.8792 10.8307C15.641 10.0545 14.5486 10.0545 14.3104 10.8307L12.7786 15.7998L6.35581 17.8531C5.93692 17.9886 5.48519 17.7669 5.33735 17.3521L4.90615 16.1735L2.24914 17.1426C1.82204 17.2946 1.34978 17.0769 1.19373 16.6498L0.659857 15.1755C0.503804 14.7484 0.721458 14.2762 1.14855 14.1201L3.80557 13.1551L3.37847 11.9765C3.22652 11.5617 3.43186 11.1017 3.83842 10.9334L20.5854 4.07933L20.417 3.61528C20.261 3.18818 20.4786 2.71592 20.9057 2.56397L26.9425 0.366889C27.3696 0.210835 27.8419 0.42849 27.9938 0.855583L31.3408 10.0463Z" fill="#2B388F"/>
<path d="M20.7452 26.6212C20.9095 27.1468 20.5111 27.6848 19.9608 27.6848H10.2321C9.67774 27.6848 9.2835 27.1468 9.44777 26.6212L12.7783 15.8001L16.9958 14.4531L20.7452 26.6212Z" fill="#00BBFF"/>
<path d="M15.8798 10.8311L16.9968 14.4532L12.7793 15.8002L14.3111 10.8311C14.5493 10.055 15.6416 10.055 15.8798 10.8311Z" fill="#1F75FF"/>
</svg>
