<svg width="32" height="30" viewBox="0 0 32 30" fill="none" xmlns="http://www.w3.org/2000/svg">
<path d="M4.76638 29.8368C4.31464 29.8368 3.94504 29.4672 3.94504 29.0155V8.38355C3.94504 7.93181 3.57955 7.56221 3.12371 7.56221H1.53032C1.07448 7.56221 0.708984 7.19672 0.708984 6.74088V4.68754C0.708984 4.23581 1.07448 3.86621 1.53032 3.86621H14.1501V7.96877C14.1501 8.42051 14.5197 8.79011 14.9714 8.79011H17.0248C17.4806 8.79011 17.8461 8.42051 17.8461 7.96877V3.86621H30.47C30.9258 3.86621 31.2913 4.23581 31.2913 4.68754V6.74088C31.2913 7.19672 30.9258 7.56221 30.47 7.56221H28.8725C28.4208 7.56221 28.0512 7.93181 28.0512 8.38355V29.0155C28.0512 29.4672 27.6857 29.8368 27.2298 29.8368H4.76638Z" fill="#2B388F"/>
<path d="M17.8464 3.86621V7.96877C17.8464 8.42051 17.4809 8.79011 17.0251 8.79011H14.9717C14.52 8.79011 14.1504 8.42051 14.1504 7.96877V3.86621H17.8464Z" fill="#1F75FF"/>
<path d="M17.8464 0.983443V3.86633H14.1504V0.983443C14.1504 0.53171 14.52 0.162109 14.9717 0.162109H17.0251C17.4809 0.162109 17.8464 0.53171 17.8464 0.983443Z" fill="#00BBFF"/>
<path d="M14.9755 12.2441H17.0288C17.4805 12.2441 17.8501 12.6137 17.8501 13.0655V25.8454C17.8501 26.2972 17.4805 26.6668 17.0288 26.6668H14.9755C14.5237 26.6668 14.1541 26.2972 14.1541 25.8454V13.0655C14.1541 12.6137 14.5237 12.2441 14.9755 12.2441ZM20.7494 13.0655V25.8454C20.7494 26.2972 21.119 26.6668 21.5708 26.6668H23.6241C24.0758 26.6668 24.4454 26.2972 24.4454 25.8454V13.0655C24.4454 12.6137 24.0758 12.2441 23.6241 12.2441H21.5708C21.119 12.2441 20.7494 12.6137 20.7494 13.0655ZM8.37602 26.6668H10.4294C10.8811 26.6668 11.2507 26.2972 11.2507 25.8454V13.0655C11.2507 12.6137 10.8811 12.2441 10.4294 12.2441H8.37602C7.92429 12.2441 7.55469 12.6137 7.55469 13.0655V25.8454C7.55469 26.2972 7.92429 26.6668 8.37602 26.6668Z" fill="#00BBFF"/>
</svg>
