<svg width="40" height="40" viewBox="0 0 40 40" fill="none" xmlns="http://www.w3.org/2000/svg">
<path d="M32.4474 7.68852V35.117C32.4474 35.5687 32.0778 35.9383 31.626 35.9383H8.37407C7.92233 35.9383 7.55273 35.5687 7.55273 35.117V7.68852C7.55273 7.23679 7.92233 6.86719 8.37407 6.86719H13.3965V19.9346C13.3965 20.5793 14.0987 20.9736 14.6449 20.6368L19.5729 17.6143C19.8357 17.4542 20.1684 17.4542 20.4312 17.6143L25.3551 20.6368C25.9013 20.9736 26.6036 20.5793 26.6036 19.9346V6.86719H31.626C32.0778 6.86719 32.4474 7.23679 32.4474 7.68852Z" fill="#ABB6BA"/>
<path d="M26.6035 6.86719V19.9346C26.6035 20.5793 25.9013 20.9736 25.3551 20.6368L20.4312 17.6143C20.1684 17.4542 19.8357 17.4542 19.5729 17.6143L14.6449 20.6368C14.0987 20.9736 13.3965 20.5793 13.3965 19.9346V6.86719H26.6035Z" fill="#BEC7CB"/>
<path d="M26.6035 4.88383V6.86736H13.3965V4.88383C13.3965 4.42799 13.762 4.0625 14.2178 4.0625H25.7822C26.2381 4.0625 26.6035 4.42799 26.6035 4.88383Z" fill="#E5E9EC"/>
</svg>
