<svg width="26" height="32" viewBox="0 0 26 32" fill="none" xmlns="http://www.w3.org/2000/svg">
<path d="M25.4474 3.68852V31.117C25.4474 31.5687 25.0778 31.9383 24.626 31.9383H1.37407C0.922335 31.9383 0.552734 31.5687 0.552734 31.117V3.68852C0.552734 3.23679 0.922335 2.86719 1.37407 2.86719H6.39652V15.9346C6.39652 16.5793 7.09872 16.9736 7.64491 16.6368L12.5729 13.6143C12.8357 13.4542 13.1684 13.4542 13.4312 13.6143L18.3551 16.6368C18.9013 16.9736 19.6036 16.5793 19.6036 15.9346V2.86719H24.626C25.0778 2.86719 25.4474 3.23679 25.4474 3.68852Z" fill="#934A02"/>
<path d="M19.6035 2.86719V15.9346C19.6035 16.5793 18.9013 16.9736 18.3551 16.6368L13.4312 13.6143C13.1684 13.4542 12.8357 13.4542 12.5729 13.6143L7.64488 16.6368C7.09869 16.9736 6.39648 16.5793 6.39648 15.9346V2.86719H19.6035Z" fill="#FFA91F"/>
<path d="M19.6035 0.883834V2.86736H6.39648V0.883834C6.39648 0.427994 6.76198 0.0625 7.21782 0.0625H18.7822C19.2381 0.0625 19.6035 0.427994 19.6035 0.883834Z" fill="#FFC754"/>
</svg>
