<svg width="28" height="32" viewBox="0 0 28 32" fill="none" xmlns="http://www.w3.org/2000/svg">
<path d="M27.2316 13.1766V30.4468C27.2316 30.8418 26.9113 31.1586 26.5198 31.1586H1.47736C1.08235 31.1586 0.765625 30.8418 0.765625 30.4468V13.1766C0.765625 12.7851 1.08235 12.4648 1.47736 12.4648H5.5734L19.986 24.4469C20.4487 24.8312 21.1533 24.5038 21.1533 23.8989V12.4648H26.5198C26.9113 12.4648 27.2316 12.7851 27.2316 13.1766Z" fill="#2B388F"/>
<path d="M21.1541 12.4648V23.8989C21.1541 24.5038 20.4495 24.8312 19.9869 24.4469L5.57422 12.4648H8.95496C9.58841 12.4648 10.1471 12.8848 10.318 13.4933C10.7664 15.1054 12.2432 16.2833 13.9976 16.2833C15.7521 16.2833 17.2289 15.1054 17.6773 13.4933C17.8481 12.8848 18.4068 12.4648 19.0403 12.4648H21.1541Z" fill="#1F75FF"/>
<path d="M21.1535 1.55375V12.4647H19.0397C18.4062 12.4647 17.8475 12.8846 17.6767 13.4931C17.2283 15.1052 15.7515 16.2831 13.997 16.2831C12.2426 16.2831 10.7658 15.1052 10.3174 13.4931C10.1466 12.8846 9.58781 12.4647 8.95437 12.4647H5.57363L2.80497 10.1622C2.33166 9.76717 2.54522 9.00205 3.15375 8.90953L11.8974 7.6035C12.4454 7.52165 12.9579 7.28322 13.3707 6.91311L19.9649 1.02351C20.424 0.61426 21.1535 0.941655 21.1535 1.55375Z" fill="#00BBFF"/>
</svg>
