<svg width="34" height="29" viewBox="0 0 34 29" fill="none" xmlns="http://www.w3.org/2000/svg">
<path d="M17.7052 7.60109L11.7847 19.4396C11.58 19.8489 11.7458 20.3466 12.1551 20.5513L14.3783 21.6631C14.7876 21.8678 15.2853 21.7019 15.49 21.2927L21.4105 9.45415C21.6152 9.04487 21.4494 8.54716 21.0401 8.34247L18.8169 7.23064C18.4076 7.02595 17.9099 7.19181 17.7052 7.60109Z" fill="#1F75FF"/>
<path d="M29.0006 22.7857C29.0006 26.216 26.2166 29 22.7863 29H21.5434C21.0877 29 20.7148 28.6271 20.7148 28.1714V25.6857C20.7148 25.23 21.0877 24.8571 21.5434 24.8571H22.7863C23.9297 24.8571 24.8577 23.9291 24.8577 22.7857V18.6429C24.8577 17.052 25.4584 15.5979 26.4444 14.5C27.5796 15.7719 29.2326 16.5714 31.072 16.5714C29.9286 16.5714 29.0006 17.4994 29.0006 18.6429V22.7857Z" fill="#2B388F"/>
<path d="M6.69984 14.5C5.56469 13.2281 3.91169 12.4286 2.07227 12.4286C3.21569 12.4286 4.14369 11.5006 4.14369 10.3571V6.21429C4.14369 2.784 6.92769 0 10.358 0H11.6008C12.0566 0 12.4294 0.372857 12.4294 0.828571V3.31429C12.4294 3.77 12.0566 4.14286 11.6008 4.14286H10.358C9.21455 4.14286 8.28655 5.07086 8.28655 6.21429V10.3571C8.28655 11.948 7.68584 13.4021 6.69984 14.5Z" fill="#00BBFF"/>
<path d="M2.07227 16.5714C3.91169 16.5714 5.56469 15.7719 6.69984 14.5C7.68584 15.5979 8.28655 17.052 8.28655 18.6429V22.7857C8.28655 23.9291 9.21455 24.8571 10.358 24.8571H11.6008C12.0566 24.8571 12.4294 25.23 12.4294 25.6857V28.1714C12.4294 28.6271 12.0566 29 11.6008 29H10.358C6.92769 29 4.14369 26.216 4.14369 22.7857V18.6429C4.14369 17.4994 3.21569 16.5714 2.07227 16.5714Z" fill="#2B388F"/>
<path d="M24.8577 6.21429C24.8577 5.07086 23.9297 4.14286 22.7863 4.14286H21.5434C21.0877 4.14286 20.7148 3.77 20.7148 3.31429V0.828571C20.7148 0.372857 21.0877 0 21.5434 0H22.7863C26.2166 0 29.0006 2.784 29.0006 6.21429V10.3571C29.0006 11.5006 29.9286 12.4286 31.072 12.4286C29.2326 12.4286 27.5796 13.2281 26.4444 14.5C25.4584 13.4021 24.8577 11.948 24.8577 10.3571V6.21429Z" fill="#00BBFF"/>
<path d="M31.0709 16.5716C29.2315 16.5716 27.5785 15.772 26.4434 14.5001C27.5785 13.2283 29.2315 12.4287 31.0709 12.4287H32.3138C32.7695 12.4287 33.1424 12.8016 33.1424 13.2573V15.743C33.1424 16.1987 32.7695 16.5716 32.3138 16.5716H31.0709Z" fill="#1F75FF"/>
<path d="M0 13.2573C0 12.8016 0.372857 12.4287 0.828571 12.4287H2.07143C3.91086 12.4287 5.56386 13.2283 6.699 14.5001C5.56386 15.772 3.91086 16.5716 2.07143 16.5716H0.828571C0.372857 16.5716 0 16.1987 0 15.743V13.2573Z" fill="#1F75FF"/>
</svg>
