<svg width="20" height="34" viewBox="0 0 20 34" fill="none" xmlns="http://www.w3.org/2000/svg">
<path d="M18.838 14.7783C19.4704 14.7783 19.8647 15.4682 19.5444 16.0144L9.71712 32.8559C9.29414 33.5827 8.18945 33.283 8.18945 32.4411V19.2217H10.9902C11.446 19.2217 11.8115 18.8521 11.8115 18.4004V14.7783H18.838Z" fill="#E5E9EC"/>
<path d="M11.8115 14.7783V18.4004C11.8115 18.8521 11.446 19.2217 10.9902 19.2217H8.18945V15.5997C8.18945 15.1479 8.55495 14.7783 9.01079 14.7783H11.8115Z" fill="#BEC7CB"/>
<path d="M11.8105 1.5589V14.7783H9.00977C8.55393 14.7783 8.18843 15.1479 8.18843 15.5996V19.2217H1.1619C0.529475 19.2217 0.135247 18.5318 0.455567 17.9856L10.2828 1.14412C10.7058 0.417244 11.8105 0.717035 11.8105 1.5589Z" fill="#ABB6BA"/>
</svg>
