<svg width="40" height="40" viewBox="0 0 40 40" fill="none" xmlns="http://www.w3.org/2000/svg">
<path d="M36.427 17.1261V31.0887C36.427 31.9963 35.6919 32.7314 34.7843 32.7314H32.3203V15.4834H34.7843C35.6919 15.4834 36.427 16.2185 36.427 17.1261Z" fill="#ABB6BA"/>
<path d="M32.3217 15.4834V32.7314H7.68164V17.1261C7.68164 16.2185 8.41673 15.4834 9.32431 15.4834H32.3217Z" fill="#BEC7CB"/>
<path d="M32.3209 13.0189V15.4829H9.32356C8.41598 15.4829 7.68089 16.218 7.68089 17.1255V32.7309H5.21689C4.30931 32.7309 3.57422 31.9958 3.57422 31.0882V8.9122C3.57422 8.00463 4.30931 7.26953 5.21689 7.26953H10.765C11.4221 7.26953 12.0463 7.52825 12.5103 7.9923L15.1714 10.6534C15.6355 11.1175 16.2597 11.3762 16.9168 11.3762H30.6783C31.5858 11.3762 32.3209 12.1113 32.3209 13.0189Z" fill="#E5E9EC"/>
</svg>
