<svg width="34" height="26" viewBox="0 0 34 26" fill="none" xmlns="http://www.w3.org/2000/svg">
<path d="M33.427 10.1261V24.0887C33.427 24.9963 32.6919 25.7314 31.7843 25.7314H29.3203V8.4834H31.7843C32.6919 8.4834 33.427 9.21849 33.427 10.1261Z" fill="#934A02"/>
<path d="M29.3217 8.4834V25.7314H4.68164V10.1261C4.68164 9.21849 5.41673 8.4834 6.32431 8.4834H29.3217Z" fill="#FFA91F"/>
<path d="M29.3209 6.01887V8.48287H6.32356C5.41598 8.48287 4.68089 9.21796 4.68089 10.1255V25.7309H2.21689C1.30931 25.7309 0.574219 24.9958 0.574219 24.0882V1.9122C0.574219 1.00463 1.30931 0.269531 2.21689 0.269531H7.765C8.42207 0.269531 9.04628 0.528251 9.51033 0.992305L12.1714 3.65343C12.6355 4.11748 13.2597 4.3762 13.9168 4.3762H27.6783C28.5858 4.3762 29.3209 5.11129 29.3209 6.01887Z" fill="#FFC754"/>
</svg>
