<svg width="34" height="20" viewBox="0 0 34 20" fill="none" xmlns="http://www.w3.org/2000/svg">
<path d="M33.1976 15.8512C33.6083 18.5247 30.9307 20.615 28.438 19.5636L25.3251 18.2536C22.7092 17.153 19.9002 16.5863 17.0625 16.5863H23.7399C28.2778 16.5863 31.9533 12.9067 31.9533 8.37298C31.9533 7.96642 31.9246 7.56396 31.8671 7.17383L33.1976 15.8512Z" fill="#FFC754"/>
<path d="M31.8676 7.17337C31.9251 7.5635 31.9538 7.96596 31.9538 8.37252C31.9538 12.9063 28.2783 16.5859 23.7405 16.5859H10.2583C5.72039 16.5859 2.04492 12.9063 2.04492 8.37252C2.04492 7.96596 2.07368 7.5635 2.13117 7.17337L2.29134 6.37668C2.32008 6.26169 2.35293 6.1467 2.38578 6.03172C2.41453 5.93316 2.44329 5.8387 2.47614 5.74836L2.50898 5.6498C2.54594 5.54302 2.58702 5.43625 2.62809 5.33358C2.66505 5.23092 2.71022 5.13236 2.75128 5.0338L2.78414 4.95988C2.83342 4.86131 2.87859 4.76276 2.92787 4.6683L3.05517 4.43012C3.10034 4.33566 3.15374 4.24121 3.21534 4.15086L4.38984 2.63139C4.46787 2.54926 4.5541 2.46713 4.63623 2.3891C4.64034 2.38089 4.64445 2.37678 4.64856 2.37678C4.7348 2.29875 4.82105 2.22073 4.91139 2.1427C5.00174 2.06467 5.09208 1.99075 5.18653 1.91683C5.28099 1.84291 5.37545 1.76899 5.47401 1.69918C5.56846 1.62937 5.66701 1.56366 5.76967 1.49795C5.86823 1.43225 5.9709 1.37065 6.07356 1.30905C6.17623 1.24745 6.2789 1.18585 6.38567 1.13246C6.70189 0.95998 7.03043 0.81214 7.36717 0.684833C7.48216 0.643766 7.59305 0.6027 7.70803 0.56574C7.8107 0.532886 7.90926 0.500033 8.01192 0.471286C8.03656 0.463072 8.06531 0.454859 8.08995 0.450753C8.16387 0.430219 8.24189 0.409686 8.31581 0.39326C8.38973 0.372726 8.45956 0.356299 8.53348 0.343979C8.63615 0.319339 8.7429 0.298806 8.84556 0.282379C8.94002 0.265953 9.03859 0.249526 9.13715 0.237206C9.24803 0.220779 9.35891 0.20846 9.46979 0.19614C9.59299 0.18382 9.71209 0.175606 9.83529 0.171499C9.97491 0.163286 10.1145 0.15918 10.2583 0.15918H23.7405C23.8801 0.15918 24.0238 0.159179 24.1635 0.171499C24.2908 0.175606 24.414 0.18382 24.5372 0.19614C24.6521 0.20846 24.763 0.220779 24.878 0.241313C24.9601 0.249526 25.0464 0.261846 25.1285 0.278273C25.2435 0.294699 25.3544 0.319339 25.4653 0.343979C25.5392 0.356299 25.6172 0.372726 25.6911 0.39326C25.7527 0.409686 25.8184 0.426113 25.88 0.442539C25.9293 0.454859 25.9786 0.467179 26.0279 0.483606C26.1182 0.508246 26.2045 0.536993 26.2907 0.56574C26.4057 0.6027 26.5166 0.639659 26.6275 0.680726C26.6439 0.688939 26.6603 0.693047 26.6767 0.70126C26.7753 0.73822 26.8738 0.779286 26.9683 0.820353C27.8266 1.18585 28.611 1.69507 29.2927 2.32339C29.3666 2.3891 29.4405 2.45891 29.5103 2.52873C29.999 3.00921 30.4302 3.55539 30.7834 4.15086C30.845 4.24121 30.8984 4.33566 30.9436 4.43012C30.9929 4.50814 31.0339 4.58617 31.0709 4.6683C31.1202 4.76276 31.1694 4.86131 31.2146 4.95988C31.2228 4.98452 31.2351 5.00916 31.2475 5.0338C31.2885 5.13236 31.3337 5.23092 31.3707 5.33358C31.4117 5.43625 31.4528 5.54302 31.4897 5.6498C31.5021 5.68265 31.5144 5.7155 31.5226 5.74836C31.5555 5.8387 31.5842 5.93316 31.6129 6.03172C31.6458 6.1467 31.6787 6.26169 31.7074 6.37668C31.769 6.62308 31.8224 6.87358 31.8594 7.1282L31.8676 7.17337Z" fill="#FFA91F"/>
<path d="M10.2586 16.5863H16.9402C14.1024 16.5863 11.2894 17.153 8.67343 18.2536L5.56468 19.5636C3.07193 20.615 0.39439 18.5247 0.80095 15.8512L2.13151 7.17383C2.07401 7.56396 2.04526 7.96642 2.04526 8.37298C2.04526 12.9067 5.72073 16.5863 10.2586 16.5863Z" fill="#934A02"/>
<path d="M7.55283 9.29704C8.28314 9.29704 8.87516 8.705 8.87516 7.97469C8.87516 7.24438 8.28314 6.65234 7.55283 6.65234C6.82252 6.65234 6.23047 7.24438 6.23047 7.97469C6.23047 8.705 6.82252 9.29704 7.55283 9.29704Z" fill="#934A02"/>
<path d="M12.4923 9.29704C13.2226 9.29704 13.8146 8.705 13.8146 7.97469C13.8146 7.24438 13.2226 6.65234 12.4923 6.65234C11.7619 6.65234 11.1699 7.24438 11.1699 7.97469C11.1699 8.705 11.7619 9.29704 12.4923 9.29704Z" fill="#934A02"/>
<path d="M10.0255 11.7658C10.7558 11.7658 11.3478 11.1738 11.3478 10.4434C11.3478 9.71313 10.7558 9.12109 10.0255 9.12109C9.29517 9.12109 8.70312 9.71313 8.70312 10.4434C8.70312 11.1738 9.29517 11.7658 10.0255 11.7658Z" fill="#934A02"/>
<path d="M10.0255 6.82926C10.7558 6.82926 11.3478 6.23723 11.3478 5.50692C11.3478 4.77661 10.7558 4.18457 10.0255 4.18457C9.29517 4.18457 8.70312 4.77661 8.70312 5.50692C8.70312 6.23723 9.29517 6.82926 10.0255 6.82926Z" fill="#934A02"/>
</svg>
