<svg width="40" height="40" viewBox="0 0 40 40" fill="none" xmlns="http://www.w3.org/2000/svg">
<path d="M36.1976 25.8512C36.6083 28.5247 33.9307 30.615 31.438 29.5636L28.3251 28.2536C25.7092 27.153 22.9002 26.5863 20.0625 26.5863H26.7399C31.2778 26.5863 34.9533 22.9067 34.9533 18.373C34.9533 17.9664 34.9246 17.564 34.8671 17.1738L36.1976 25.8512Z" fill="#00BBFF"/>
<path d="M34.8676 17.1734C34.9251 17.5635 34.9538 17.966 34.9538 18.3725C34.9538 22.9063 31.2783 26.5859 26.7405 26.5859H13.2583C8.72039 26.5859 5.04492 22.9063 5.04492 18.3725C5.04492 17.966 5.07368 17.5635 5.13117 17.1734L5.29134 16.3767C5.32008 16.2617 5.35293 16.1467 5.38578 16.0317C5.41453 15.9332 5.44329 15.8387 5.47614 15.7484L5.50898 15.6498C5.54594 15.543 5.58702 15.4362 5.62809 15.3336C5.66505 15.2309 5.71022 15.1324 5.75128 15.0338L5.78414 14.9599C5.83342 14.8613 5.87859 14.7628 5.92787 14.6683L6.05517 14.4301C6.10034 14.3357 6.15374 14.2412 6.21534 14.1509L7.38984 12.6314C7.46787 12.5493 7.5541 12.4671 7.63623 12.3891C7.64034 12.3809 7.64445 12.3768 7.64856 12.3768C7.7348 12.2988 7.82105 12.2207 7.91139 12.1427C8.00174 12.0647 8.09208 11.9908 8.18653 11.9168C8.28099 11.8429 8.37545 11.769 8.47401 11.6992C8.56846 11.6294 8.66701 11.5637 8.76967 11.498C8.86823 11.4322 8.9709 11.3706 9.07356 11.309C9.17623 11.2474 9.2789 11.1858 9.38567 11.1325C9.70189 10.96 10.0304 10.8121 10.3672 10.6848C10.4822 10.6438 10.593 10.6027 10.708 10.5657C10.8107 10.5329 10.9093 10.5 11.0119 10.4713C11.0366 10.4631 11.0653 10.4549 11.09 10.4508C11.1639 10.4302 11.2419 10.4097 11.3158 10.3933C11.3897 10.3727 11.4596 10.3563 11.5335 10.344C11.6361 10.3193 11.7429 10.2988 11.8456 10.2824C11.94 10.266 12.0386 10.2495 12.1371 10.2372C12.248 10.2208 12.3589 10.2085 12.4698 10.1961C12.593 10.1838 12.7121 10.1756 12.8353 10.1715C12.9749 10.1633 13.1145 10.1592 13.2583 10.1592H26.7405C26.8801 10.1592 27.0238 10.1592 27.1635 10.1715C27.2908 10.1756 27.414 10.1838 27.5372 10.1961C27.6521 10.2085 27.763 10.2208 27.878 10.2413C27.9601 10.2495 28.0464 10.2618 28.1285 10.2783C28.2435 10.2947 28.3544 10.3193 28.4653 10.344C28.5392 10.3563 28.6172 10.3727 28.6911 10.3933C28.7527 10.4097 28.8184 10.4261 28.88 10.4425C28.9293 10.4549 28.9786 10.4672 29.0279 10.4836C29.1182 10.5082 29.2045 10.537 29.2907 10.5657C29.4057 10.6027 29.5166 10.6397 29.6275 10.6807C29.6439 10.6889 29.6603 10.693 29.6767 10.7013C29.7753 10.7382 29.8738 10.7793 29.9683 10.8204C30.8266 11.1858 31.611 11.6951 32.2927 12.3234C32.3666 12.3891 32.4405 12.4589 32.5103 12.5287C32.999 13.0092 33.4302 13.5554 33.7834 14.1509C33.845 14.2412 33.8984 14.3357 33.9436 14.4301C33.9929 14.5081 34.0339 14.5862 34.0709 14.6683C34.1202 14.7628 34.1694 14.8613 34.2146 14.9599C34.2228 14.9845 34.2351 15.0092 34.2475 15.0338C34.2885 15.1324 34.3337 15.2309 34.3707 15.3336C34.4117 15.4362 34.4528 15.543 34.4897 15.6498C34.5021 15.6826 34.5144 15.7155 34.5226 15.7484C34.5555 15.8387 34.5842 15.9332 34.6129 16.0317C34.6458 16.1467 34.6787 16.2617 34.7074 16.3767C34.769 16.6231 34.8224 16.8736 34.8594 17.1282L34.8676 17.1734Z" fill="#1F75FF"/>
<path d="M13.2586 26.5863H19.9402C17.1024 26.5863 14.2894 27.153 11.6734 28.2536L8.56468 29.5636C6.07193 30.615 3.39439 28.5247 3.80095 25.8512L5.13151 17.1738C5.07401 17.564 5.04526 17.9664 5.04526 18.373C5.04526 22.9067 8.72073 26.5863 13.2586 26.5863Z" fill="#2B388F"/>
<path d="M10.5528 19.297C11.2831 19.297 11.8752 18.705 11.8752 17.9747C11.8752 17.2444 11.2831 16.6523 10.5528 16.6523C9.82252 16.6523 9.23047 17.2444 9.23047 17.9747C9.23047 18.705 9.82252 19.297 10.5528 19.297Z" fill="#2B388F"/>
<path d="M15.4923 19.297C16.2226 19.297 16.8146 18.705 16.8146 17.9747C16.8146 17.2444 16.2226 16.6523 15.4923 16.6523C14.7619 16.6523 14.1699 17.2444 14.1699 17.9747C14.1699 18.705 14.7619 19.297 15.4923 19.297Z" fill="#2B388F"/>
<path d="M13.0255 21.7658C13.7558 21.7658 14.3478 21.1738 14.3478 20.4434C14.3478 19.7131 13.7558 19.1211 13.0255 19.1211C12.2952 19.1211 11.7031 19.7131 11.7031 20.4434C11.7031 21.1738 12.2952 21.7658 13.0255 21.7658Z" fill="#2B388F"/>
<path d="M13.0255 16.8293C13.7558 16.8293 14.3478 16.2372 14.3478 15.5069C14.3478 14.7766 13.7558 14.1846 13.0255 14.1846C12.2952 14.1846 11.7031 14.7766 11.7031 15.5069C11.7031 16.2372 12.2952 16.8293 13.0255 16.8293Z" fill="#2B388F"/>
</svg>
