<svg width="30" height="30" viewBox="0 0 30 30" fill="none" xmlns="http://www.w3.org/2000/svg">
<path d="M29.9858 15.2673C30.0104 15.7437 29.6367 16.142 29.1645 16.142H26.105C26.105 10.7418 22.8279 6.10943 18.1504 4.1218L19.3413 1.31286C19.5261 0.87755 20.0395 0.688639 20.4666 0.89808C23.1893 2.22043 25.5137 4.24913 27.1892 6.78294C28.8647 9.31265 29.8297 12.2448 29.9858 15.2673Z" fill="#E5E9EC"/>
<path d="M26.105 16.1423H14.2983C13.711 16.1423 13.3127 15.5427 13.5427 15.0007L18.1504 4.12207C22.8279 6.1097 26.105 10.742 26.105 16.1423Z" fill="#BEC7CB"/>
<path d="M14.2986 16.1416H26.1053C26.1053 23.3447 20.2656 29.1885 13.0584 29.1885C5.85121 29.1885 0.015625 23.3447 0.015625 16.1416C0.015625 8.93852 5.85531 3.09473 13.0584 3.09473C14.8653 3.09473 16.586 3.46022 18.1507 4.12139L13.543 15C13.313 15.5421 13.7114 16.1416 14.2986 16.1416Z" fill="#ABB6BA"/>
</svg>
