<svg width="30" height="28" viewBox="0 0 30 28" fill="none" xmlns="http://www.w3.org/2000/svg">
<path d="M29.497 13.1885V27.0074C29.497 27.4592 29.1315 27.8288 28.6757 27.8288H1.32524C0.873506 27.8288 0.503906 27.4592 0.503906 27.0074V13.1885C0.503906 12.7327 0.873506 12.3672 1.32524 12.3672H3.51002V19.2746C3.51002 19.7304 3.87551 20.0959 4.33135 20.0959H8.39696C8.8528 20.0959 9.2183 19.7304 9.2183 19.2746V12.3672H12.1464V19.2746C12.1464 19.7304 12.5118 20.0959 12.9677 20.0959H17.0332C17.4891 20.0959 17.8546 19.7304 17.8546 19.2746V12.3672H20.7826V19.2746C20.7826 19.7304 21.1522 20.0959 21.604 20.0959H25.6696C26.1254 20.0959 26.4909 19.7304 26.4909 19.2746V12.3672H28.6757C29.1315 12.3672 29.497 12.7327 29.497 13.1885Z" fill="#934A02"/>
<path d="M26.4915 12.3672V19.2746C26.4915 19.7304 26.126 20.0959 25.6701 20.0959H21.6045C21.1528 20.0959 20.7832 19.7304 20.7832 19.2746V12.3672H26.4915Z" fill="#FFA91F"/>
<path d="M26.4915 9.06059V12.3665H20.7832V9.06059C20.7832 8.60886 21.1528 8.23926 21.6045 8.23926H25.6701C26.126 8.23926 26.4915 8.60886 26.4915 9.06059Z" fill="#FFC754"/>
<path d="M17.8547 12.3672V19.2746C17.8547 19.7304 17.4892 20.0959 17.0334 20.0959H12.9678C12.512 20.0959 12.1465 19.7304 12.1465 19.2746V12.3672H17.8547Z" fill="#FFA91F"/>
<path d="M17.8547 0.991256V12.3667H12.1465V0.991256C12.1465 0.535415 12.512 0.169922 12.9678 0.169922H17.0334C17.4892 0.169922 17.8547 0.535415 17.8547 0.991256Z" fill="#FFC754"/>
<path d="M9.21805 12.3672V19.2746C9.21805 19.7304 8.85255 20.0959 8.39671 20.0959H4.3311C3.87526 20.0959 3.50977 19.7304 3.50977 19.2746V12.3672H9.21805Z" fill="#FFA91F"/>
<path d="M9.21805 8.13286V12.3668H3.50977V8.13286C3.50977 7.68112 3.87526 7.31152 4.3311 7.31152H8.39671C8.85255 7.31152 9.21805 7.68112 9.21805 8.13286Z" fill="#FFC754"/>
</svg>
