<svg width="30" height="28" viewBox="0 0 30 28" fill="none" xmlns="http://www.w3.org/2000/svg">
<path d="M21.5625 21.4688L20.848 26.6308C20.7905 27.0333 20.4414 27.3372 20.0307 27.3372H16.7413C16.2403 27.3372 15.8584 26.8978 15.9282 26.405L16.6099 21.4688H21.5625Z" fill="#2B388F"/>
<path d="M6.36914 21.4681L7.05495 16.5195H12.0035L11.3177 21.4681H6.36914Z" fill="#1F75FF"/>
<path d="M7.05416 16.5195L6.36836 21.4681H1.52247C1.02556 21.4681 0.63954 21.0287 0.709353 20.5359L1.1693 17.2259C1.22679 16.8193 1.57174 16.5195 1.98241 16.5195H7.05416Z" fill="#00BBFF"/>
<path d="M24.314 1.59627L23.6323 6.5325H18.6797L19.3942 1.37041C19.4517 0.96385 19.7967 0.664062 20.2074 0.664062H23.5009C23.9978 0.664062 24.3797 1.10347 24.314 1.59627Z" fill="#2B388F"/>
<path d="M9.78855 27.3372H6.4991C5.99809 27.3372 5.61617 26.8978 5.68599 26.405L6.36771 21.4688H11.3162L10.6017 26.6308C10.5483 27.0333 10.1992 27.3372 9.78855 27.3372Z" fill="#2B388F"/>
<path d="M8.4383 6.53223L7.7525 11.4808H3.00108C2.50006 11.4808 2.11813 11.0413 2.18794 10.5444L2.64788 7.23857C2.70538 6.83201 3.05036 6.53223 3.46102 6.53223H8.4383Z" fill="#00BBFF"/>
<path d="M7.05469 16.5203L7.75283 11.4814H12.7014L12.0032 16.5203H7.05469Z" fill="#2B388F"/>
<path d="M18.6805 6.53223L17.9947 11.4808H12.7012L13.387 6.53223H18.6805Z" fill="#00BBFF"/>
<path d="M17.2957 16.5195L16.6099 21.4681H11.3164L12.0022 16.5195H17.2957Z" fill="#00BBFF"/>
<path d="M14.0718 1.59627L13.386 6.5325H8.4375L9.15206 1.37041C9.20955 0.96385 9.5545 0.664062 9.96517 0.664062H13.2587C13.7556 0.664062 14.1375 1.10347 14.0718 1.59627Z" fill="#2B388F"/>
<path d="M13.3863 6.53223L12.7005 11.4808H7.75195L8.43776 6.53223H13.3863Z" fill="#1F75FF"/>
<path d="M26.9997 16.5195C27.4966 16.5195 27.8785 16.9589 27.8128 17.4559L27.3488 20.7617C27.2954 21.1683 26.9463 21.4681 26.5357 21.4681H21.5625L22.2483 16.5195H26.9997Z" fill="#00BBFF"/>
<path d="M28.4748 6.53223C28.9758 6.53223 29.3578 6.97164 29.292 7.46444L28.828 10.7744C28.7746 11.1769 28.4255 11.4808 28.0149 11.4808H22.9473L23.6331 6.53223H28.4748Z" fill="#00BBFF"/>
<path d="M18.6799 6.53223H23.6326L22.9468 11.4808H17.9941L18.6799 6.53223Z" fill="#1F75FF"/>
<path d="M22.2478 16.5195L21.562 21.4681H16.6094L17.2952 16.5195H22.2478Z" fill="#1F75FF"/>
<path d="M17.995 11.4814H22.9477L22.2495 16.5203H17.2969L17.995 11.4814Z" fill="#2B388F"/>
</svg>
