<svg width="32" height="24" viewBox="0 0 32 24" fill="none" xmlns="http://www.w3.org/2000/svg">
<path d="M31.6505 21.2478C32.2829 22.3401 31.4944 23.7118 30.2296 23.7118H20.661C21.9259 23.7118 22.7185 22.3401 22.0861 21.2478L18.8418 15.6257L22.201 9.80659C22.8335 8.71421 24.4145 8.71421 25.047 9.80659L31.6505 21.2478Z" fill="#E5E9EC"/>
<path d="M22.0864 21.248C22.7189 22.3404 21.9263 23.712 20.6614 23.712H17.0188C15.7539 23.712 14.9655 22.3404 15.5979 21.248L18.8422 15.626L22.0864 21.248Z" fill="#BEC7CB"/>
<path d="M18.8416 15.6256L15.5973 21.2476C14.9649 22.34 15.7533 23.7116 17.0182 23.7116H1.77425C0.509396 23.7116 -0.283191 22.34 0.349236 21.2476L9.79457 4.88666C10.427 3.79429 12.0081 3.79429 12.6405 4.88666L18.8416 15.6256Z" fill="#ABB6BA"/>
<path d="M19.4783 6.92349C21.3109 6.92349 22.7965 5.43788 22.7965 3.6053C22.7965 1.77271 21.3109 0.287109 19.4783 0.287109C17.6458 0.287109 16.1602 1.77271 16.1602 3.6053C16.1602 5.43788 17.6458 6.92349 19.4783 6.92349Z" fill="#BEC7CB"/>
</svg>
