<svg width="34" height="29" viewBox="0 0 34 29" fill="none" xmlns="http://www.w3.org/2000/svg">
<path d="M28.5223 28.2398L26.2777 25.9895C25.9397 25.6506 25.3937 25.6506 25.0557 25.9895L22.5597 28.4917C21.8837 29.1694 20.783 29.1694 20.107 28.4917L17.611 25.9895C17.273 25.6506 16.727 25.6506 16.389 25.9895L13.893 28.4917C13.217 29.1694 12.1163 29.1694 11.4403 28.4917L8.94433 25.9895C8.60633 25.6506 8.06033 25.6506 7.72233 25.9895L5.47767 28.2398C4.93167 28.7871 4 28.3962 4 27.6229V8H30V27.6229C30 28.3962 29.0683 28.7871 28.5223 28.2398Z" fill="#00BBFF"/>
<path d="M0 5.052V2.948C0 1.32 1.4025 0 3.13225 0H30.8678C32.5975 0 34 1.32 34 2.948V5.052C34 6.68 32.5975 8 30.8678 8H29.75V4.8C29.75 4.36 29.3675 4 28.9 4H5.1C4.6325 4 4.25 4.36 4.25 4.8V8H3.13225C1.4025 8 0 6.68 0 5.052Z" fill="#2B388F"/>
<path d="M30 4.8V8H4V4.8C4 4.36 4.39 4 4.86667 4H29.1333C29.61 4 30 4.36 30 4.8Z" fill="#1F75FF"/>
<path d="M24.2 13H9.8C9.35817 13 9 13.3582 9 13.8V14.2C9 14.6418 9.35817 15 9.8 15H24.2C24.6418 15 25 14.6418 25 14.2V13.8C25 13.3582 24.6418 13 24.2 13Z" fill="#1F75FF"/>
<path d="M24.2 19H9.8C9.35817 19 9 19.3582 9 19.8V20.2C9 20.6418 9.35817 21 9.8 21H24.2C24.6418 21 25 20.6418 25 20.2V19.8C25 19.3582 24.6418 19 24.2 19Z" fill="#1F75FF"/>
</svg>
