<svg width="33" height="25" viewBox="0 0 33 25" fill="none" xmlns="http://www.w3.org/2000/svg">
<path d="M32.5042 15.4404C32.5042 16.2823 31.8225 16.964 30.9806 16.964C30.1387 16.964 29.457 16.2823 29.457 15.4404C29.457 14.8162 29.8307 14.2824 30.3646 14.0483V7.73633H31.5966V14.0483C32.1305 14.2865 32.5042 14.8203 32.5042 15.4404Z" fill="#E5E9EC"/>
<path d="M31.1117 7.00562C31.7523 7.29719 31.7523 8.20887 31.1117 8.50045L26.6518 10.5291C19.4159 6.9974 12.2785 6.85367 5.30535 10.5291L0.849621 8.50045C0.208981 8.20887 0.208981 7.29719 0.849621 7.00562L15.301 0.434949C15.7363 0.237829 16.2291 0.237829 16.6603 0.434949L31.1158 7.00562H31.1117Z" fill="#E5E9EC"/>
<path d="M26.6555 10.5293V21.0342C26.6555 21.3504 26.4707 21.646 26.1832 21.7775C19.2594 25.0176 12.4341 25.149 5.75253 21.7857C5.47328 21.6461 5.30078 21.3586 5.30078 21.0506V10.5293L15.2923 15.0713C15.7276 15.2684 16.2204 15.2684 16.6516 15.0713L26.6473 10.5293H26.6514H26.6555Z" fill="#ABB6BA"/>
<path d="M26.6512 10.5291L16.6555 15.0711C16.2243 15.2682 15.7315 15.2682 15.2962 15.0711L5.30469 10.5291C12.2778 6.85367 19.4152 6.99741 26.6512 10.5291Z" fill="#BEC7CB"/>
</svg>
