<svg width="27" height="29" viewBox="0 0 27 29" fill="none" xmlns="http://www.w3.org/2000/svg">
<path d="M26.4089 25.0648C26.6297 25.0718 26.8077 25.2504 26.8077 25.4713V28.4123C26.8077 28.6332 26.6288 28.8127 26.408 28.8081C22.4546 28.7258 17.2604 27.4274 12.7754 24.4428C13.392 24.0313 14.0009 23.5862 14.606 23.1036C15.0388 22.7594 15.4792 22.3853 15.9235 21.9775C19.8145 24.2332 24.0133 24.9886 26.4089 25.0648Z" fill="#FFC754"/>
<path d="M26.409 3.74121C26.6299 3.74121 26.809 3.9203 26.809 4.14121V7.08218C26.809 7.30309 26.6299 7.48218 26.409 7.48218H23.5039C23.6648 6.30003 23.7528 5.05429 23.7528 3.74121H26.409Z" fill="#934A02"/>
<path d="M19.922 3.74121H23.7518C23.7518 5.05429 23.6637 6.30003 23.5029 7.48218H19.6348C19.8224 6.30752 19.922 5.06177 19.922 3.74121Z" fill="#FFA91F"/>
<path d="M19.6345 7.48145H23.5025C22.5796 14.3349 19.1902 18.9924 15.9234 21.9777C14.8357 21.3455 13.7672 20.5973 12.7715 19.7107C16.0191 16.9498 18.7689 12.9769 19.6345 7.48145Z" fill="#FFC754"/>
<path d="M15.3184 3.74121H19.9218C19.9218 5.06177 19.8222 6.30752 19.6345 7.48218H15.3184V3.74121Z" fill="#934A02"/>
<path d="M15.32 3.74121H11.4902V7.48218H15.32V3.74121Z" fill="#FFA91F"/>
<path d="M14.92 0H11.8902C11.6693 0 11.4902 0.179087 11.4902 0.4V3.74097H15.32V0.4C15.32 0.179086 15.1409 0 14.92 0Z" fill="#FFC754"/>
<path d="M15.9235 21.978C15.4793 22.3857 15.0388 22.7598 14.6061 23.104C14.001 23.5866 13.392 24.0318 12.7754 24.4433C11.6801 23.7138 10.6269 22.8833 9.64648 21.9443C10.7112 21.3083 11.7644 20.5676 12.7716 19.7109C13.7673 20.5975 14.8358 21.3457 15.9235 21.978Z" fill="#FFC754"/>
<path d="M12.772 19.7113C11.7647 20.568 10.7116 21.3087 9.64687 21.9447C7.15631 19.5734 5.12124 16.5085 4.00329 12.638C3.94148 12.424 4.0708 12.2028 4.28657 12.1475L7.21497 11.3961C7.42719 11.3417 7.64334 11.4684 7.7047 11.6787C8.71645 15.1471 10.573 17.7619 12.772 19.7113Z" fill="#FFC754"/>
<path d="M11.4894 3.74121H0.4C0.179086 3.74121 0 3.9203 0 4.14121V7.08218C0 7.3031 0.179086 7.48218 0.4 7.48218H11.4894V3.74121Z" fill="#934A02"/>
<path d="M9.64723 21.9443C10.6277 22.8833 11.6809 23.7138 12.7762 24.4433C8.21451 27.5022 3.46676 28.7092 0.398679 28.8063C0.177876 28.8133 0 28.6337 0 28.4128V25.4718C0 25.2509 0.178821 25.0724 0.399485 25.0619C2.58066 24.9582 6.15118 24.0299 9.64723 21.9443Z" fill="#FFC754"/>
</svg>
