<svg width="20" height="28" viewBox="0 0 20 28" fill="none" xmlns="http://www.w3.org/2000/svg">
<path d="M4.72717 14.9369C4.27544 14.9328 3.91817 14.5673 3.91406 14.1155V11.7542C4.56702 11.1546 5.30621 10.6536 6.11112 10.2676V14.1237C6.11523 14.5796 5.74152 14.9492 5.28568 14.9451L4.72717 14.9369Z" fill="#BEC7CB"/>
<path d="M3.91439 14.1155C3.91849 14.5672 4.27576 14.9327 4.7275 14.9368L5.286 14.945C5.74184 14.9491 6.11555 14.5795 6.11555 14.1237V10.2675C7.29006 9.70489 8.60829 9.38867 10.0004 9.38867C11.3926 9.38867 12.7191 9.70488 13.8977 10.2716C14.0414 10.3414 14.1852 10.4153 14.3248 10.4934C14.4274 10.5468 14.526 10.6043 14.6246 10.6659C15.1543 10.978 15.643 11.3476 16.0948 11.7623C17.8894 13.4091 19.0146 15.7745 19.0146 18.4028C19.0146 23.3801 14.9777 27.4128 10.0004 27.4128C5.02316 27.4128 0.986328 23.3801 0.986328 18.4028C0.986328 15.7704 2.11566 13.4009 3.91439 11.7541V14.1155Z" fill="#ABB6BA"/>
<path d="M16.0904 6.67398V11.7621C15.6428 11.3474 15.154 10.9778 14.6243 10.6657C14.5257 10.6041 14.4272 10.5466 14.3245 10.4932C14.1849 10.4151 14.0411 10.3412 13.8974 10.2714V6.67808C13.8892 5.63909 13.4868 4.65761 12.7476 3.91841C12.0084 3.17921 11.0309 2.78497 9.99606 2.78907C8.95707 2.78907 7.9797 3.19562 7.24461 3.93482C6.50951 4.66581 6.10705 5.64731 6.10705 6.6863V10.2673C5.30625 10.6533 4.56706 11.1544 3.9141 11.7539V6.6863C3.90178 3.33115 6.63269 0.591997 9.99194 0.587891C11.6141 0.587891 13.1459 1.2121 14.3039 2.35786C15.462 3.52416 16.0904 5.05184 16.0904 6.67398Z" fill="#E5E9EC"/>
<path d="M10.8254 18.8873V20.7722C10.8254 21.224 10.4558 21.5936 10.0041 21.5936C9.55234 21.5936 9.18274 21.224 9.18274 20.7722V18.8873C8.43122 18.53 7.94252 17.7127 8.10268 16.7929C8.2382 16.0372 8.83367 15.4171 9.58519 15.257C10.8336 14.9941 11.9342 15.9428 11.9342 17.146C11.9342 17.9181 11.4784 18.5793 10.8254 18.8873Z" fill="#BEC7CB"/>
</svg>
