<svg width="28" height="28" viewBox="0 0 28 28" fill="none" xmlns="http://www.w3.org/2000/svg">
<path d="M27.9775 9.00445V26.2401C27.9775 26.6919 27.612 27.0615 27.1562 27.0615H0.844771C0.393038 27.0615 0.0234375 26.6919 0.0234375 26.2401V9.00445C0.0234375 8.33917 0.774955 7.94903 1.31704 8.33095L2.72973 9.32476V23.5544C2.72973 24.0102 3.09933 24.3757 3.55106 24.3757H24.4499C24.9058 24.3757 25.2712 24.0102 25.2712 23.5544V9.32476L26.6839 8.33095C27.2301 7.94903 27.9775 8.33917 27.9775 9.00445Z" fill="#934A02"/>
<path d="M25.272 9.3252V23.5548C25.272 24.0107 24.9065 24.3761 24.4506 24.3761H3.5518C3.10007 24.3761 2.73047 24.0107 2.73047 23.5548V9.3252L13.531 16.9102C13.8144 17.1115 14.1922 17.1115 14.4755 16.9102L25.272 9.3252Z" fill="#FFA91F"/>
<path d="M25.272 1.76079V9.32526L14.4755 16.9103C14.1922 17.1115 13.8144 17.1115 13.531 16.9103L2.73047 9.32526V1.76079C2.73047 1.30905 3.10007 0.939453 3.5518 0.939453H24.4506C24.9065 0.939453 25.272 1.30905 25.272 1.76079Z" fill="#FFC754"/>
</svg>
