<svg width="22" height="30" viewBox="0 0 22 30" fill="none" xmlns="http://www.w3.org/2000/svg">
<path d="M11.0004 29.112C16.8837 29.112 21.6531 24.3427 21.6531 18.4593C21.6531 12.576 16.8837 7.80664 11.0004 7.80664C5.11706 7.80664 0.347656 12.576 0.347656 18.4593C0.347656 24.3427 5.11706 29.112 11.0004 29.112Z" fill="#E5E9EC"/>
<path fill-rule="evenodd" clip-rule="evenodd" d="M8.55539 18.4592H8.5561H13.4464H13.4472L17.3089 9.87506C16.1182 8.99842 14.7384 8.36361 13.242 8.04305L11.0006 13.0253L8.75805 8.04297C7.26183 8.36344 5.88214 8.99811 4.69141 9.87457L8.55539 18.4592Z" fill="#BEC7CB"/>
<path fill-rule="evenodd" clip-rule="evenodd" d="M4.69195 9.87454L0.646484 0.886719H5.53754L8.7586 8.04294C7.26237 8.3634 5.88268 8.99808 4.69195 9.87454ZM13.2426 8.04302L16.462 0.886719H21.3531L17.3095 9.87502C16.1187 8.99839 14.7389 8.36357 13.2426 8.04302Z" fill="#ABB6BA"/>
</svg>
