<svg width="32" height="27" viewBox="0 0 32 27" fill="none" xmlns="http://www.w3.org/2000/svg">
<path d="M26.8857 13.1211C26.9002 8.7633 24.7534 4.90033 21.4516 2.5264C26.9153 3.02239 31.1825 7.58925 31.1639 13.1378C31.1454 18.6864 26.8437 23.224 21.3728 23.6732C24.6985 21.3292 26.8712 17.479 26.8857 13.1211Z" fill="#FFC754"/>
<path d="M20.437 23.7099C14.5307 23.6868 9.76141 18.9175 9.78098 13.0538C9.80055 7.19013 14.6016 2.45813 20.5078 2.48118C20.8252 2.48241 21.1425 2.49594 21.4516 2.52579C24.7533 4.89972 26.9002 8.76269 26.8857 13.1205C26.8711 17.4784 24.6985 21.3286 21.3727 23.6726C21.0635 23.7 20.7543 23.7111 20.437 23.7099Z" fill="#FFA91F"/>
<path d="M9.78067 13.0539C9.7611 18.9176 14.5304 23.6869 20.4367 23.71C20.754 23.7112 21.0632 23.7001 21.3724 23.6727C19.22 25.1906 16.5915 26.0806 13.7517 26.0695C6.5183 26.0412 0.676801 20.1956 0.700755 13.0185C0.724708 5.84131 6.60507 0.0414267 13.8385 0.0696548C16.6824 0.080753 19.309 0.99125 21.4512 2.5259C21.1422 2.49605 20.8249 2.48252 20.5075 2.48128C14.6013 2.45824 9.80024 7.19024 9.78067 13.0539Z" fill="#934A02"/>
</svg>
