<svg width="457" height="457" viewBox="0 0 457 457" fill="none" xmlns="http://www.w3.org/2000/svg">
<path d="M133.128 261.944C134.222 248.089 123.833 231.866 123.833 231.866C123.78 231.893 54.8284 261.351 52.8681 223.531L52.8347 336.584C92.7214 315.353 130.148 299.724 133.135 261.944H133.128Z" fill="#0B1F5B"/>
<path d="M447.904 164.158H246.353C230.764 212.513 217.135 269.716 288.413 303.635C367.46 341.248 371.407 385.282 371.587 388.136H447.91C452.704 388.136 456.632 384.215 456.632 379.414V172.873C456.632 168.079 452.711 164.151 447.91 164.151L447.904 164.158Z" fill="#0B1F5B"/>
<path d="M88.7797 447.553C88.7797 455.141 97.8479 459.108 103.429 453.961L174.714 388.283H88.7797V447.553Z" fill="#00BDFF"/>
<path d="M125.301 4.16988C125.301 4.16988 125.362 4.1494 125.396 4.14258C125.362 4.1494 125.335 4.15623 125.301 4.16988Z" fill="#2B388F"/>
<path d="M122.186 5.09965C122.353 5.04631 122.519 4.99296 122.693 4.94629C122.526 4.99963 122.359 5.04631 122.186 5.09965Z" fill="#2B388F"/>
<path d="M116.746 6.9788C116.799 6.95885 116.859 6.9389 116.919 6.91895C116.865 6.9389 116.805 6.95885 116.746 6.9788Z" fill="#2B388F"/>
<path d="M113.857 8.13703C114.031 8.06368 114.211 7.99034 114.384 7.91699C114.204 7.99034 114.031 8.06368 113.857 8.13703Z" fill="#2B388F"/>
<path d="M151.098 0.342437C151.298 0.342437 151.498 0.329102 151.698 0.329102C151.498 0.329102 151.298 0.335769 151.098 0.342437Z" fill="#2B388F"/>
<path d="M119.265 6.06611C119.418 6.01277 119.579 5.95942 119.732 5.89941C119.572 5.95276 119.418 6.0061 119.265 6.06611Z" fill="#2B388F"/>
<path d="M140.782 1.12332C140.962 1.10332 141.149 1.08331 141.335 1.05664C141.155 1.07664 140.969 1.09665 140.782 1.12332Z" fill="#2B388F"/>
<path d="M147.471 0.516737C147.665 0.503402 147.851 0.490066 148.045 0.483398C147.851 0.496734 147.665 0.51007 147.471 0.516737Z" fill="#2B388F"/>
<path d="M111.132 9.32615C111.299 9.24613 111.472 9.17279 111.639 9.09277C111.466 9.16612 111.299 9.24613 111.132 9.32615Z" fill="#2B388F"/>
<path d="M134.496 2.06823C134.496 2.06823 134.536 2.06823 134.549 2.06152C134.529 2.06152 134.509 2.06152 134.496 2.06823Z" fill="#2B388F"/>
<path d="M131.155 2.72875C131.328 2.68875 131.502 2.65541 131.668 2.62207C131.495 2.65541 131.321 2.69542 131.155 2.72875Z" fill="#2B388F"/>
<path d="M92.4343 20.5392C92.721 20.3191 93.0144 20.0991 93.3011 19.8857C93.0078 20.1058 92.721 20.3191 92.4343 20.5392Z" fill="#2B388F"/>
<path d="M108.816 10.4119C108.917 10.3584 109.024 10.3115 109.131 10.2646C109.03 10.3115 108.923 10.3651 108.816 10.4119Z" fill="#2B388F"/>
<path d="M90.174 22.3165C90.5407 22.0231 90.9074 21.7231 91.2808 21.4297C90.9074 21.7231 90.5407 22.0165 90.174 22.3165Z" fill="#2B388F"/>
<path d="M52.8154 221.853C52.8154 222.427 52.8354 222.98 52.8621 223.527L52.8754 172.892C52.8554 185.394 52.8154 208.698 52.8154 221.853Z" fill="#2B388F"/>
<path d="M84.2808 27.4827C85.3143 26.5025 86.3811 25.5424 87.4746 24.5889C86.3811 25.5424 85.3143 26.5092 84.2808 27.4827Z" fill="#2B388F"/>
<path d="M87.8865 24.2324C88.4332 23.7657 88.98 23.2989 89.5401 22.8389C88.98 23.2989 88.4266 23.7657 87.8865 24.2324Z" fill="#2B388F"/>
<path d="M99.0027 15.9339C99.2427 15.7805 99.4828 15.6272 99.7228 15.4805C99.4828 15.6338 99.2427 15.7805 99.0027 15.9339Z" fill="#2B388F"/>
<path d="M246.354 164.156C251.575 147.96 257.016 132.758 259.563 119.749C257.016 132.745 251.575 147.954 246.347 164.156H246.354Z" fill="#2B388F"/>
<path d="M260.849 110.819C260.822 111.146 260.789 111.473 260.762 111.806C260.796 111.479 260.822 111.146 260.849 110.819Z" fill="#2B388F"/>
<path d="M61.5352 164.157H208.44C215.634 151.275 221.682 138.74 215.734 128.638C213.507 124.857 210.514 122.797 209.187 122.07C189.997 111.582 154.197 146.621 135.614 136.879C116.838 127.038 148.737 65.4808 120.485 63.4071C108.463 63.4071 83.7456 68.7947 66.7627 48.6779C71.2902 41.6968 77.0245 34.3622 84.1857 27.5811C61.7752 48.7913 53.3405 75.3491 52.1736 79.9099L25.5758 164.411H52.9071C52.9071 164.411 52.9071 167.725 52.8937 172.879C52.8937 168.085 56.7144 164.164 61.5485 164.164L61.5352 164.157ZM77.2112 115.109C74.6241 121.31 77.5512 128.438 83.7523 131.025C89.9533 133.612 97.0812 130.685 99.6683 124.484C97.0812 130.685 89.9533 133.619 83.7523 131.025C77.5512 128.438 74.6174 121.31 77.2112 115.109Z" fill="#1F75FF"/>
<path d="M88.8543 347.815C88.8543 343.021 92.7749 339.094 97.5757 339.094H97.5091C92.7149 339.094 88.7876 343.014 88.7876 347.815V388.135H88.8543V347.815Z" fill="#2B388F"/>
<path d="M61.5359 388.133C56.6951 388.133 52.8145 384.213 52.8145 379.412L52.8278 336.578C47.4069 339.465 41.9326 342.452 36.4984 345.62C3.90622 364.603 0.952393 388.28 0.952393 388.28H88.7805V388.133H61.5359Z" fill="#0B1F5B"/>
<path d="M260.097 116.792C260.03 117.192 259.963 117.592 259.89 117.992C259.963 117.592 260.03 117.185 260.097 116.792Z" fill="#2B388F"/>
<path d="M174.875 388.134L174.715 388.281H371.595C371.595 388.281 371.595 388.227 371.588 388.134H174.882H174.875Z" fill="#2B388F"/>
<path d="M261.009 108.095C260.996 108.388 260.989 108.688 260.969 108.988C260.983 108.688 260.996 108.395 261.009 108.095Z" fill="#2B388F"/>
<path d="M288.415 303.632C217.136 269.713 230.765 212.51 246.355 164.155C239.88 184.232 233.726 205.829 233.826 226.639C206.121 222.205 198.027 213.184 195.406 206.336C190.632 193.854 200.274 178.784 208.442 164.155H61.5369C56.6961 164.155 52.8821 168.076 52.8821 172.87V172.89L52.8688 223.525C54.8291 261.338 123.781 231.88 123.834 231.86C123.834 231.86 134.229 248.083 133.129 261.938C130.148 299.718 92.7155 315.347 52.8288 336.578L52.8154 379.411C52.8154 384.206 56.6961 388.133 61.5369 388.133H88.7815V347.813C88.7815 343.019 92.7021 339.091 97.5029 339.091H205.901C213.836 339.091 217.63 348.853 211.789 354.221L174.956 388.133H371.596C371.422 385.279 367.475 341.245 288.422 303.632H288.415Z" fill="#2B388F"/>
<path d="M88.8541 347.815V388.135H174.882L211.715 354.223C217.556 348.862 213.762 339.094 205.827 339.094H97.5689C92.7747 339.094 88.8474 343.014 88.8474 347.815H88.8541Z" fill="#1F75FF"/>
<path d="M211.714 354.223L174.881 388.135H174.948L211.781 354.223C217.622 348.862 213.828 339.094 205.893 339.094H205.827C213.761 339.094 217.555 348.855 211.714 354.223Z" fill="#2B388F"/>
<path d="M88.853 388.134H88.7797V388.281H174.714L174.874 388.134H88.853Z" fill="#2B388F"/>
<path d="M99.7151 15.4808C100.269 15.134 100.822 14.7873 101.382 14.4473C100.822 14.7873 100.262 15.1274 99.7151 15.4808Z" fill="#30C9E2"/>
<path d="M106.737 11.4588C107.423 11.1054 108.117 10.752 108.817 10.4053C108.117 10.7453 107.423 11.0987 106.737 11.4588Z" fill="#30C9E2"/>
<path d="M259.576 119.666C259.576 119.666 259.562 119.727 259.555 119.762C259.555 119.727 259.569 119.7 259.576 119.666Z" fill="#30C9E2"/>
<path d="M84.1796 27.579C84.1796 27.579 84.2478 27.5175 84.2819 27.4834C84.2478 27.5175 84.2137 27.5448 84.1796 27.579Z" fill="#30C9E2"/>
<path d="M261.043 106.389C261.043 106.389 261.043 106.409 261.043 106.422C261.043 106.409 261.043 106.402 261.043 106.389C261.043 47.7922 213.535 0.28418 154.938 0.28418C213.542 0.28418 261.043 47.7922 261.043 106.389Z" fill="#30C9E2"/>
<path d="M89.5391 22.8336C89.7524 22.6602 89.9591 22.4868 90.1725 22.3135C89.9591 22.4868 89.7458 22.6602 89.5391 22.8336Z" fill="#30C9E2"/>
<path d="M95.4613 18.3159C95.8414 18.0492 96.2214 17.7825 96.6015 17.5225C96.2148 17.7825 95.8347 18.0492 95.4613 18.3159Z" fill="#30C9E2"/>
<path d="M93.3024 19.8771C93.6691 19.6037 94.0358 19.337 94.4025 19.0703C94.0358 19.337 93.6691 19.6104 93.3024 19.8771Z" fill="#30C9E2"/>
<path d="M131.669 2.62276C132.602 2.4294 133.542 2.23603 134.489 2.06934C133.536 2.2427 132.596 2.4294 131.669 2.62276Z" fill="#30C9E2"/>
<path d="M125.393 4.15065C126.26 3.91061 127.133 3.6839 128.02 3.46387C127.14 3.6839 126.26 3.91061 125.393 4.15065Z" fill="#30C9E2"/>
<path d="M260.885 110.35C260.871 110.503 260.858 110.663 260.851 110.816C260.865 110.656 260.878 110.503 260.885 110.35Z" fill="#30C9E2"/>
<path d="M259.89 117.989C259.87 118.083 259.857 118.177 259.837 118.277C259.857 118.183 259.87 118.09 259.89 117.989Z" fill="#30C9E2"/>
<path d="M144.396 0.744283C145.409 0.657602 146.436 0.584256 147.47 0.517578C146.436 0.584256 145.409 0.650934 144.396 0.744283Z" fill="#30C9E2"/>
<path d="M141.33 1.05655C142.33 0.943198 143.337 0.829845 144.364 0.743164C143.344 0.836513 142.33 0.943198 141.33 1.05655Z" fill="#30C9E2"/>
<path d="M261.023 107.671C261.023 107.812 261.016 107.952 261.01 108.099C261.01 107.959 261.023 107.812 261.023 107.671Z" fill="#30C9E2"/>
<path d="M151.691 0.330854C152.765 0.304183 153.838 0.28418 154.932 0.28418C153.838 0.28418 152.758 0.304183 151.691 0.330854Z" fill="#30C9E2"/>
<path d="M109.13 10.2597C109.79 9.93961 110.457 9.62622 111.13 9.32617C110.457 9.63289 109.79 9.94628 109.13 10.2597Z" fill="#30C9E2"/>
<path d="M114.384 7.9177C115.165 7.59764 115.951 7.28426 116.745 6.97754C115.945 7.27759 115.165 7.59764 114.384 7.9177Z" fill="#30C9E2"/>
<path d="M116.919 6.91891C117.692 6.62552 118.472 6.34548 119.266 6.06543C118.472 6.33881 117.692 6.62552 116.919 6.91891Z" fill="#30C9E2"/>
<path d="M111.643 9.08907C112.376 8.76235 113.11 8.44229 113.857 8.12891C113.11 8.44229 112.37 8.76235 111.643 9.08907Z" fill="#30C9E2"/>
<path d="M260.369 115.008C260.355 115.088 260.342 115.169 260.335 115.242C260.349 115.162 260.362 115.081 260.369 115.008Z" fill="#30C9E2"/>
<path d="M260.757 111.804C260.743 111.931 260.73 112.051 260.723 112.179C260.737 112.051 260.75 111.931 260.757 111.804Z" fill="#30C9E2"/>
<path d="M66.7499 48.6723C83.7327 68.789 108.457 63.4015 120.472 63.4015C148.73 65.4751 116.825 127.025 135.601 136.874C154.185 146.615 189.984 111.576 209.174 122.065C210.507 122.791 213.501 124.852 215.722 128.632C221.669 138.741 215.622 151.27 208.427 164.152H246.333C251.561 147.949 257.002 132.746 259.549 119.744C259.549 119.711 259.562 119.684 259.569 119.651C259.662 119.184 259.749 118.724 259.829 118.264C259.849 118.171 259.862 118.077 259.882 117.977C259.956 117.577 260.022 117.171 260.089 116.777C260.109 116.67 260.122 116.564 260.142 116.457C260.209 116.044 260.269 115.637 260.329 115.23C260.342 115.15 260.356 115.07 260.362 114.997C260.502 114.037 260.616 113.09 260.716 112.156C260.729 112.03 260.742 111.91 260.749 111.783C260.783 111.456 260.809 111.123 260.836 110.796C260.849 110.643 260.863 110.483 260.869 110.329C260.889 110.036 260.909 109.743 260.929 109.449C260.936 109.289 260.949 109.129 260.956 108.969C260.969 108.669 260.983 108.376 260.996 108.076C260.996 107.936 261.009 107.789 261.009 107.649C261.023 107.229 261.029 106.815 261.029 106.402C261.029 106.389 261.029 106.382 261.029 106.369C261.043 47.7922 213.535 0.28418 154.938 0.28418C153.845 0.28418 152.764 0.304183 151.697 0.330854C151.497 0.330854 151.297 0.337522 151.097 0.34419C150.071 0.377529 149.05 0.417535 148.044 0.477546C147.85 0.490881 147.663 0.504217 147.47 0.510884C146.437 0.577562 145.41 0.64424 144.396 0.737589C144.383 0.737589 144.376 0.737589 144.363 0.737589C143.343 0.830938 142.329 0.937623 141.329 1.05098C141.149 1.07098 140.962 1.09098 140.776 1.11765C139.809 1.23767 138.855 1.36436 137.909 1.50438C137.735 1.53106 137.568 1.55773 137.395 1.5844C136.435 1.73109 135.481 1.88445 134.541 2.05781C134.521 2.05781 134.501 2.05781 134.488 2.06448C133.534 2.23784 132.594 2.42454 131.667 2.61791C131.494 2.65124 131.321 2.69125 131.154 2.72459C130.254 2.91796 129.367 3.12466 128.487 3.33803C128.327 3.37803 128.174 3.41804 128.014 3.45805C127.133 3.67808 126.253 3.90479 125.386 4.14483C125.353 4.1515 125.326 4.15816 125.293 4.1715C124.413 4.41821 123.546 4.67158 122.686 4.9383C122.519 4.99164 122.353 5.03831 122.179 5.09165C121.352 5.3517 120.532 5.61841 119.725 5.89846C119.565 5.9518 119.412 6.00514 119.259 6.06515C118.465 6.33853 117.685 6.62525 116.912 6.91863C116.858 6.93863 116.798 6.95864 116.738 6.97864C115.938 7.27869 115.158 7.59874 114.378 7.9188C114.198 7.99214 114.024 8.06549 113.851 8.13883C113.104 8.45222 112.364 8.77227 111.637 9.099C111.464 9.17234 111.297 9.25235 111.131 9.33237C110.457 9.63909 109.79 9.95247 109.13 10.2659C109.03 10.3125 108.924 10.3659 108.817 10.4125C108.117 10.7526 107.423 11.106 106.737 11.4661C106.537 11.5727 106.337 11.6728 106.136 11.7794C105.483 12.1262 104.83 12.4729 104.19 12.833C103.989 12.9463 103.789 13.0597 103.589 13.173C103.049 13.4797 102.516 13.7865 101.989 14.0998C101.789 14.2199 101.589 14.3332 101.389 14.4532C100.829 14.7933 100.269 15.1333 99.7221 15.4867C99.482 15.6401 99.242 15.7868 99.002 15.9401C98.4485 16.2935 97.8951 16.6536 97.355 17.0203C97.1016 17.187 96.8549 17.3604 96.6082 17.5271C96.2215 17.7871 95.8414 18.0538 95.468 18.3205C95.1146 18.5739 94.7546 18.8273 94.4079 19.0807C94.0411 19.3474 93.6744 19.6208 93.3077 19.8875C93.0143 20.1075 92.7276 20.3209 92.4409 20.5409C92.0541 20.8343 91.6674 21.1344 91.2873 21.4344C90.9139 21.7278 90.5472 22.0212 90.1805 22.3212C89.9671 22.4946 89.7537 22.6679 89.547 22.8413C88.9869 23.3014 88.4335 23.7681 87.8934 24.2349C87.7534 24.3549 87.6201 24.4682 87.48 24.5883C86.3865 25.5418 85.3197 26.5086 84.2862 27.4821C84.2528 27.5154 84.2195 27.5421 84.1861 27.5754C77.0249 34.3566 71.284 41.6911 66.7632 48.6723H66.7499Z" fill="#00BDFF"/>
<path d="M195.405 206.336C198.026 213.184 206.121 222.205 233.825 226.639C233.725 205.829 239.873 184.232 246.354 164.155H208.448C200.28 178.784 190.638 193.854 195.412 206.336H195.405Z" fill="#1F75FF"/>
</svg>
