<svg width="34" height="26" viewBox="0 0 34 26" fill="none" xmlns="http://www.w3.org/2000/svg">
<path d="M27.266 0.207031C30.8265 0.207031 33.7094 3.08991 33.7094 6.6504C33.7094 9.59488 31.7341 12.0794 29.036 12.8474V6.07957C29.036 5.62783 28.6664 5.25823 28.2147 5.25823H20.9746C21.6111 2.36714 24.186 0.207031 27.266 0.207031Z" fill="#00BBFF"/>
<path d="M29.0358 12.8479V24.9708C29.0358 25.4225 28.6662 25.7921 28.2144 25.7921H1.1104C0.658663 25.7921 0.289062 25.4225 0.289062 24.9708V6.08012C0.289062 5.62839 0.658663 5.25879 1.1104 5.25879H20.9744C20.8758 5.70642 20.8224 6.17458 20.8224 6.65095C20.8224 10.2114 23.7094 13.0943 27.2658 13.0943C27.8777 13.0943 28.4731 13.0081 29.0358 12.8479Z" fill="#2B388F"/>
<path d="M29.0356 6.08012V12.8479C28.473 13.0081 27.8775 13.0943 27.2656 13.0943C23.7092 13.0943 20.8223 10.2114 20.8223 6.65095C20.8223 6.17458 20.8757 5.70642 20.9742 5.25879H28.2143C28.666 5.25879 29.0356 5.62839 29.0356 6.08012Z" fill="#1F75FF"/>
<path d="M15.8952 11.8291H5.21782C4.76421 11.8291 4.39648 12.1968 4.39648 12.6504V14.2931C4.39648 14.7467 4.76421 15.1144 5.21782 15.1144H15.8952C16.3488 15.1144 16.7165 14.7467 16.7165 14.2931V12.6504C16.7165 12.1968 16.3488 11.8291 15.8952 11.8291Z" fill="#00BBFF"/>
<path d="M24.1085 17.5781H5.21782C4.76421 17.5781 4.39648 17.9458 4.39648 18.3995V20.0421C4.39648 20.4957 4.76421 20.8635 5.21782 20.8635H24.1085C24.5621 20.8635 24.9298 20.4957 24.9298 20.0421V18.3995C24.9298 17.9458 24.5621 17.5781 24.1085 17.5781Z" fill="#00BBFF"/>
</svg>
