<svg width="26" height="26" viewBox="0 0 26 26" fill="none" xmlns="http://www.w3.org/2000/svg">
<path d="M0.224609 3.23344C0.224609 2.7776 0.59421 2.41211 1.04594 2.41211H8.19975V7.71382C8.19975 8.05878 8.5981 8.2518 8.86503 8.03825L9.54264 7.50028C9.69459 7.38119 9.90403 7.38119 10.056 7.50028L11.1443 8.36268C11.2921 8.48177 11.5056 8.48177 11.6535 8.36268L12.7418 7.50028C12.8896 7.38119 13.1031 7.38119 13.251 7.50028L14.3433 8.36268C14.4912 8.48177 14.7006 8.48177 14.8525 8.36268L15.9408 7.50028C16.0928 7.38119 16.3022 7.38119 16.45 7.50028L17.1318 8.03825C17.4028 8.2518 17.8011 8.05878 17.8011 7.71793V2.41211H24.955C25.4067 2.41211 25.7763 2.7776 25.7763 3.23344V25.1343C25.7763 25.5861 25.4067 25.9557 24.955 25.9557H1.04594C0.59421 25.9557 0.224609 25.5861 0.224609 25.1343V3.23344Z" fill="#2B388F"/>
<path d="M17.8006 2.41211V7.71793C17.8006 8.05878 17.4023 8.2518 17.1312 8.03825L16.4495 7.50028C16.3017 7.38119 16.0922 7.38119 15.9403 7.50028L14.852 8.36268C14.7001 8.48177 14.4906 8.48177 14.3428 8.36268L13.2504 7.50028C13.1026 7.38119 12.8891 7.38119 12.7412 7.50028L11.6529 8.36268C11.5051 8.48177 11.2916 8.48177 11.1437 8.36268L10.0554 7.50028C9.90349 7.38119 9.69405 7.38119 9.54211 7.50028L8.8645 8.03825C8.59756 8.2518 8.19922 8.05878 8.19922 7.71382V2.41211H17.8006Z" fill="#1F75FF"/>
<path d="M17.8006 0.864303V2.41251H8.19922V0.864303C8.19922 0.408462 8.56882 0.0429688 9.02055 0.0429688H16.9793C17.431 0.0429688 17.8006 0.408462 17.8006 0.864303Z" fill="#00BBFF"/>
<path d="M17.2061 21.4883H8.79155C8.56475 21.4883 8.38086 21.6721 8.38086 21.8989V22.3096C8.38086 22.5364 8.56475 22.7203 8.79155 22.7203H17.2061C17.4329 22.7203 17.6168 22.5364 17.6168 22.3096V21.8989C17.6168 21.6721 17.4329 21.4883 17.2061 21.4883Z" fill="#00BBFF"/>
<path d="M12.3965 14.3631V19.6567C12.3965 19.8825 12.5813 20.0673 12.8072 20.0673H13.2178C13.4437 20.0673 13.6285 19.8825 13.6285 19.6567V14.3631L15.1357 15.8703C15.2958 16.0305 15.5545 16.0305 15.7147 15.8703L16.0063 15.5787C16.1664 15.4186 16.1664 15.1599 16.0063 14.9997L13.5915 12.585C13.2712 12.2646 12.7497 12.2646 12.4294 12.585L10.0147 14.9997C9.85449 15.1599 9.85449 15.4186 10.0147 15.5787L10.3062 15.8703C10.4664 16.0305 10.7251 16.0305 10.8853 15.8703L12.3924 14.3631H12.3965Z" fill="#00BBFF"/>
</svg>
