<svg width="28" height="30" viewBox="0 0 28 30" fill="none" xmlns="http://www.w3.org/2000/svg">
<path d="M27.6182 6.03156C27.9386 6.35188 27.9386 6.86933 27.6182 7.19375L17.5692 17.2428C17.0846 17.1196 16.5754 17.0539 16.0539 17.0539C12.6535 17.0539 9.89385 19.8136 9.89385 23.2139C9.89385 23.7354 9.95957 24.2446 10.0828 24.7292L6.19374 28.6182C5.86931 28.9386 5.35189 28.9386 5.03157 28.6182L0.382818 23.9695C0.0624981 23.6492 0.0624981 23.1317 0.382818 22.8073L10.4318 12.7583C10.9164 12.8815 11.4256 12.9472 11.9472 12.9472C15.3475 12.9472 18.1072 10.1875 18.1072 6.7872C18.1072 6.26565 18.0415 5.75642 17.9183 5.27183L21.8073 1.38282C22.1317 1.0625 22.6492 1.0625 22.9695 1.38282L27.6182 6.03156Z" fill="#2B388F"/>
<path d="M17.5685 17.2422C20.2378 17.9157 22.2131 20.3345 22.2131 23.2133C22.2131 26.6136 19.4534 29.3733 16.0531 29.3733C13.1743 29.3733 10.7555 27.398 10.082 24.7286L17.5685 17.2422Z" fill="#00BBFF"/>
<path d="M17.9181 5.27148C18.0413 5.75607 18.107 6.2653 18.107 6.78685C18.107 10.1872 15.3473 12.9469 11.947 12.9469C11.4255 12.9469 10.9162 12.8811 10.4316 12.7579L17.9181 5.27148Z" fill="#1F75FF"/>
<path d="M17.9182 5.2716L10.4318 12.7581C7.76242 12.0846 5.78711 9.66573 5.78711 6.78696C5.78711 3.38663 8.54679 0.626953 11.9471 0.626953C14.8259 0.626953 17.2447 2.60226 17.9182 5.2716Z" fill="#00BBFF"/>
<path d="M17.5699 17.2426L10.0834 24.7291C9.96025 24.2445 9.89453 23.7353 9.89453 23.2137C9.89453 19.8134 12.6542 17.0537 16.0545 17.0537C16.5761 17.0537 17.0853 17.1194 17.5699 17.2426Z" fill="#1F75FF"/>
</svg>
