<svg width="30" height="30" viewBox="0 0 30 30" fill="none" xmlns="http://www.w3.org/2000/svg">
<path d="M29.0815 5.32817V19.143C29.0815 19.5989 28.716 19.9643 28.2602 19.9643H24.1289V16.2396C24.1289 15.7879 23.7593 15.4183 23.3075 15.4183H6.69197C6.24024 15.4183 5.87064 15.7879 5.87064 16.2396V19.9643H1.7393C1.28757 19.9643 0.917969 19.5989 0.917969 19.143V5.32817C0.917969 4.87233 1.28757 4.50684 1.7393 4.50684H5.87064V7.22545C5.87064 7.67718 6.24024 8.04678 6.69197 8.04678H23.3075C23.7593 8.04678 24.1289 7.67718 24.1289 7.22545V4.50684H28.2602C28.716 4.50684 29.0815 4.87233 29.0815 5.32817Z" fill="#934A02"/>
<path d="M24.1293 19.9648V28.2151C24.1293 28.6669 23.7597 29.0365 23.308 29.0365H6.69243C6.24069 29.0365 5.87109 28.6669 5.87109 28.2151V19.9648H24.1293Z" fill="#FFC754"/>
<path d="M24.1293 16.2393V19.9641H5.87109V16.2393C5.87109 15.7876 6.24069 15.418 6.69243 15.418H23.308C23.7597 15.418 24.1293 15.7876 24.1293 16.2393Z" fill="#FFA91F"/>
<path d="M24.1293 4.50684V7.22545C24.1293 7.67718 23.7597 8.04678 23.308 8.04678H6.69243C6.24069 8.04678 5.87109 7.67718 5.87109 7.22545V4.50684H24.1293Z" fill="#FFA91F"/>
<path d="M24.1293 1.78422V4.50695H5.87109V1.78422C5.87109 1.33249 6.24069 0.962891 6.69243 0.962891H23.308C23.7597 0.962891 24.1293 1.33249 24.1293 1.78422Z" fill="#FFC754"/>
</svg>
