<svg width="32" height="28" viewBox="0 0 32 28" fill="none" xmlns="http://www.w3.org/2000/svg">
<path d="M31.3563 8.5977V25.1024C31.3563 26.4617 30.2516 27.5664 28.8923 27.5664H3.10658C1.74317 27.5664 0.642578 26.4617 0.642578 25.1024V8.5977C0.642578 8.14597 1.00807 7.77637 1.46391 7.77637H8.30148V10.6141C8.30148 11.0699 8.66697 11.4354 9.12281 11.4354H10.3548C10.8065 11.4354 11.1761 11.0699 11.1761 10.6141V7.77637H20.8228V10.6141C20.8228 11.0699 21.1882 11.4354 21.6441 11.4354H22.8761C23.3278 11.4354 23.6974 11.0699 23.6974 10.6141V7.77637H30.535C30.9867 7.77637 31.3563 8.14597 31.3563 8.5977Z" fill="#ABB6BA"/>
<path d="M23.6969 7.77637V10.6141C23.6969 11.0699 23.3273 11.4354 22.8756 11.4354H21.6436C21.1878 11.4354 20.8223 11.0699 20.8223 10.6141V7.77637H23.6969Z" fill="#BEC7CB"/>
<path d="M23.6967 5.62852V7.77632H20.8221V5.62852C20.8221 4.34723 19.7831 3.30826 18.4977 3.30826H13.4957C12.2144 3.30826 11.1754 4.34723 11.1754 5.62852V7.77632H8.30078V5.62852C8.30078 2.75795 10.6252 0.433594 13.4957 0.433594H18.4977C21.3682 0.433594 23.6967 2.75795 23.6967 5.62852Z" fill="#E5E9EC"/>
<path d="M11.1754 7.77637V10.6141C11.1754 11.0699 10.8058 11.4354 10.3541 11.4354H9.12212C8.66627 11.4354 8.30078 11.0699 8.30078 10.6141V7.77637H11.1754Z" fill="#BEC7CB"/>
<path d="M17.6523 20.7825V17.9571C17.6523 17.5035 17.2846 17.1357 16.831 17.1357H15.1637C14.7101 17.1357 14.3424 17.5035 14.3424 17.9571V20.7825C14.3424 21.2361 14.7101 21.6038 15.1637 21.6038H16.831C17.2846 21.6038 17.6523 21.2361 17.6523 20.7825Z" fill="#E5E9EC"/>
</svg>
