<svg width="30" height="26" viewBox="0 0 30 26" fill="none" xmlns="http://www.w3.org/2000/svg">
<path d="M29.2646 1.2979V23.0592C29.2646 24.4226 28.1599 25.5232 26.8006 25.5232H11.9386C10.5793 25.5232 9.47461 24.4226 9.47461 23.0592V21.3467H14.226C14.6777 21.3467 15.0473 20.9771 15.0473 20.5253V19.2933C15.0473 18.8375 14.6777 18.472 14.226 18.472H9.47461V7.53184H14.226C14.6777 7.53184 15.0473 7.16224 15.0473 6.71051V5.47851C15.0473 5.02267 14.6777 4.65717 14.226 4.65717H9.47461V1.2979C9.47461 0.846163 9.84421 0.476562 10.2959 0.476562H28.4433C28.895 0.476562 29.2646 0.846163 29.2646 1.2979Z" fill="#ABB6BA"/>
<path d="M15.0473 19.293V20.525C15.0473 20.9767 14.6777 21.3463 14.226 21.3463H9.47461V18.4717H14.226C14.6777 18.4717 15.0473 18.8372 15.0473 19.293Z" fill="#BEC7CB"/>
<path d="M15.0473 5.47856V6.71056C15.0473 7.16229 14.6777 7.53189 14.226 7.53189H9.47461V4.65723H14.226C14.6777 4.65723 15.0473 5.02272 15.0473 5.47856Z" fill="#BEC7CB"/>
<path d="M9.47533 18.472V21.3467H7.18383C3.62335 21.3467 0.736328 18.4597 0.736328 14.8951V11.1047C0.736328 7.54419 3.62335 4.65723 7.18383 4.65723H9.47533V7.53189H7.18383C5.20852 7.53189 3.611 9.12937 3.611 11.1047V14.8951C3.611 16.8705 5.20852 18.472 7.18383 18.472H9.47533Z" fill="#E5E9EC"/>
</svg>
