<svg width="24" height="26" viewBox="0 0 24 26" fill="none" xmlns="http://www.w3.org/2000/svg">
<path d="M23.5686 5.58714V22.5313C23.5686 22.9871 23.199 23.3526 22.7473 23.3526H19.4496V15.1228C19.4496 14.667 19.0841 14.3015 18.6283 14.3015H5.18306C4.73133 14.3015 4.36173 14.667 4.36173 15.1228V23.3526H1.25297C0.801241 23.3526 0.431641 22.9871 0.431641 22.5313V1.04106C0.431641 0.58522 0.801241 0.219727 1.25297 0.219727H18.1971C18.4147 0.219727 18.6242 0.305961 18.7802 0.457908L23.3263 5.0081C23.4824 5.16004 23.5686 5.36949 23.5686 5.58714Z" fill="#2B388F"/>
<path d="M19.4492 23.3525V24.9582C19.4492 25.4141 19.0837 25.7796 18.6279 25.7796H5.18266C4.73093 25.7796 4.36133 25.4141 4.36133 24.9582V23.3525H19.4492Z" fill="#00BBFF"/>
<path d="M19.4492 15.1231V23.3529H4.36133V15.1231C4.36133 14.6673 4.73093 14.3018 5.18266 14.3018H18.6279C19.0837 14.3018 19.4492 14.6673 19.4492 15.1231Z" fill="#1F75FF"/>
<path d="M5.08828 7.25879L9.30171 7.25879C9.75532 7.25879 10.123 6.89107 10.123 6.43746V2.7086C10.123 2.25499 9.75532 1.88727 9.30171 1.88727L5.08828 1.88727C4.63467 1.88727 4.26695 2.25499 4.26695 2.7086L4.26695 6.43746C4.26695 6.89107 4.63467 7.25879 5.08828 7.25879Z" fill="#00BBFF"/>
</svg>
