<svg width="16" height="28" viewBox="0 0 16 28" fill="none" xmlns="http://www.w3.org/2000/svg">
<path d="M3.57422 5.96777H12.4282V8.72336C12.4282 9.1792 12.0586 9.54469 11.6068 9.54469H4.39555C3.94382 9.54469 3.57422 9.1792 3.57422 8.72336V5.96777Z" fill="#1F75FF"/>
<path d="M4.39465 9.54469H11.6059C12.0577 9.54469 12.4273 9.1792 12.4273 8.72336V5.96777H13.4663C14.8297 5.96777 15.9303 7.07247 15.9303 8.43177V25.4703C15.9303 26.8296 14.8297 27.9343 13.4663 27.9343H2.53431C1.1709 27.9343 0.0703125 26.8296 0.0703125 25.4703V8.43177C0.0703125 7.07247 1.1709 5.96777 2.53431 5.96777H3.57331V8.72336C3.57331 9.1792 3.94291 9.54469 4.39465 9.54469Z" fill="#2B388F"/>
<path d="M3.57422 5.96769V0.88774C3.57422 0.4319 3.94382 0.0664062 4.39555 0.0664062H11.6068C12.0586 0.0664062 12.4282 0.4319 12.4282 0.88774V5.96769H3.57422Z" fill="#00BBFF"/>
<path d="M6.51758 2.22656V4.30043" stroke="#2B388F" stroke-width="2" stroke-linejoin="round"/>
<path d="M9.48633 2.24707V4.32093" stroke="#2B388F" stroke-width="2" stroke-linejoin="round"/>
</svg>
