<svg width="40" height="40" viewBox="0 0 40 40" fill="none" xmlns="http://www.w3.org/2000/svg">
<path d="M14.0226 35.008C13.612 35.008 13.2793 34.6753 13.2793 34.2646C13.2793 33.854 13.612 33.5172 14.0226 33.5172H15.5421C15.9979 33.5172 16.3634 33.1517 16.3634 32.6959V27.041H23.6322V32.6959C23.6322 33.1517 23.9977 33.5172 24.4536 33.5172H25.973C26.3837 33.5172 26.7204 33.854 26.7204 34.2646C26.7204 34.6753 26.3837 35.008 25.973 35.008H14.0226Z" fill="#ABB6BA"/>
<path d="M36.7132 5.81352V26.2196C36.7132 26.6754 36.3436 27.0409 35.8919 27.0409H23.6335V15.4847C23.6335 15.0289 23.2639 14.6634 22.8122 14.6634H17.186C16.7343 14.6634 16.3647 15.0289 16.3647 15.4847V27.0409H4.1104C3.65456 27.0409 3.28906 26.6754 3.28906 26.2196V5.81352C3.28906 5.36179 3.65456 4.99219 4.1104 4.99219H35.8919C36.3436 4.99219 36.7132 5.36179 36.7132 5.81352Z" fill="#E5E9EC"/>
<path d="M23.6341 15.4844V27.0406H16.3652V15.4844C16.3652 15.0286 16.7348 14.6631 17.1866 14.6631H22.8127C23.2645 14.6631 23.6341 15.0286 23.6341 15.4844Z" fill="#BEC7CB"/>
</svg>
