<svg width="32" height="32" viewBox="0 0 32 32" fill="none" xmlns="http://www.w3.org/2000/svg">
<path d="M24.2473 26.0609L20.4454 22.2556C20.1849 21.9951 20.1849 21.5708 20.4454 21.3102L21.862 19.8937C22.1225 19.6331 22.5468 19.6331 22.8074 19.8937L26.4857 23.5719C25.8375 24.484 25.0859 25.3192 24.2506 26.0609H24.2473Z" fill="#1F75FF"/>
<path d="M21.8608 19.8946L20.4443 21.3111C20.1837 21.5716 20.1837 21.9959 20.4443 22.2565L24.2462 26.0617C21.7038 28.3101 18.3663 29.6732 14.7047 29.6732C6.74355 29.6732 0.289062 23.2187 0.289062 15.2575C0.289062 7.29628 6.74355 0.841797 14.7047 0.841797C22.6659 0.841797 29.1204 7.29628 29.1204 15.2575C29.1204 18.3544 28.1449 21.2242 26.4845 23.5728L22.8063 19.8946C22.5457 19.634 22.1214 19.634 21.8608 19.8946Z" fill="#00BBFF"/>
<path d="M24.25 26.0612C25.0852 25.3195 25.8369 24.4843 26.485 23.5723L31.513 28.6002C31.7735 28.8608 31.7735 29.2851 31.513 29.5457L30.0965 30.9622C29.8359 31.2228 29.4116 31.2228 29.151 30.9622L24.25 26.0612Z" fill="#2B388F"/>
</svg>
