<svg width="28" height="28" viewBox="0 0 28 28" fill="none" xmlns="http://www.w3.org/2000/svg">
<path d="M22.6721 1.01641L26.9389 5.28325C27.8999 6.24421 27.8999 7.80474 26.9389 8.7698L20.8651 14.8436L20.9308 14.9093L21.2717 15.2501C21.592 15.5704 21.592 16.092 21.2717 16.4123L20.6803 17.0037L20.1547 17.5293C19.8343 17.8497 19.3169 17.8497 18.9925 17.5293L16.7461 15.283L16.1959 14.7327L20.1957 10.7328C20.5161 10.4125 20.5161 9.89504 20.1957 9.57061L18.4751 7.84991C18.1547 7.52959 17.6332 7.52959 17.3129 7.84991L13.313 11.8498L12.5163 11.0531L10.4219 8.95872C10.1016 8.6384 10.1016 8.11684 10.4219 7.79242L10.8325 7.38175L11.5389 6.67541C11.8592 6.35509 12.3808 6.35509 12.7011 6.67541L13.0542 7.02858L13.1117 7.08608L19.1855 1.0123C20.1465 0.0513398 21.707 0.0472331 22.6721 1.0123V1.01641Z" fill="#934A02"/>
<path d="M18.4785 7.84571L20.1992 9.5664C20.5195 9.88672 20.5195 10.4083 20.1992 10.7286L16.1993 14.7285L13.3164 11.8456L17.3163 7.84571C17.6366 7.52539 18.1582 7.52539 18.4785 7.84571Z" fill="#FFA91F"/>
<path d="M13.3169 11.8457L16.1998 14.7327L9.07063 21.8619V24.7488L3.22273 27.7098L0.339844 24.8228L3.30076 18.9831L6.18774 18.979L13.3169 11.8457Z" fill="#FFC754"/>
</svg>
