<svg width="32" height="32" viewBox="0 0 32 32" fill="none" xmlns="http://www.w3.org/2000/svg">
<path d="M30.8419 14.5779C31.9342 15.2103 31.9342 16.7914 30.8419 17.4238L20.5957 23.3415V8.66016L30.8419 14.5779Z" fill="#E5E9EC"/>
<path d="M20.5961 23.3414V30.602C20.5961 31.0537 20.2306 31.4233 19.7747 31.4233H1.15922C0.703384 31.4233 0.337891 31.0537 0.337891 30.602V1.39946C0.337891 0.947725 0.703384 0.578125 1.15922 0.578125H19.7747C20.2306 0.578125 20.5961 0.947725 20.5961 1.39946V8.66005L14.896 5.37061C13.7995 4.73818 12.432 5.53077 12.432 6.79562V25.2058C12.432 26.4707 13.7995 27.2633 14.896 26.6308L20.5961 23.3414Z" fill="#ABB6BA"/>
<path d="M20.5957 8.66016V23.3415L14.8956 26.6309C13.7992 27.2634 12.4316 26.4708 12.4316 25.2059V6.79573C12.4316 5.53088 13.7992 4.73829 14.8956 5.37072L20.5957 8.66016Z" fill="#BEC7CB"/>
</svg>
