<svg width="30" height="32" viewBox="0 0 30 32" fill="none" xmlns="http://www.w3.org/2000/svg">
<path d="M29.5221 1.39946V30.602C29.5221 31.0537 29.1525 31.4233 28.7007 31.4233H10.0811C9.62526 31.4233 9.25977 31.0537 9.25977 30.602V22.9841L18.8899 17.4237C19.9864 16.7913 19.9864 15.2102 18.8899 14.5778L9.25977 9.01733V1.39946C9.25977 0.947725 9.62526 0.578125 10.0811 0.578125H28.7007C29.1525 0.578125 29.5221 0.947725 29.5221 1.39946Z" fill="#ABB6BA"/>
<path d="M18.8899 14.578C19.9864 15.2104 19.9864 16.7915 18.8899 17.4239L9.25977 22.9844V9.01758L18.8899 14.578Z" fill="#BEC7CB"/>
<path d="M9.26053 9.01744V22.9842L2.94447 26.6309C1.8521 27.2634 0.480469 26.4708 0.480469 25.2059V6.79573C0.480469 5.53088 1.8521 4.73829 2.94447 5.37072L9.26053 9.01744Z" fill="#E5E9EC"/>
</svg>
