<svg width="191" height="214" viewBox="0 0 191 214" fill="none" xmlns="http://www.w3.org/2000/svg">
<path d="M189.826 60.8314C190.855 61.6582 190.492 63.2716 189.221 63.5942L181.881 65.4093C176.375 66.7806 170.769 67.7486 165.102 68.2931C162.339 68.5553 159.576 68.7368 156.793 68.8175C155.502 66.3571 154.312 63.8564 153.183 61.3154C150.904 56.1123 149.008 50.7479 147.516 45.2624L145.519 37.9822C145.177 36.7116 146.427 35.6226 147.637 36.1066L161.774 41.8542C162.258 42.0559 162.803 41.9954 163.246 41.7131L175.992 33.3236C177.081 32.5976 178.533 33.4446 178.432 34.7554L177.343 49.9815C177.303 50.5059 177.524 51.01 177.928 51.3327L189.847 60.8515L189.826 60.8314Z" fill="#1E75FF"/>
<path d="M181.902 65.4082L174.42 67.2636C173.916 67.3846 173.513 67.7476 173.331 68.2316L167.947 82.5098C167.483 83.74 165.809 83.9013 165.123 82.7922L161.13 76.379C159.598 73.9187 158.166 71.3978 156.814 68.8164C159.597 68.7358 162.36 68.5744 165.123 68.2921C170.77 67.7476 176.376 66.7796 181.902 65.4082Z" fill="#00BDFF"/>
<path d="M153.203 61.3166C154.313 63.8576 155.523 66.3583 156.813 68.8187C153.909 68.8994 151.005 68.8792 148.101 68.7381L140.559 68.3952C139.248 68.3347 138.582 66.802 139.429 65.7937L149.251 54.1371C149.593 53.7338 149.714 53.2095 149.573 52.7053L147.536 45.2637C149.029 50.7491 150.924 56.1135 153.203 61.3166Z" fill="#2B388F"/>
<path d="M22.7406 58.5738C23.4262 57.9687 24.5153 58.4124 24.5758 59.3199L24.9388 64.6037C25.2211 68.5766 25.2009 72.5696 24.8984 76.5627C24.7573 78.4987 24.5354 80.4348 24.2531 82.3708C22.3977 82.9557 20.5222 83.48 18.6265 83.9438C14.7544 84.8917 10.8017 85.537 6.82881 85.9202L1.54506 86.4244C0.637543 86.505 0.0123665 85.5169 0.496374 84.7303L6.18347 75.6552C6.38514 75.3527 6.4053 74.9695 6.26413 74.6267L2.0089 64.7852C1.64589 63.9382 2.41224 63.0508 3.29959 63.2727L13.6856 65.8742C14.0486 65.9549 14.4116 65.8742 14.6939 65.6322L22.7204 58.5536L22.7406 58.5738Z" fill="#1E75FF"/>
<path d="M24.9392 64.6247L25.3022 70.0294C25.3224 70.3924 25.5241 70.7151 25.8468 70.8966L35.0631 76.3417C35.8496 76.8055 35.7689 77.9752 34.9017 78.318L29.981 80.2944C28.0853 81.0608 26.1694 81.7464 24.2334 82.3716C24.5157 80.4356 24.7376 78.4996 24.8787 76.5635C25.1812 72.5906 25.2014 68.5976 24.9191 64.6045L24.9392 64.6247Z" fill="#00BDFF"/>
<path d="M18.6268 83.9656C20.5225 83.5018 22.398 82.9774 24.2534 82.3926C23.9509 84.4093 23.5879 86.4058 23.1442 88.4023L21.9745 93.5651C21.7728 94.4524 20.6233 94.7348 20.0385 94.0289L13.1615 85.821C12.9195 85.5386 12.5767 85.3975 12.2137 85.4176L6.8291 85.9218C10.802 85.5588 14.7346 84.8933 18.6268 83.9454V83.9656Z" fill="#2B388F"/>
<path d="M66.8274 0.350523C67.1702 0.0480176 67.7147 0.269855 67.755 0.733695L67.9365 3.37557C68.0777 5.3721 68.0777 7.36864 67.9164 9.345C67.8357 10.313 67.7349 11.281 67.5937 12.249C66.666 12.5516 65.7182 12.8137 64.7703 13.0356C62.8343 13.4994 60.8579 13.8422 58.8816 14.0237L56.2397 14.2657C55.7758 14.3061 55.4733 13.8019 55.7153 13.4187L58.5589 8.88116C58.6597 8.71983 58.6799 8.53832 58.5992 8.35682L56.4817 3.43607C56.3002 3.01257 56.6834 2.56889 57.127 2.68989L62.3301 4.00075C62.5116 4.04108 62.6931 4.00075 62.8343 3.87975L66.8475 0.330356L66.8274 0.350523Z" fill="#1E75FF"/>
<path d="M67.9157 3.37402L68.0972 6.0764C68.0972 6.2579 68.2182 6.41924 68.3594 6.52007L72.9777 9.24262C73.381 9.48462 73.3205 10.0695 72.897 10.2308L70.4366 11.219C69.4888 11.6022 68.5208 11.945 67.5527 12.2475C67.6939 11.2795 67.7947 10.3115 67.8754 9.34345C68.0367 7.34692 68.0367 5.35039 67.8956 3.37402H67.9157Z" fill="#00BDFF"/>
<path d="M64.7517 13.0355C65.6995 12.8137 66.6272 12.5515 67.5751 12.249C67.4339 13.2574 67.2322 14.2657 67.0104 15.2539L66.4256 17.8353C66.3247 18.279 65.7601 18.4201 65.4575 18.0773L62.0292 13.9632C61.9082 13.822 61.7267 13.7414 61.5452 13.7615L58.8428 14.0237C60.8191 13.8422 62.7955 13.5195 64.7315 13.0355H64.7517Z" fill="#2B388F"/>
<path d="M119.283 137.122C128.116 145.209 133.642 156.825 133.642 169.752C133.642 194.195 113.817 213.999 89.375 213.999C64.9326 213.999 45.1084 194.195 45.1084 169.752C45.1084 156.825 50.6342 145.209 59.4673 137.102V148.698C59.4875 150.896 61.2622 152.691 63.4604 152.731H66.2031C68.4416 152.792 70.297 150.977 70.2768 148.718V129.802C76.0446 127.039 82.5383 125.486 89.375 125.486C96.2116 125.486 102.705 127.039 108.493 129.802C108.977 130.064 109.481 130.306 109.965 130.568C111.599 131.415 113.172 132.383 114.685 133.452C115.088 133.694 115.471 133.996 115.854 134.279C117.044 135.166 118.194 136.114 119.283 137.122ZM93.4084 177.396C96.6149 175.883 98.8534 172.636 98.8534 168.845C98.8534 162.936 93.4487 158.298 87.3179 159.588C83.6274 160.355 80.7031 163.4 80.0376 167.111C79.231 171.628 81.6308 175.661 85.3416 177.396V186.652C85.3416 187.782 85.7852 188.79 86.5112 189.516C87.2373 190.242 88.2456 190.686 89.375 190.686C91.5933 190.686 93.4084 188.891 93.4084 186.652V177.396Z" fill="#2B388F"/>
<path d="M119.283 112.155V137.121C118.194 136.113 117.045 135.165 115.855 134.278C115.472 133.996 115.088 133.713 114.685 133.451C113.173 132.382 111.6 131.414 109.966 130.567C109.482 130.305 108.998 130.043 108.494 129.801V112.155C108.474 107.052 106.477 102.253 102.867 98.6025C99.2573 95.0329 94.4173 93.0364 89.3352 93.0767C84.2329 93.0566 79.4332 95.0531 75.8233 98.6832C72.2134 102.293 70.237 107.113 70.237 112.195V129.801C66.3045 131.697 62.6744 134.177 59.4679 137.101V112.215C59.4275 95.7186 72.8386 82.2874 89.315 82.2471C97.281 82.2471 104.803 85.3326 110.49 90.9592C116.177 96.6665 119.263 104.189 119.283 112.155Z" fill="#00BDFF"/>
<path d="M109.964 130.567C109.48 130.305 108.976 130.063 108.492 129.821C108.996 130.043 109.48 130.305 109.964 130.567Z" fill="#1E75FF"/>
<path d="M98.8529 168.843C98.8529 172.635 96.6143 175.882 93.4078 177.394V186.651C93.4078 188.889 91.5928 190.684 89.3744 190.684C88.245 190.684 87.2367 190.241 86.5107 189.515C85.7847 188.789 85.341 187.78 85.341 186.651V177.394C81.6303 175.66 79.2304 171.626 80.0371 167.109C80.7026 163.398 83.6268 160.353 87.3173 159.587C93.4481 158.296 98.8529 162.935 98.8529 168.843Z" fill="#1E75FF"/>
<path d="M70.2766 148.718C70.2968 150.977 68.4415 152.792 66.2029 152.751H63.4602C61.262 152.691 59.4873 150.896 59.4873 148.698V137.102C62.6737 134.177 66.3037 131.697 70.2565 129.801V148.718H70.2766Z" fill="#1E75FF"/>
</svg>
