<svg width="28" height="27" viewBox="0 0 28 27" fill="none" xmlns="http://www.w3.org/2000/svg">
<path d="M26.7256 9.81077C27.3991 9.90933 27.6701 10.7389 27.1814 11.2111L24.3684 13.9544C22.2493 16.0201 19.9865 17.9297 17.5924 19.6668C16.4261 20.5169 15.2269 21.3218 14.0031 22.0897C12.7752 21.3259 11.5761 20.5169 10.4057 19.6668C8.01561 17.9297 5.75283 16.0201 3.63379 13.9544L0.820722 11.2111C0.332028 10.7389 0.598961 9.90933 1.27246 9.81077L9.13262 8.66912C9.39955 8.63216 9.62953 8.46378 9.74862 8.22148L13.2639 1.10052C13.5637 0.488628 14.4343 0.488628 14.7382 1.10052L18.2494 8.22148C18.3726 8.46378 18.6026 8.63216 18.8695 8.66912L26.7256 9.81077Z" fill="#FFA91F"/>
<path d="M24.3691 13.9541L21.4986 16.7549C21.3056 16.9438 21.2152 17.2148 21.2604 17.4817L22.6033 25.3049C22.7183 25.9784 22.016 26.4877 21.4123 26.1714L17.934 24.344C16.5952 23.6417 15.2852 22.8902 14.0039 22.0894C15.2277 21.3215 16.4268 20.5166 17.5931 19.6665C19.9873 17.9294 22.2501 16.0198 24.3691 13.9541Z" fill="#FFC754"/>
<path d="M10.4047 19.6665C11.5751 20.5166 12.7743 21.3256 14.0022 22.0894C12.7168 22.8861 11.4067 23.6417 10.068 24.344L6.58961 26.1714C5.98593 26.4877 5.28369 25.9784 5.39868 25.3049L6.74156 17.4817C6.78673 17.2148 6.69639 16.9438 6.50337 16.7549L3.63281 13.9541C5.75185 16.0198 8.01463 17.9294 10.4047 19.6665Z" fill="#934A02"/>
</svg>
