<svg width="30" height="28" viewBox="0 0 30 28" fill="none" xmlns="http://www.w3.org/2000/svg">
<path d="M29.2156 4.68586V8.39418C29.2156 9.7576 27.9426 10.8664 26.3697 10.8664C26.2958 10.8664 26.2219 10.8623 26.1479 10.8582V5.50719C26.1479 5.05135 25.7824 4.68586 25.3266 4.68586H4.67007C4.21833 4.68586 3.84873 5.05135 3.84873 5.50719V10.8582C3.77481 10.8623 3.70089 10.8664 3.62697 10.8664C2.05822 10.8664 0.785156 9.7576 0.785156 8.39418V4.68586L1.80361 2.03296C2.0459 1.39642 2.6578 0.977539 3.3354 0.977539H26.6654C27.343 0.977539 27.9549 1.39642 28.1972 2.03296L29.2156 4.68586Z" fill="#FFC754"/>
<path d="M26.1488 10.8585V26.2011C26.1488 26.6528 25.7833 27.0224 25.3275 27.0224H4.67094C4.21921 27.0224 3.84961 26.6528 3.84961 26.2011V10.8585C5.3198 10.76 6.47377 9.69224 6.47377 8.39453C6.47377 9.75795 7.74684 10.8668 9.31559 10.8668C10.8843 10.8668 12.1574 9.75795 12.1574 8.39453C12.1574 9.75795 13.4305 10.8668 14.9992 10.8668C16.568 10.8668 17.8451 9.75795 17.8451 8.39453C17.8451 9.75795 19.1182 10.8668 20.687 10.8668C22.2557 10.8668 23.5288 9.75795 23.5288 8.39453C23.5288 9.69224 24.6827 10.76 26.1488 10.8585Z" fill="#934A02"/>
<path d="M26.1488 5.50688V10.8579C24.6827 10.7593 23.5288 9.69158 23.5288 8.39387C23.5288 9.75728 22.2557 10.8661 20.687 10.8661C19.1182 10.8661 17.8451 9.75728 17.8451 8.39387C17.8451 9.75728 16.5721 10.8661 14.9992 10.8661C13.4264 10.8661 12.1574 9.75728 12.1574 8.39387C12.1574 9.75728 10.8843 10.8661 9.31559 10.8661C7.74684 10.8661 6.47377 9.75728 6.47377 8.39387C6.47377 9.69158 5.3198 10.7593 3.84961 10.8579V5.50688C3.84961 5.05104 4.21921 4.68555 4.67094 4.68555H25.3275C25.7833 4.68555 26.1488 5.05104 26.1488 5.50688Z" fill="#FFA91F"/>
<path d="M11.3956 16.0986H18.5987C19.0504 16.0986 19.42 16.4682 19.42 16.92V27.0224H10.5742V16.92C10.5742 16.4682 10.9438 16.0986 11.3956 16.0986Z" fill="#FFC754"/>
</svg>
