<svg width="30" height="28" viewBox="0 0 30 28" fill="none" xmlns="http://www.w3.org/2000/svg">
<path d="M29.8044 13.6597H16.2647V8.9781C16.2647 8.52636 15.8951 8.15676 15.4434 8.15676H14.622C14.1662 8.15676 13.8007 8.52636 13.8007 8.9781V13.6597H0.195312C0.757926 5.99667 7.19305 0.202148 14.9998 0.202148C22.8066 0.202148 29.2418 5.99667 29.8044 13.6597Z" fill="#E5E9EC"/>
<path d="M16.2652 13.6592V23.4207C16.2652 25.9751 14.0681 28.0243 11.4645 27.7779C10.331 27.6711 9.34134 27.1208 8.63499 26.3118C7.93275 25.4987 7.50977 24.431 7.50977 23.2934C7.50977 22.8951 7.83009 22.5706 8.23254 22.5706H9.24688C9.64933 22.5706 9.97377 22.8951 9.97377 23.2934V23.4207C9.97377 24.5418 10.9347 25.4371 12.0764 25.3262C13.0702 25.2277 13.8012 24.3365 13.8012 23.3345V13.6592H16.2652Z" fill="#ABB6BA"/>
<path d="M16.2648 8.97856V13.6602H13.8008V8.97856C13.8008 8.52683 14.1663 8.15723 14.6221 8.15723H15.4434C15.8952 8.15723 16.2648 8.52683 16.2648 8.97856Z" fill="#BEC7CB"/>
</svg>
