<svg width="40" height="40" viewBox="0 0 40 40" fill="none" xmlns="http://www.w3.org/2000/svg">
<path d="M39.3971 18.3941C40.1921 19.3091 40.2022 20.8085 39.4173 21.7353L26.2156 37.3786C25.4307 38.3054 24.1495 38.3231 23.3545 37.4081L22.8735 36.8591V12.8806C22.8735 11.9538 22.5595 11.0625 22.0024 10.4013L14.5281 1.5112C13.6875 0.507669 12.5683 0.00590312 11.4492 0L22.129 0.0177098C22.9241 0.0177098 23.6887 0.383703 24.2559 1.03305L39.3971 18.3941Z" fill="#FFC754"/>
<path d="M22.8748 12.8811V36.8595L8.21468 20.0415C7.64752 19.3922 7.32341 18.5126 7.30822 17.5799L7.11585 5.13616C7.09053 3.35932 7.85006 1.78909 9.01983 0.862299C9.01983 0.856396 9.01984 0.850493 9.02997 0.850493C9.14137 0.767849 9.25787 0.685205 9.37941 0.608465C9.38447 0.608465 9.39456 0.596658 9.40469 0.590755C9.5161 0.525821 9.63259 0.460886 9.74907 0.395952C9.8149 0.360533 9.8858 0.331018 9.95163 0.307405C10.0833 0.248374 10.22 0.201149 10.3567 0.159827C10.7163 0.047668 11.0859 -0.00546039 11.4505 0.000442732C12.5697 0.00634585 13.6888 0.508112 14.5294 1.51164L22.0037 10.4017C22.5608 11.0629 22.8748 11.9543 22.8748 12.8811Z" fill="#FFA91F"/>
<path d="M10.3562 0.160156C10.2195 0.201478 10.0828 0.248703 9.95117 0.307734C10.0879 0.248703 10.2195 0.201478 10.3562 0.160156Z" fill="#934A02"/>
<path d="M9.40234 0.590311C9.51375 0.519473 9.63025 0.454539 9.74672 0.395508C9.63025 0.460442 9.51375 0.525376 9.40234 0.590311Z" fill="#934A02"/>
<path d="M9.0293 0.84945C9.1407 0.760903 9.25721 0.678259 9.37874 0.607422C9.25721 0.684162 9.1407 0.766806 9.0293 0.84945Z" fill="#934A02"/>
<path d="M0.865911 10.4018L8.34534 1.51165C8.55296 1.26372 8.78081 1.0453 9.01882 0.862305C7.84905 1.78909 7.08952 3.35933 7.11484 5.13616L7.30721 17.5799C7.3224 18.5126 7.64651 19.3922 8.21367 20.0415L22.8738 36.8595V37.6388C22.8738 38.9433 21.9673 40 20.8482 40H2.02557C0.906443 40 0 38.9433 0 37.6388V12.8811C0 11.9543 0.30888 11.0629 0.865911 10.4018Z" fill="#934A02"/>
<path d="M11.4345 7.2266C12.7154 7.2266 13.7538 6.01614 13.7538 4.52297C13.7538 3.02979 12.7154 1.81934 11.4345 1.81934C10.1536 1.81934 9.11523 3.02979 9.11523 4.52297C9.11523 6.01614 10.1536 7.2266 11.4345 7.2266Z" fill="#FFC754"/>
</svg>
