<svg width="30" height="32" viewBox="0 0 30 32" fill="none" xmlns="http://www.w3.org/2000/svg">
<path d="M29.2194 9.37602V27.8355C29.2194 28.2872 28.8498 28.6568 28.3981 28.6568H14.998V8.55469H28.3981C28.8498 8.55469 29.2194 8.92429 29.2194 9.37602Z" fill="#2B388F"/>
<path d="M14.9989 28.6572V30.5709C14.9989 31.0227 14.6334 31.3923 14.1775 31.3923H5.11821C4.66237 31.3923 4.29688 31.0227 4.29688 30.5709V28.6572H14.9989Z" fill="#00BBFF"/>
<path d="M14.9989 8.55469H4.29688V28.6568H14.9989V8.55469Z" fill="#1F75FF"/>
<path d="M14.9989 5.31059V8.55487H4.29688V5.31059C4.29688 4.85475 4.66237 4.48926 5.11821 4.48926H14.1775C14.6334 4.48926 14.9989 4.85475 14.9989 5.31059Z" fill="#00BBFF"/>
<path d="M4.29656 8.55469V28.6568H1.60258C1.14674 28.6568 0.78125 28.2872 0.78125 27.8355V9.37602C0.78125 8.92429 1.14674 8.55469 1.60258 8.55469H4.29656Z" fill="#2B388F"/>
<path d="M7.61523 4.48921V0.608398" stroke="#00BBFF" stroke-width="4" stroke-linejoin="round"/>
<path d="M19.7294 14.7891H17.791" stroke="#00BBFF" stroke-width="2" stroke-linejoin="round"/>
<path d="M23.1632 14.7891H21.2207" stroke="#00BBFF" stroke-width="2" stroke-linejoin="round"/>
<path d="M26.5926 14.7891H24.6543" stroke="#00BBFF" stroke-width="2" stroke-linejoin="round"/>
<path d="M19.7294 18.6084H17.791" stroke="#00BBFF" stroke-width="2" stroke-linejoin="round"/>
<path d="M23.1632 18.6084H21.2207" stroke="#00BBFF" stroke-width="2" stroke-linejoin="round"/>
<path d="M26.5926 18.6084H24.6543" stroke="#00BBFF" stroke-width="2" stroke-linejoin="round"/>
<path d="M19.7294 22.4277H17.791" stroke="#00BBFF" stroke-width="2" stroke-linejoin="round"/>
<path d="M23.1632 22.4277H21.2207" stroke="#00BBFF" stroke-width="2" stroke-linejoin="round"/>
<path d="M26.5926 22.4277H24.6543" stroke="#00BBFF" stroke-width="2" stroke-linejoin="round"/>
</svg>
