<svg width="32" height="30" viewBox="0 0 32 30" fill="none" xmlns="http://www.w3.org/2000/svg">
<path d="M26.2969 0.345703C28.9539 0.345703 31.1099 2.50171 31.1099 5.16283C31.1099 6.67408 30.4159 8.02518 29.3276 8.904C27.9601 5.91435 25.611 3.46677 22.6953 1.96373C23.5782 0.969917 24.8636 0.345703 26.2969 0.345703Z" fill="#FFC754"/>
<path d="M29.3264 8.9038C30.1806 10.76 30.6528 12.8257 30.6528 15.0022C30.6528 23.0965 24.0945 29.6548 16.0002 29.6548C7.906 29.6548 1.34766 23.0965 1.34766 15.0022C1.34766 12.8257 1.81992 10.76 2.6741 8.9038C3.50365 9.5773 4.55907 9.97975 5.70894 9.97975C8.36595 9.97975 10.5219 7.82375 10.5219 5.16263C10.5219 3.93473 10.062 2.81361 9.30638 1.96353C11.3145 0.932756 13.5896 0.349609 16.0002 0.349609C18.4109 0.349609 20.686 0.932756 22.6941 1.96353C21.9385 2.81361 21.4785 3.93473 21.4785 5.16263C21.4785 7.82375 23.6346 9.97975 26.2957 9.97975C27.4455 9.97975 28.4968 9.5773 29.3264 8.9038Z" fill="#934A02"/>
<path d="M22.6941 1.96387C25.6098 3.46691 27.9589 5.91448 29.3264 8.90414C28.4968 9.57763 27.4455 9.98009 26.2957 9.98009C23.6345 9.98009 21.4785 7.82408 21.4785 5.16296C21.4785 3.93507 21.9385 2.81395 22.6941 1.96387Z" fill="#FFA91F"/>
<path d="M9.30806 1.96387C10.0637 2.81395 10.5236 3.93507 10.5236 5.16296C10.5236 7.82408 8.36763 9.98009 5.71062 9.98009C4.56075 9.98009 3.50533 9.57763 2.67578 8.90414C4.04741 5.91448 6.39233 3.46691 9.30806 1.96387Z" fill="#FFA91F"/>
<path d="M5.70972 0.345703C7.13884 0.345703 8.42423 0.969917 9.30716 1.96373C6.39143 3.46677 4.04651 5.91435 2.67488 8.904C1.58662 8.02107 0.892578 6.67408 0.892578 5.16283C0.892578 2.50171 3.0486 0.345703 5.70972 0.345703Z" fill="#FFC754"/>
<path d="M20.8882 22.6488L15.7507 15.7372L12.0753 18.4271C11.7098 18.694 11.2006 18.616 10.9295 18.2546L10.6831 17.922C10.4121 17.5565 10.4901 17.0391 10.8556 16.7721L15.5126 13.3472C15.8781 13.0802 16.3873 13.1583 16.6583 13.5196L22.5309 21.425C22.8019 21.7905 22.7239 22.3038 22.3625 22.5748L22.034 22.8212C21.6685 23.0923 21.1551 23.0143 20.8841 22.6529L20.8882 22.6488Z" fill="#FFA91F"/>
</svg>
