<svg width="22" height="30" viewBox="0 0 22 30" fill="none" xmlns="http://www.w3.org/2000/svg">
<path d="M20.206 0.135742C21.4708 0.135742 22.2634 1.50737 21.631 2.59974L14.4731 15.0019L12.4238 11.4537C11.7914 10.3572 10.2104 10.3572 9.57794 11.4537L7.52872 15.0019L0.370722 2.59974C-0.261705 1.50737 0.53087 0.135742 1.79572 0.135742H20.206Z" fill="#E5E9EC"/>
<path d="M21.631 27.4C22.2634 28.4924 21.4708 29.864 20.206 29.864H1.79572C0.53087 29.864 -0.261705 28.4924 0.370722 27.4L7.52872 15.002L9.57794 18.546C10.2104 19.6425 11.7914 19.6425 12.4238 18.546L14.4731 15.002L21.631 27.4Z" fill="#ABB6BA"/>
<path d="M12.4244 11.4542L14.4736 15.0024L12.4244 18.5464C11.792 19.6429 10.2109 19.6429 9.57852 18.5464L7.5293 15.0024L9.57852 11.4542C10.2109 10.3577 11.792 10.3577 12.4244 11.4542Z" fill="#BEC7CB"/>
</svg>
