<svg width="28" height="25" viewBox="0 0 28 25" fill="none" xmlns="http://www.w3.org/2000/svg">
<path d="M0.0926514 17.3989C-0.169794 17.8522 0.157412 18.4214 0.682301 18.4214H15.4576L11.313 11.2468C11.0506 10.7935 11.3812 10.2243 11.9061 10.2243H16.8278L11.1221 0.339985C10.8597 -0.113328 10.2053 -0.113328 9.94285 0.339985L0.0926514 17.3989Z" fill="#934A02"/>
<path d="M11.9061 10.2246C11.3812 10.2246 11.0506 10.7938 11.3131 11.2471L15.4576 18.4217H20.3793C20.9042 18.4217 21.2314 17.8525 20.969 17.3992L16.8278 10.2246H11.9061Z" fill="#FFA91F"/>
<path d="M15.4576 18.4217L18.6546 23.9603C18.9171 24.4171 19.5715 24.4171 19.8339 23.9603L27.1756 11.2471C27.438 10.7938 27.1108 10.2246 26.5859 10.2246H16.8278L20.9689 17.3992C21.2314 17.8525 20.9042 18.4217 20.3793 18.4217H15.4576Z" fill="#FFC754"/>
</svg>
