<svg width="20" height="30" viewBox="0 0 20 30" fill="none" xmlns="http://www.w3.org/2000/svg">
<path d="M3.19141 14.8069C3.74581 14.1211 4.40287 13.5174 5.13385 13.0205L6.41513 16.2442C6.5835 16.6672 6.37817 17.1436 5.95519 17.312L5.19135 17.6159C4.76837 17.7801 4.292 17.5748 4.12363 17.1559L3.19141 14.8069Z" fill="#BEC7CB"/>
<path d="M6.41374 16.2438L5.13246 13.0201C6.5739 12.0386 8.31516 11.4678 10.1919 11.4678C15.1692 11.4678 19.206 15.5005 19.206 20.4819C19.206 25.4633 15.1692 29.492 10.1919 29.492C5.21462 29.492 1.17773 25.4592 1.17773 20.4819C1.17773 18.3259 1.93337 16.3547 3.19001 14.8065L4.12223 17.1555C4.29061 17.5744 4.76697 17.7797 5.18996 17.6155L5.95379 17.3116C6.37678 17.1432 6.58211 16.6668 6.41374 16.2438Z" fill="#ABB6BA"/>
<path d="M3.1906 14.8067L1.29743 10.0306C-0.0536634 6.6221 1.39599 2.65096 4.7306 1.13149C6.50058 0.322476 8.48409 0.301938 10.2705 1.06167C11.9542 1.80087 13.2437 3.13143 13.9131 4.81927L14.7509 6.9342C14.9193 7.35308 14.7098 7.82947 14.2909 7.99784L13.5271 8.30173C13.1041 8.4701 12.6278 8.26067 12.4594 7.84179L11.6216 5.72684C11.1945 4.64679 10.3649 3.79672 9.2931 3.32445C8.22948 2.87272 7.04266 2.85629 5.9626 3.28338C4.82095 3.73511 3.94212 4.62626 3.4986 5.78023C3.09204 6.83975 3.15366 8.02247 3.56843 9.07789L5.13305 13.0203C4.40206 13.5172 3.745 14.1209 3.1906 14.8067Z" fill="#E5E9EC"/>
<path d="M11.0188 20.9625V22.8474C11.0188 23.2991 10.6492 23.6687 10.1974 23.6687C9.7457 23.6687 9.3761 23.2991 9.3761 22.8474V20.9625C8.62458 20.6052 8.13588 19.7879 8.29604 18.868C8.43156 18.1124 9.02702 17.4923 9.77855 17.3322C11.027 17.0693 12.1275 18.018 12.1275 19.2212C12.1275 19.9933 11.6717 20.6545 11.0188 20.9625Z" fill="#BEC7CB"/>
</svg>
