<svg width="28" height="32" viewBox="0 0 28 32" fill="none" xmlns="http://www.w3.org/2000/svg">
<path d="M27.2315 13.1756V30.4459C27.2315 30.8409 26.9112 31.1576 26.5197 31.1576H1.47736C1.08235 31.1576 0.765625 30.8409 0.765625 30.4459V13.1756C0.765625 12.7841 1.08235 12.4639 1.47736 12.4639H6.20321L2.80118 15.293C2.32787 15.6845 2.54495 16.4531 3.15348 16.5421L11.8936 17.8481C12.4452 17.93 12.9576 18.172 13.3704 18.5421L19.9647 24.4281C20.4237 24.8374 21.1497 24.5135 21.1497 23.8979V12.4639H26.5197C26.9112 12.4639 27.2315 12.7841 27.2315 13.1756Z" fill="#2B388F"/>
<path d="M21.1504 12.4639V23.8979C21.1504 24.5135 20.4245 24.8374 19.9654 24.4281L13.3712 18.5421C12.9584 18.172 12.4459 17.93 11.8943 17.8481L3.15421 16.5421C2.54568 16.4531 2.3286 15.6845 2.80191 15.293L6.20394 12.4639H8.95487C9.58832 12.4639 10.147 12.8838 10.3178 13.4923C10.7662 15.1044 12.2431 16.2823 13.9975 16.2823C15.7519 16.2823 17.2288 15.1044 17.6772 13.4923C17.848 12.8838 18.4067 12.4639 19.0401 12.4639H21.1504Z" fill="#1F75FF"/>
<path d="M21.1496 1.5534V12.4643H19.0393C18.4059 12.4643 17.8472 12.8842 17.6764 13.4928C17.228 15.1048 15.7511 16.2828 13.9967 16.2828C12.2423 16.2828 10.7654 15.1048 10.317 13.4928C10.1462 12.8842 9.58751 12.4643 8.95406 12.4643H6.20312L19.9824 1.00893C20.4486 0.621038 21.1496 0.951984 21.1496 1.5534Z" fill="#00BBFF"/>
</svg>
