<svg width="32" height="38" viewBox="0 0 32 38" fill="none" xmlns="http://www.w3.org/2000/svg">
<path d="M31.1553 29.2441C31.1963 29.8067 30.7446 30.2872 30.1779 30.2872H22.7982C22.6873 26.6282 19.6853 23.7001 16.0017 23.7001C12.318 23.7001 9.31192 26.6282 9.20104 30.2872H1.82132C1.2546 30.2872 0.806972 29.8026 0.843932 29.2441C1.38191 21.3429 7.9608 15.0967 16.0017 15.0967C24.0425 15.0967 30.6214 21.3388 31.1553 29.2441Z" fill="#FFC754"/>
<path d="M22.7986 30.291C22.8027 30.3649 22.8027 30.4306 22.8027 30.5045C22.8027 34.2621 19.7596 37.3052 16.002 37.3052C12.2444 37.3052 9.19727 34.2621 9.19727 30.5045C9.19727 30.4306 9.19727 30.3649 9.20138 30.291H22.7986Z" fill="#934A02"/>
<path d="M22.7983 30.2912H9.20117C9.31205 26.6322 12.3181 23.7041 16.0018 23.7041C19.6855 23.7041 22.6834 26.6322 22.7983 30.2912Z" fill="#FFA91F"/>
<path d="M16.9958 15.1334V1.51567C16.9958 1.06394 16.6262 0.694336 16.1745 0.694336H15.8213C15.3696 0.694336 15 1.06394 15 1.51567V15.1334C15.3326 15.1128 15.6653 15.0964 15.9979 15.0964C16.3305 15.0964 16.6632 15.1128 16.9917 15.1334H16.9958Z" fill="#934A02"/>
</svg>
