<svg width="32" height="30" viewBox="0 0 32 30" fill="none" xmlns="http://www.w3.org/2000/svg">
<path d="M31.2717 8.55376V28.4834C31.2717 28.9393 30.9021 29.3048 30.4504 29.3048H1.5518C1.09596 29.3048 0.730469 28.9393 0.730469 28.4834V8.55376C0.730469 8.10202 1.09596 7.73242 1.5518 7.73242H3.83925L2.63592 16.2373C2.58664 16.57 2.82072 16.878 3.15336 16.9273L12.1757 18.2044L17.5226 18.9642L26.5449 20.2454C26.8776 20.2906 27.1856 20.0606 27.2349 19.7239L28.935 7.73242H30.4504C30.9021 7.73242 31.2717 8.10202 31.2717 8.55376Z" fill="#2B388F"/>
<path d="M28.8453 4.01595C29.1779 4.06523 29.412 4.37323 29.3628 4.70587L28.9356 7.73248H21.8188C21.0878 7.73248 20.4431 8.21707 20.246 8.91931C19.7285 10.7796 18.0242 12.1389 15.9996 12.1389C13.975 12.1389 12.2707 10.7796 11.7533 8.91931C11.5562 8.21707 10.9115 7.73248 10.1805 7.73248H3.83984L4.76384 1.21931C4.81312 0.886665 5.1211 0.652587 5.45785 0.701867L28.8453 4.01595Z" fill="#00BBFF"/>
<path d="M28.9346 7.73242L27.2345 19.7239C27.1852 20.0606 26.8771 20.2906 26.5445 20.2454L17.5221 18.9642L12.1752 18.2044L3.15291 16.9273C2.82027 16.878 2.58618 16.57 2.63546 16.2373L3.83879 7.73242H10.1795C10.9104 7.73242 11.5551 8.21701 11.7522 8.91925C12.2697 10.7796 13.974 12.1389 15.9986 12.1389C18.0232 12.1389 19.7275 10.7796 20.2449 8.91925C20.442 8.21701 21.0867 7.73242 21.8177 7.73242H28.9346Z" fill="#1F75FF"/>
</svg>
