<svg width="34" height="26" viewBox="0 0 34 26" fill="none" xmlns="http://www.w3.org/2000/svg">
<path d="M29.931 15.3617C29.7175 15.0742 29.4752 14.8031 29.2123 14.5567C28.6045 13.99 27.8859 13.5506 27.1056 13.2631C26.3253 12.9757 25.4917 12.8484 24.6621 12.8853C24.5471 10.9675 23.7053 9.1688 22.309 7.85056C21.0934 6.70891 19.5452 6.00256 17.8984 5.83419C19.0483 2.80346 21.9846 0.647461 25.4218 0.647461C29.8652 0.647461 33.4668 4.25312 33.4668 8.69654C33.4668 11.4685 32.0665 13.912 29.931 15.3617Z" fill="#E5E9EC"/>
<path d="M29.2126 14.5565C29.4754 14.8029 29.7177 15.074 29.9313 15.3615C28.6459 16.2362 27.0935 16.7454 25.4221 16.7454C20.9746 16.7454 17.373 13.1397 17.373 8.69633C17.373 7.6902 17.5579 6.72513 17.8987 5.83398C19.5455 6.00236 21.0937 6.70871 22.3093 7.85036C23.7055 9.1686 24.5474 10.9673 24.6624 12.8851C25.4919 12.8482 26.3256 12.9755 27.1059 13.2629C27.8862 13.5504 28.6048 13.9898 29.2126 14.5565Z" fill="#BEC7CB"/>
<path d="M25.4214 16.7453C27.0928 16.7453 28.6452 16.236 29.9306 15.3613C30.218 15.735 30.4562 16.1416 30.6492 16.5728C30.986 17.3325 31.1708 18.1497 31.1872 18.9834C31.2077 19.817 31.0558 20.6425 30.7519 21.4186C30.4439 22.1907 29.9839 22.897 29.4008 23.4884C28.8177 24.0839 28.1195 24.552 27.3516 24.8724C26.5836 25.1927 25.7582 25.3569 24.9245 25.3528H8.70318C7.54099 25.3528 6.39114 25.1023 5.33162 24.6218C4.2721 24.1414 3.32757 23.4391 2.56373 22.5644C1.79578 21.6897 1.22492 20.663 0.884062 19.5501C0.547315 18.4372 0.44878 17.2668 0.600726 16.1128C0.748566 14.9589 1.14278 13.8542 1.75467 12.8644C2.36657 11.8747 3.18383 11.0288 4.14889 10.3799C5.11396 9.73106 6.20631 9.29575 7.35207 9.10274C8.49783 8.90973 9.67645 8.96311 10.7976 9.25879C12.1404 7.17671 14.4772 5.79688 17.1383 5.79688C17.3929 5.79688 17.6475 5.80919 17.898 5.83383C17.5572 6.72498 17.3723 7.69005 17.3723 8.69618C17.3723 13.1396 20.9739 16.7453 25.4214 16.7453Z" fill="#ABB6BA"/>
</svg>
