<svg width="192" height="40" viewBox="0 0 192 40" fill="none" xmlns="http://www.w3.org/2000/svg">
<path d="M52.43 22.1412C53.0353 23.0333 53.3359 24.1753 53.3359 25.563C53.3359 26.9508 53.0157 28.1642 52.3714 29.203C51.7271 30.2419 50.8603 31.0349 49.7708 31.5821C48.6814 32.1293 47.467 32.4029 46.1276 32.4029H45.2608C43.8941 32.4029 42.6602 32.042 41.559 31.3243C40.4578 30.6027 39.5949 29.6392 38.9779 28.4259C38.361 27.2125 38.0525 25.8723 38.0525 24.4052H41.1256C41.1256 25.8723 41.5043 27.1055 42.2697 28.1047C43.0311 29.1039 44.0268 29.6035 45.2647 29.6035H46.1315C47.2874 29.6035 48.2636 29.2387 49.068 28.5052C49.8685 27.7716 50.2707 26.8438 50.2707 25.7256C50.2707 24.8454 50.0403 24.1237 49.5795 23.5646C49.1187 23.0056 48.5603 22.5575 47.9043 22.2244C47.2483 21.8914 46.276 21.4711 44.9874 20.9635C43.6481 20.4322 42.5508 19.9167 41.6996 19.4251C40.8444 18.9334 40.122 18.2514 39.5324 17.383C38.9428 16.5186 38.646 15.4163 38.646 14.0841C38.646 12.0856 39.2825 10.5036 40.5555 9.34576C41.8284 8.18398 43.4646 7.60508 45.4599 7.60508H45.9324C47.2991 7.60508 48.533 7.9659 49.6342 8.68358C50.7353 9.40523 51.5983 10.3688 52.2153 11.5821C52.8322 12.7954 53.1407 14.1356 53.1407 15.6027H50.0676C50.0676 14.1356 49.6849 12.9025 48.9235 11.9033C48.162 10.904 47.1624 10.4044 45.9285 10.4044H45.456C44.3549 10.4044 43.4528 10.7375 42.7578 11.4036C42.0627 12.0698 41.7152 12.9104 41.7152 13.9215C41.7152 15.0159 42.0705 15.8565 42.7773 16.4433C43.488 17.0301 44.5618 17.617 46.0066 18.2038L46.8344 18.525C48.2245 19.0603 49.3569 19.5718 50.2199 20.0634C51.0868 20.5591 51.8209 21.249 52.4261 22.1451L52.43 22.1412ZM69.0138 19.7224L65.7064 29.203H63.0667L59.4821 19.7224V8.00159H56.409V20L61.0558 31.9984H62.8676V40H65.9407V31.9984H67.7916L72.0869 20V8.00159H69.0138V19.7224ZM188.927 8.00159V19.7224L185.62 29.203H182.98L179.395 19.7224V8.00159H176.322V20L180.969 31.9984H182.781V40H185.854V31.9984H187.705L192 20V8.00159H188.927ZM114.478 11.1221H119.245V8.00159H114.478V11.1221ZM122.318 11.1221H130.788V8.00159H122.318V11.1221ZM106.914 0H101.439V2.79937H106.914V0ZM106.914 31.9984H112.939V28.8779H106.914V31.9984ZM97.9329 31.9984H103.841V28.8779H97.9329V31.9984ZM97.929 11.1182H103.841V7.99762H97.929V11.1182ZM87.3782 7.59715H84.9533C83.649 7.59715 82.38 8.10864 81.3023 8.93735V14.8216C81.3023 12.9025 83.2468 10.7177 84.9533 10.7177H87.3782C88.9948 10.7177 90.2482 12.9223 90.2482 14.8216V24.774C90.2482 26.6931 88.3036 28.8779 86.5972 28.8779H84.9572C83.2508 28.8779 81.3062 26.6931 81.3062 24.774V30.6582C82.3839 31.483 83.6491 31.9984 84.9572 31.9984H86.5972C90.0959 31.9984 93.3213 28.3267 93.3213 24.774V14.8216C93.3213 11.2688 90.8769 7.59715 87.3782 7.59715ZM145.294 7.99762H143.654C142.35 7.99762 141.081 8.50912 140.003 9.33783V15.222C140.003 13.3029 141.948 11.1182 143.654 11.1182H145.294C147.001 11.1182 148.945 13.3029 148.945 15.222V25.1745C148.945 27.0738 147.692 29.2784 146.075 29.2784H143.651C141.944 29.2784 139.999 27.0936 139.999 25.1745V31.0587C141.077 31.8834 142.342 32.3989 143.651 32.3989H146.075C149.574 32.3989 152.019 28.7272 152.019 25.1745V15.222C152.019 11.6693 148.793 7.99762 145.294 7.99762ZM163.35 7.99762C159.852 7.99762 156.626 11.6693 156.626 15.222V25.1745C156.626 28.7272 159.071 32.3989 162.569 32.3989H164.994C166.298 32.3989 167.568 31.8874 168.645 31.0587V25.1745C168.645 27.0936 166.701 29.2784 164.994 29.2784H162.569C160.953 29.2784 159.699 27.0738 159.699 25.1745V15.222C159.699 13.3029 161.644 11.1182 163.35 11.1182H164.99C166.697 11.1182 168.641 13.3029 168.641 15.222V9.33783C167.564 8.51309 166.298 7.99762 164.99 7.99762H163.35ZM26.6153 7.99762C23.1165 7.99762 19.8912 11.6693 19.8912 15.222V25.1745C19.8912 28.7272 22.3356 32.3989 25.8343 32.3989H28.2592C29.5634 32.3989 30.8325 31.8874 31.9102 31.0587V25.1745C31.9102 27.0936 29.9656 29.2784 28.2592 29.2784H25.8343C24.2177 29.2784 22.9642 27.0738 22.9642 25.1745V15.222C22.9642 13.3029 24.9088 11.1182 26.6153 11.1182H28.2553C29.9617 11.1182 31.9063 13.3029 31.9063 15.222V9.33783C30.8286 8.51309 29.5634 7.99762 28.2553 7.99762H26.6153ZM11.7769 8.67565C10.6758 7.954 9.43795 7.59715 8.07517 7.59715H7.2083C5.84161 7.59715 4.60769 7.95797 3.50653 8.67565C2.40537 9.3973 1.5424 10.3608 0.925442 11.5741C0.308481 12.7875 0 14.1277 0 15.5948V17.276H3.07309V15.5948C3.07309 14.1277 3.45186 12.8945 4.21721 11.8953C4.97865 10.8961 5.97437 10.3965 7.2122 10.3965H8.07907C9.31299 10.3965 10.3126 10.8961 11.0741 11.8953C11.8355 12.8945 12.2182 14.1277 12.2182 15.5948V17.276H15.2913V15.5948C15.2913 14.1277 14.9828 12.7875 14.3658 11.5741C13.7489 10.3608 12.8898 9.39334 11.7847 8.67565H11.7769ZM11.0663 28.0968C10.3048 29.096 9.30519 29.5956 8.07126 29.5956H7.20439C5.97047 29.5956 4.97084 29.096 4.2094 28.0968C3.44796 27.0975 3.06528 25.8644 3.06528 24.3973V20.3965H0V24.3973C0 25.8644 0.308481 27.2046 0.925442 28.4179C1.5424 29.6312 2.40146 30.5987 3.50653 31.3164C4.61159 32.0381 5.84551 32.3949 7.2083 32.3949H8.07517C9.44185 32.3949 10.6758 32.0341 11.7769 31.3164C12.882 30.5948 13.7411 29.6312 14.358 28.4179C14.975 27.2046 15.2835 25.8644 15.2835 24.3973H12.2104C12.2104 25.8644 11.8277 27.0975 11.0663 28.0968Z" fill="#2B388F"/>
<path d="M103.841 28.8778H106.914V31.9984H103.841V28.8778ZM103.841 11.1181H106.914V7.99756H103.841V11.1181ZM119.241 11.1181H122.315V7.99756H119.241V11.1181ZM62.8676 31.9984H65.9407V29.199H62.8676V31.9984ZM182.781 29.199V31.9984H185.854V29.199H182.781ZM78.2331 14.8215V24.7739C78.2331 26.9984 79.4982 29.2704 81.3062 30.6581V8.93729C79.4982 10.3251 78.2331 12.5971 78.2331 14.8215ZM136.93 15.222V25.1744C136.93 27.3988 138.195 29.6708 140.003 31.0586V9.33776C138.195 10.7256 136.93 12.9976 136.93 15.222ZM168.641 9.33776V31.0586C170.449 29.6708 171.714 27.3988 171.714 25.1744V15.222C171.714 12.9976 170.449 10.7256 168.641 9.33776ZM31.9063 9.33776V31.0586C33.7142 29.6708 34.9794 27.3988 34.9794 25.1744V15.222C34.9794 12.9976 33.7142 10.7256 31.9063 9.33776ZM12.2104 20.3964H15.2835V17.2759H12.2104V20.3964ZM0 20.3964H3.07309V17.2759H0L0 20.3964Z" fill="#1E75FF"/>
<path d="M62.8676 29.199H65.9407V40H62.8676V29.199ZM123.459 27.7002C122.697 26.701 122.319 25.4679 122.319 24.0008V11.1182H119.245V23.9968C119.245 25.4639 119.554 26.8041 120.171 28.0174C120.788 29.2308 121.647 30.1983 122.752 30.9159C123.853 31.6376 125.087 31.9945 126.454 31.9945H130.788V29.1951H126.454C125.22 29.1951 124.22 28.6955 123.459 27.6963V27.7002ZM122.319 3.60032H119.245V8.00159H122.319V3.60032ZM103.845 28.8779H106.918V11.1182H103.845V28.8779ZM182.785 29.199V40H185.858V29.199H182.785ZM78.2331 24.774V31.9984H81.3062V30.6582C79.4983 29.2704 78.2331 26.9984 78.2331 24.774ZM78.2331 14.8216C78.2331 12.5971 79.4983 10.3251 81.3062 8.93735V0H78.2331V14.8216ZM136.93 15.222C136.93 12.9976 138.196 10.7256 140.003 9.33783V7.99762H136.93V15.222ZM136.93 25.1745V39.996H140.003V31.0587C138.196 29.6709 136.93 27.3989 136.93 25.1745ZM168.641 9.33783C170.449 10.7256 171.714 12.9976 171.714 15.222V7.99762H168.641V9.33783ZM168.641 31.0587V32.3989H171.714V25.1745C171.714 27.3989 170.449 29.6709 168.641 31.0587ZM31.9063 9.33783C33.7142 10.7256 34.9794 12.9976 34.9794 15.222V7.99762H31.9063V9.33783ZM31.9063 31.0587V32.3989H34.9794V25.1745C34.9794 27.3989 33.7142 29.6709 31.9063 31.0587ZM3.07312 17.2799V20.4005H12.2104V17.2799H3.07312Z" fill="#00BDFF"/>
</svg>
