<svg width="13" height="21" viewBox="0 0 13 21" fill="none" xmlns="http://www.w3.org/2000/svg">
<path d="M11.8606 4.19965C11.351 3.22289 10.6413 2.44403 9.72849 1.86628C8.81886 1.28533 7.79634 0.998047 6.6706 0.998047H5.95451C4.82554 0.998047 3.80624 1.28852 2.89661 1.86628C1.98699 2.44723 1.27412 3.22289 0.764474 4.19965C0.254824 5.17641 0 6.25531 0 7.43636V8.78978H2.53857V7.43636C2.53857 6.25531 2.85145 5.26259 3.48368 4.4582C4.11267 3.65381 4.93521 3.25162 5.95773 3.25162H6.67382C7.69312 3.25162 8.51888 3.65381 9.14788 4.4582C9.77688 5.26259 10.093 6.25531 10.093 7.43636V8.78978H12.6316V7.43636C12.6316 6.25531 12.3767 5.17641 11.8671 4.19965H11.8606Z" fill="#2B388F"/>
<path d="M0 14.5235C0 15.7045 0.254824 16.7834 0.764474 17.7602C1.27412 18.737 1.98376 19.5158 2.89661 20.0936C3.80947 20.6745 4.82876 20.9618 5.95451 20.9618H6.6706C7.79957 20.9618 8.81886 20.6713 9.72849 20.0936C10.6413 19.5126 11.351 18.737 11.8606 17.7602C12.3703 16.7834 12.6251 15.7045 12.6251 14.5235H10.0865C10.0865 15.7045 9.77042 16.6973 9.14143 17.5017C8.51243 18.306 7.68667 18.7082 6.66737 18.7082H5.95128C4.93198 18.7082 4.10622 18.306 3.47723 17.5017C2.84823 16.6973 2.53212 15.7045 2.53212 14.5235V11.3027H0V14.5235Z" fill="#2B388F"/>
<path d="M12.6245 8.79102H10.0859V11.3031H12.6245V8.79102Z" fill="#1B75BB"/>
<path d="M10.0851 8.78906H2.53711V11.3012H10.0851V8.78906Z" fill="#1F75FF"/>
<path d="M2.53857 8.79102H0V11.3031H2.53857V8.79102Z" fill="#1B75BB"/>
</svg>
