<svg width="168" height="33" viewBox="0 0 168 33" fill="none" xmlns="http://www.w3.org/2000/svg">
<path d="M43.589 23.3232C44.2503 22.7327 44.5825 21.9858 44.5825 21.0856C44.5825 20.377 44.3922 19.796 44.0116 19.346C43.631 18.8959 43.1697 18.5352 42.6278 18.267C42.0859 17.9989 41.2827 17.6606 40.2183 17.252C39.1119 16.8243 38.2055 16.4093 37.5023 16.0135C36.7959 15.6177 36.1991 15.0686 35.7121 14.3696C35.225 13.6737 34.9798 12.7863 34.9798 11.7138C34.9798 10.105 35.5056 8.83142 36.5572 7.89935C37.6087 6.96408 38.9603 6.49805 40.6086 6.49805H40.9989C42.1278 6.49805 43.1471 6.78852 44.0568 7.36628C44.9664 7.94723 45.6793 8.72289 46.1889 9.69965C46.6986 10.6764 46.9534 11.7553 46.9534 12.9364H44.4148C44.4148 11.7553 44.0987 10.7626 43.4697 9.9582C42.8407 9.15381 42.0149 8.75162 40.9956 8.75162H40.6053C39.6957 8.75162 38.9506 9.01975 38.3764 9.55601C37.8023 10.0923 37.5152 10.769 37.5152 11.5829C37.5152 12.4639 37.8087 13.1407 38.3926 13.6131C38.9796 14.0855 39.8667 14.5579 41.0602 15.0303L41.744 15.2889C42.8923 15.7198 43.8277 16.1316 44.5406 16.5274C45.2567 16.9264 45.8631 17.4818 46.3631 18.2032C46.8631 18.9214 47.1114 19.8407 47.1114 20.9579C47.1114 22.0751 46.8469 23.0519 46.3147 23.8882C45.7825 24.7245 45.0664 25.3629 44.1664 25.8034C43.2665 26.2439 42.2633 26.4642 41.1569 26.4642H40.4408C39.3119 26.4642 38.2926 26.1737 37.3829 25.5959C36.4733 25.015 35.7604 24.2393 35.2508 23.2626C34.7412 22.2858 34.4863 21.2069 34.4863 20.0259H37.0249C37.0249 21.2069 37.3378 22.1996 37.97 23.004C38.599 23.8084 39.4215 24.2106 40.4441 24.2106H41.1601C42.1149 24.2106 42.9213 23.9169 43.5858 23.3264L43.589 23.3232Z" fill="#2B388F"/>
<path d="M51.5742 16.4794V6.82031H54.1128V16.2559L57.0739 23.8881H59.2544L61.9865 16.2559V6.82031H64.5251V16.4794L60.9769 26.1385H59.448V32.58H56.9094V26.1385H55.4127L51.5742 16.4794Z" fill="#2B388F"/>
<path d="M155.049 16.4794V6.82031H157.587V16.2559L160.549 23.8881H162.729L165.461 16.2559V6.82031H168V16.4794L164.452 26.1385H162.923V32.58H160.384V26.1385H158.887L155.049 16.4794Z" fill="#2B388F"/>
<path d="M59.4526 23.8848H56.9141V32.5798H59.4526V23.8848Z" fill="#1F75FF"/>
<path d="M106.891 9.33008V19.6978C106.891 20.8788 107.145 21.9577 107.655 22.9345C108.165 23.9113 108.874 24.6901 109.787 25.2679C110.697 25.8488 111.716 26.1361 112.845 26.1361H116.426V23.8825H112.845C111.826 23.8825 111 23.4803 110.371 22.6759C109.742 21.8716 109.429 20.8788 109.429 19.6978V9.33008H106.891Z" fill="#1F75FF"/>
<path d="M109.429 3.2793H106.891V6.82245H109.429V3.2793Z" fill="#1F75FF"/>
<path d="M106.896 6.82031H102.957V9.33244H106.896V6.82031Z" fill="#2B388F"/>
<path d="M116.426 6.82129H109.43V9.33341H116.426V6.82129Z" fill="#2B388F"/>
<path d="M93.8114 0.378906H89.2891V2.63248H93.8114V0.378906Z" fill="#2B388F"/>
<path d="M93.814 9.33008H91.2754V23.6272H93.814V9.33008Z" fill="#1F75FF"/>
<path d="M98.7896 23.627H93.8125V26.1391H98.7896V23.627Z" fill="#2B388F"/>
<path d="M91.2749 23.627H86.3945V26.1391H91.2749V23.627Z" fill="#2B388F"/>
<path d="M93.814 23.627H91.2754V26.1391H93.814V23.627Z" fill="#1B75BB"/>
<path d="M91.2742 6.81934H86.3906V9.33146H91.2742V6.81934Z" fill="#2B388F"/>
<path d="M93.814 6.81934H91.2754V9.33146H93.814V6.81934Z" fill="#1B75BB"/>
<path d="M109.429 6.82031H106.891V9.33244H109.429V6.82031Z" fill="#1B75BB"/>
<path d="M59.4526 23.8848H56.9141V26.1383H59.4526V23.8848Z" fill="#1B75BB"/>
<path d="M162.925 23.8848H160.387V32.5798H162.925V23.8848Z" fill="#1F75FF"/>
<path d="M162.925 23.8848H160.387V26.1383H162.925V23.8848Z" fill="#1B75BB"/>
<path d="M69.1504 20.3262V26.142H71.689V25.0631C70.1955 23.9459 69.1504 22.1169 69.1504 20.3262Z" fill="#1F75FF"/>
<path d="M71.689 7.57373V0.378906H69.1504V12.3107C69.1504 10.52 70.1955 8.69094 71.689 7.57373Z" fill="#1F75FF"/>
<path d="M76.7046 6.49805H74.7015C73.6242 6.49805 72.5758 6.90982 71.6855 7.57695V12.3139C71.6855 10.769 73.2919 9.01017 74.7015 9.01017H76.7046C78.04 9.01017 79.0755 10.7849 79.0755 12.3139V20.3259C79.0755 21.8708 77.4691 23.6297 76.0595 23.6297H74.7047C73.2951 23.6297 71.6888 21.8708 71.6888 20.3259V25.0629C72.579 25.7268 73.6241 26.1418 74.7047 26.1418H76.0595C78.9497 26.1418 81.614 23.186 81.614 20.3259V12.3139C81.614 9.45386 79.5948 6.49805 76.7046 6.49805Z" fill="#2B388F"/>
<path d="M71.689 12.3112V7.57422C70.1955 8.69143 69.1504 10.5205 69.1504 12.3112V20.3232C69.1504 22.1139 70.1955 23.9429 71.689 25.0601V12.3112Z" fill="#1B75BB"/>
<path d="M122.119 12.6342V6.81836H124.658V7.89726C123.164 9.01447 122.119 10.8435 122.119 12.6342Z" fill="#1F75FF"/>
<path d="M124.658 25.3835V32.5783H122.119V20.6465C122.119 22.4372 123.164 24.2662 124.658 25.3835Z" fill="#1F75FF"/>
<path d="M129.673 26.4621H127.67C126.593 26.4621 125.545 26.0503 124.654 25.3832V20.6462C124.654 22.1912 126.261 23.95 127.67 23.95H129.673C131.009 23.95 132.044 22.1752 132.044 20.6462V12.6342C132.044 11.0893 130.438 9.33048 129.028 9.33048H127.673C126.264 9.33048 124.658 11.0893 124.658 12.6342V7.89726C125.548 7.23332 126.593 6.81836 127.673 6.81836H129.028C131.918 6.81836 134.583 9.77418 134.583 12.6342V20.6462C134.583 23.5063 132.564 26.4621 129.673 26.4621Z" fill="#2B388F"/>
<path d="M124.658 20.6464V25.3834C123.164 24.2662 122.119 22.4371 122.119 20.6464V12.6344C122.119 10.8437 123.164 9.01467 124.658 7.89746V20.6464Z" fill="#1B75BB"/>
<path d="M151.046 12.6342V6.81836H148.508V7.89726C150.001 9.01447 151.046 10.8435 151.046 12.6342Z" fill="#1F75FF"/>
<path d="M148.508 25.3835V26.4624H151.046V20.6465C151.046 22.4372 150.001 24.2662 148.508 25.3835Z" fill="#1F75FF"/>
<path d="M143.493 26.4621H145.497C146.574 26.4621 147.622 26.0503 148.512 25.3832V20.6462C148.512 22.1912 146.906 23.95 145.497 23.95H143.493C142.158 23.95 141.123 22.1752 141.123 20.6462V12.6342C141.123 11.0893 142.729 9.33048 144.139 9.33048H145.493C146.903 9.33048 148.509 11.0893 148.509 12.6342V7.89726C147.619 7.23332 146.574 6.81836 145.493 6.81836H144.139C141.248 6.81836 138.584 9.77418 138.584 12.6342V20.6462C138.584 23.5063 140.603 26.4621 143.493 26.4621Z" fill="#2B388F"/>
<path d="M148.508 20.6464V25.3834C150.001 24.2662 151.046 22.4371 151.046 20.6464V12.6344C151.046 10.8437 150.001 9.01467 148.508 7.89746V20.6464Z" fill="#1B75BB"/>
<path d="M29.7866 12.6342V6.81836H27.248V7.89726C28.7415 9.01447 29.7866 10.8435 29.7866 12.6342Z" fill="#1F75FF"/>
<path d="M27.248 25.3835V26.4624H29.7866V20.6465C29.7866 22.4372 28.7415 24.2662 27.248 25.3835Z" fill="#1F75FF"/>
<path d="M22.2336 26.4621H24.2367C25.3141 26.4621 26.3624 26.0503 27.2527 25.3832V20.6462C27.2527 22.1912 25.6463 23.95 24.2367 23.95H22.2336C20.8982 23.95 19.8628 22.1752 19.8628 20.6462V12.6342C19.8628 11.0893 21.4691 9.33048 22.8787 9.33048H24.2335C25.6431 9.33048 27.2495 11.0893 27.2495 12.6342V7.89726C26.3592 7.23332 25.3141 6.81836 24.2335 6.81836H22.8787C19.9886 6.81836 17.3242 9.77418 17.3242 12.6342V20.6462C17.3242 23.5063 19.3435 26.4621 22.2336 26.4621Z" fill="#2B388F"/>
<path d="M27.248 20.6464V25.3834C28.7415 24.2662 29.7866 22.4371 29.7866 20.6464V12.6344C29.7866 10.8437 28.7415 9.01467 27.248 7.89746V20.6464Z" fill="#1B75BB"/>
<path d="M11.8606 9.69965C11.351 8.72289 10.6413 7.94403 9.72849 7.36628C8.81886 6.78533 7.79634 6.49805 6.6706 6.49805H5.95451C4.82554 6.49805 3.80624 6.78852 2.89661 7.36628C1.98699 7.94723 1.27412 8.72289 0.764474 9.69965C0.254824 10.6764 0 11.7553 0 12.9364V14.2898H2.53857V12.9364C2.53857 11.7553 2.85145 10.7626 3.48368 9.9582C4.11267 9.15381 4.93521 8.75162 5.95773 8.75162H6.67382C7.69312 8.75162 8.51888 9.15381 9.14788 9.9582C9.77688 10.7626 10.093 11.7553 10.093 12.9364V14.2898H12.6316V12.9364C12.6316 11.7553 12.3767 10.6764 11.8671 9.69965H11.8606Z" fill="#2B388F"/>
<path d="M0 20.0225C0 21.2036 0.254824 22.2825 0.764474 23.2592C1.27412 24.236 1.98376 25.0148 2.89661 25.5926C3.80947 26.1735 4.82876 26.4608 5.95451 26.4608H6.6706C7.79957 26.4608 8.81886 26.1704 9.72849 25.5926C10.6413 25.0116 11.351 24.236 11.8606 23.2592C12.3703 22.2825 12.6251 21.2036 12.6251 20.0225H10.0865C10.0865 21.2036 9.77042 22.1963 9.14143 23.0007C8.51243 23.8051 7.68667 24.2073 6.66737 24.2073H5.95128C4.93198 24.2073 4.10622 23.8051 3.47723 23.0007C2.84823 22.1963 2.53212 21.2036 2.53212 20.0225V16.8018H0V20.0225Z" fill="#2B388F"/>
<path d="M12.6245 14.291H10.0859V16.8031H12.6245V14.291Z" fill="#1B75BB"/>
<path d="M10.0851 14.2891H2.53711V16.8012H10.0851V14.2891Z" fill="#1F75FF"/>
<path d="M2.53857 14.291H0V16.8031H2.53857V14.291Z" fill="#1B75BB"/>
</svg>
