<svg width="24" height="25" viewBox="0 0 24 25" fill="none" xmlns="http://www.w3.org/2000/svg">
<path d="M22.6755 24.3579C23.4069 24.3579 24 23.7648 24 23.0332V1.68252C24 0.950835 23.407 0.35791 22.6755 0.35791H1.32462C0.592929 0.35791 0 0.950835 0 1.68252V23.0332C0 23.7647 0.592836 24.3579 1.32462 24.3579H22.6755Z" fill="#BEC7CB"/>
<path d="M16.5595 24.3581V15.064H19.6791L20.1462 11.4419H16.5595V9.12945C16.5595 8.08077 16.8507 7.36613 18.3545 7.36613L20.2725 7.36529V4.12567C19.9408 4.08153 18.8022 3.98291 17.4776 3.98291C14.7123 3.98291 12.819 5.67089 12.819 8.77073V11.4419H9.69141V15.064H12.819V24.3581H16.5595Z" fill="white"/>
</svg>
