<svg width="24" height="25" viewBox="0 0 24 25" fill="none" xmlns="http://www.w3.org/2000/svg">
<rect x="0.75" y="1.03418" width="22.5" height="22.5" rx="11.25" fill="#FFD663"/>
<path fill-rule="evenodd" clip-rule="evenodd" d="M0.805547 11.1592C0.768809 11.5292 0.75 11.9045 0.75 12.2842C0.75 18.4974 5.7868 23.5342 12 23.5342C18.2132 23.5342 23.25 18.4974 23.25 12.2842C23.25 11.9045 23.2312 11.5292 23.1945 11.1592C22.63 16.8442 17.8335 21.2842 12 21.2842C6.16648 21.2842 1.36999 16.8442 0.805547 11.1592Z" fill="#FFD04C"/>
<circle cx="4.125" cy="9.65918" r="1.875" fill="#FF759B" fill-opacity="0.2"/>
<circle cx="19.875" cy="9.65918" r="1.875" fill="#FF759B" fill-opacity="0.2"/>
<mask id="path-5-inside-1_633_13303" fill="white">
<path fill-rule="evenodd" clip-rule="evenodd" d="M8.25 7.61751C7.71744 7.61751 7.28571 8.06523 7.28571 8.61751C7.28571 8.9857 6.9979 9.28418 6.64286 9.28418C6.28782 9.28418 6 8.9857 6 8.61751C6 7.32885 7.00736 6.28418 8.25 6.28418C9.49264 6.28418 10.5 7.32885 10.5 8.61751C10.5 8.9857 10.2122 9.28418 9.85714 9.28418C9.5021 9.28418 9.21429 8.9857 9.21429 8.61751C9.21429 8.06523 8.78256 7.61751 8.25 7.61751Z"/>
</mask>
<path fill-rule="evenodd" clip-rule="evenodd" d="M8.25 7.61751C7.71744 7.61751 7.28571 8.06523 7.28571 8.61751C7.28571 8.9857 6.9979 9.28418 6.64286 9.28418C6.28782 9.28418 6 8.9857 6 8.61751C6 7.32885 7.00736 6.28418 8.25 6.28418C9.49264 6.28418 10.5 7.32885 10.5 8.61751C10.5 8.9857 10.2122 9.28418 9.85714 9.28418C9.5021 9.28418 9.21429 8.9857 9.21429 8.61751C9.21429 8.06523 8.78256 7.61751 8.25 7.61751Z" fill="#52565F"/>
<path d="M9.28571 8.61751C9.28571 9.10062 8.88994 9.61751 8.25 9.61751V5.61751C6.54494 5.61751 5.28571 7.02984 5.28571 8.61751H9.28571ZM6.64286 11.2842C8.1704 11.2842 9.28571 10.0211 9.28571 8.61751H5.28571C5.28571 7.95031 5.82539 7.28418 6.64286 7.28418V11.2842ZM4 8.61751C4 10.0211 5.11531 11.2842 6.64286 11.2842V7.28418C7.46032 7.28418 8 7.95031 8 8.61751H4ZM8.25 4.28418C5.83486 4.28418 4 6.29346 4 8.61751H8C8 8.50148 8.04366 8.41295 8.0987 8.35587C8.15251 8.30007 8.20479 8.28418 8.25 8.28418V4.28418ZM12.5 8.61751C12.5 6.29346 10.6651 4.28418 8.25 4.28418V8.28418C8.29521 8.28418 8.34749 8.30007 8.4013 8.35587C8.45634 8.41295 8.5 8.50148 8.5 8.61751H12.5ZM9.85714 11.2842C11.3847 11.2842 12.5 10.0211 12.5 8.61751H8.5C8.5 7.95031 9.03968 7.28418 9.85714 7.28418V11.2842ZM7.21429 8.61751C7.21429 10.0211 8.3296 11.2842 9.85714 11.2842V7.28418C10.6746 7.28418 11.2143 7.95031 11.2143 8.61751H7.21429ZM8.25 9.61751C7.61006 9.61751 7.21429 9.10062 7.21429 8.61751H11.2143C11.2143 7.02984 9.95506 5.61751 8.25 5.61751V9.61751Z" fill="#52565F" mask="url(#path-5-inside-1_633_13303)"/>
<mask id="path-7-inside-2_633_13303" fill="white">
<path fill-rule="evenodd" clip-rule="evenodd" d="M15.75 7.61751C15.2174 7.61751 14.7857 8.06523 14.7857 8.61751C14.7857 8.9857 14.4979 9.28418 14.1429 9.28418C13.7878 9.28418 13.5 8.9857 13.5 8.61751C13.5 7.32885 14.5074 6.28418 15.75 6.28418C16.9926 6.28418 18 7.32885 18 8.61751C18 8.9857 17.7122 9.28418 17.3571 9.28418C17.0021 9.28418 16.7143 8.9857 16.7143 8.61751C16.7143 8.06523 16.2826 7.61751 15.75 7.61751Z"/>
</mask>
<path fill-rule="evenodd" clip-rule="evenodd" d="M15.75 7.61751C15.2174 7.61751 14.7857 8.06523 14.7857 8.61751C14.7857 8.9857 14.4979 9.28418 14.1429 9.28418C13.7878 9.28418 13.5 8.9857 13.5 8.61751C13.5 7.32885 14.5074 6.28418 15.75 6.28418C16.9926 6.28418 18 7.32885 18 8.61751C18 8.9857 17.7122 9.28418 17.3571 9.28418C17.0021 9.28418 16.7143 8.9857 16.7143 8.61751C16.7143 8.06523 16.2826 7.61751 15.75 7.61751Z" fill="#52565F"/>
<path d="M16.7857 8.61751C16.7857 9.10062 16.3899 9.61751 15.75 9.61751V5.61751C14.0449 5.61751 12.7857 7.02984 12.7857 8.61751H16.7857ZM14.1429 11.2842C15.6704 11.2842 16.7857 10.0211 16.7857 8.61751H12.7857C12.7857 7.95031 13.3254 7.28418 14.1429 7.28418V11.2842ZM11.5 8.61751C11.5 10.0211 12.6153 11.2842 14.1429 11.2842V7.28418C14.9603 7.28418 15.5 7.95031 15.5 8.61751H11.5ZM15.75 4.28418C13.3349 4.28418 11.5 6.29346 11.5 8.61751H15.5C15.5 8.50148 15.5437 8.41295 15.5987 8.35587C15.6525 8.30007 15.7048 8.28418 15.75 8.28418V4.28418ZM20 8.61751C20 6.29346 18.1651 4.28418 15.75 4.28418V8.28418C15.7952 8.28418 15.8475 8.30007 15.9013 8.35587C15.9563 8.41295 16 8.50148 16 8.61751H20ZM17.3571 11.2842C18.8847 11.2842 20 10.0211 20 8.61751H16C16 7.95031 16.5397 7.28418 17.3571 7.28418V11.2842ZM14.7143 8.61751C14.7143 10.0211 15.8296 11.2842 17.3571 11.2842V7.28418C18.1746 7.28418 18.7143 7.95031 18.7143 8.61751H14.7143ZM15.75 9.61751C15.1101 9.61751 14.7143 9.10062 14.7143 8.61751H18.7143C18.7143 7.02984 17.4551 5.61751 15.75 5.61751V9.61751Z" fill="#52565F" mask="url(#path-7-inside-2_633_13303)"/>
<path fill-rule="evenodd" clip-rule="evenodd" d="M4.91475 12.3635C5.28524 12.1783 5.73574 12.3284 5.92098 12.6989C6.49634 13.8496 8.60672 15.2843 12.0002 15.2843C15.3936 15.2843 17.504 13.8496 18.0793 12.6989C18.2646 12.3284 18.7151 12.1783 19.0856 12.3635C19.4561 12.5488 19.6062 12.9993 19.421 13.3698C18.4963 15.219 15.712 16.7843 12.0002 16.7843C8.28834 16.7843 5.50399 15.219 4.57934 13.3698C4.3941 12.9993 4.54427 12.5488 4.91475 12.3635Z" fill="#52565F"/>
</svg>
