<svg width="24" height="25" viewBox="0 0 24 25" fill="none" xmlns="http://www.w3.org/2000/svg">
<rect x="0.75" y="1.03418" width="22.5" height="22.5" rx="11.25" fill="#FFD663"/>
<path fill-rule="evenodd" clip-rule="evenodd" d="M0.805547 11.1592C0.768809 11.5292 0.75 11.9045 0.75 12.2842C0.75 18.4974 5.7868 23.5342 12 23.5342C18.2132 23.5342 23.25 18.4974 23.25 12.2842C23.25 11.9045 23.2312 11.5292 23.1945 11.1592C22.63 16.8442 17.8335 21.2842 12 21.2842C6.16648 21.2842 1.36999 16.8442 0.805547 11.1592Z" fill="#FFD04C"/>
<circle cx="8.25" cy="10.0342" r="1.5" fill="#52565F"/>
<circle cx="15.75" cy="10.0342" r="1.5" fill="#52565F"/>
<path fill-rule="evenodd" clip-rule="evenodd" d="M7.5 16.0342C7.5 15.62 7.83579 15.2842 8.25 15.2842H15.75C16.1642 15.2842 16.5 15.62 16.5 16.0342C16.5 16.4484 16.1642 16.7842 15.75 16.7842H8.25C7.83579 16.7842 7.5 16.4484 7.5 16.0342Z" fill="#52565F"/>
</svg>
