<svg width="24" height="25" viewBox="0 0 24 25" fill="none" xmlns="http://www.w3.org/2000/svg">
<rect x="0.75" y="1.03418" width="22.5" height="22.5" rx="11.25" fill="#FFD663"/>
<path fill-rule="evenodd" clip-rule="evenodd" d="M0.805547 11.1592C0.768809 11.5292 0.75 11.9045 0.75 12.2842C0.75 18.4974 5.7868 23.5342 12 23.5342C18.2132 23.5342 23.25 18.4974 23.25 12.2842C23.25 11.9045 23.2312 11.5292 23.1945 11.1592C22.63 16.8442 17.8335 21.2842 12 21.2842C6.16648 21.2842 1.36999 16.8442 0.805547 11.1592Z" fill="#FFD04C"/>
<path fill-rule="evenodd" clip-rule="evenodd" d="M8.76279 17.4955C9.15575 17.6265 9.58049 17.4141 9.71147 17.0211C10.0133 16.1157 10.8266 15.284 12 15.284C13.1733 15.284 13.9866 16.1157 14.2884 17.0211C14.4194 17.4141 14.8442 17.6265 15.2371 17.4955C15.6301 17.3645 15.8425 16.9398 15.7115 16.5468C15.2633 15.2022 13.9845 13.784 12 13.784C10.0154 13.784 8.73665 15.2022 8.28845 16.5468C8.15746 16.9398 8.36983 17.3645 8.76279 17.4955Z" fill="#52565F"/>
<circle cx="8.25" cy="10.0342" r="1.5" fill="#52565F"/>
<circle cx="15.75" cy="10.0342" r="1.5" fill="#52565F"/>
</svg>
